G04*
G04 #@! TF.GenerationSoftware,Altium Limited,Altium Designer,25.1.2 (22)*
G04*
G04 Layer_Color=8421504*
%FSLAX44Y44*%
%MOMM*%
G71*
G04*
G04 #@! TF.SameCoordinates,0FC80BA3-B051-4539-9073-6837C8DE60D5*
G04*
G04*
G04 #@! TF.FilePolarity,Positive*
G04*
G01*
G75*
%ADD15R,1.5240X1.5240*%
%ADD16R,1.5240X1.5240*%
D15*
X355600Y304800D02*
D03*
X321310D02*
D03*
X355600Y393700D02*
D03*
X321310D02*
D03*
X355600Y368300D02*
D03*
X321310D02*
D03*
X393700Y965200D02*
D03*
X427990D02*
D03*
X393700Y990600D02*
D03*
X427990D02*
D03*
X393700Y596900D02*
D03*
X427990D02*
D03*
X393700Y622300D02*
D03*
X427990D02*
D03*
X393700Y889000D02*
D03*
X427990D02*
D03*
X393700Y863600D02*
D03*
X427990D02*
D03*
X393700Y838200D02*
D03*
X427990D02*
D03*
X393700Y812800D02*
D03*
X427990D02*
D03*
X393700Y749300D02*
D03*
X427990D02*
D03*
X393700Y723900D02*
D03*
X427990D02*
D03*
X393700Y698500D02*
D03*
X427990D02*
D03*
X393700Y673100D02*
D03*
X427990D02*
D03*
X393700Y779780D02*
D03*
X427990D02*
D03*
X1377950Y289560D02*
D03*
X1343660D02*
D03*
X1377950Y340360D02*
D03*
X1343660D02*
D03*
X1377950Y391160D02*
D03*
X1343660D02*
D03*
X1377950Y441960D02*
D03*
X1343660D02*
D03*
X1380490Y530860D02*
D03*
X1346200D02*
D03*
X1380490Y581660D02*
D03*
X1346200D02*
D03*
X1380490Y632460D02*
D03*
X1346200D02*
D03*
X1380490Y683260D02*
D03*
X1346200D02*
D03*
X730250Y1275080D02*
D03*
X764540D02*
D03*
X730250Y1224280D02*
D03*
X764540D02*
D03*
X730250Y1173480D02*
D03*
X764540D02*
D03*
X730250Y1122680D02*
D03*
X764540D02*
D03*
X727710Y1046480D02*
D03*
X762000D02*
D03*
X727710Y995680D02*
D03*
X762000D02*
D03*
X727710Y944880D02*
D03*
X762000D02*
D03*
X727710Y894080D02*
D03*
X762000D02*
D03*
X1409700Y1346200D02*
D03*
X1443990D02*
D03*
X1409700Y1295400D02*
D03*
X1443990D02*
D03*
X1409700Y1244600D02*
D03*
X1443990D02*
D03*
X1409700Y1193800D02*
D03*
X1443990D02*
D03*
X1409700Y1117600D02*
D03*
X1443990D02*
D03*
X1409700Y1066800D02*
D03*
X1443990D02*
D03*
X1409700Y1016000D02*
D03*
X1443990D02*
D03*
X1409700Y965200D02*
D03*
X1443990D02*
D03*
X1409700Y889000D02*
D03*
X1443990D02*
D03*
X1409700Y838200D02*
D03*
X1443990D02*
D03*
X1409700Y787400D02*
D03*
X1443990D02*
D03*
X1409700Y736600D02*
D03*
X1443990D02*
D03*
D16*
X431800Y419100D02*
D03*
Y453390D02*
D03*
X406400Y419100D02*
D03*
Y453390D02*
D03*
X736600Y420370D02*
D03*
Y454660D02*
D03*
X711200Y420370D02*
D03*
Y454660D02*
D03*
X477520Y421640D02*
D03*
Y455930D02*
D03*
X500380Y421640D02*
D03*
Y455930D02*
D03*
X523240Y421640D02*
D03*
Y455930D02*
D03*
X546100Y421640D02*
D03*
Y455930D02*
D03*
X596900Y421640D02*
D03*
Y455930D02*
D03*
X622300Y421640D02*
D03*
Y455930D02*
D03*
X647700Y421640D02*
D03*
Y455930D02*
D03*
X673100Y421640D02*
D03*
Y455930D02*
D03*
X271780Y1054100D02*
D03*
Y1088390D02*
D03*
X342900Y1054100D02*
D03*
Y1088390D02*
D03*
X317500Y1054100D02*
D03*
Y1088390D02*
D03*
X571500Y422910D02*
D03*
Y457200D02*
D03*
X1003300Y1384300D02*
D03*
Y1418590D02*
D03*
X1054100Y1384300D02*
D03*
Y1418590D02*
D03*
X1104900Y1384300D02*
D03*
Y1418590D02*
D03*
X1155700Y1384300D02*
D03*
Y1418590D02*
D03*
M02*
