G04*
G04 #@! TF.GenerationSoftware,Altium Limited,Altium Designer,25.1.2 (22)*
G04*
G04 Layer_Color=65535*
%FSLAX44Y44*%
%MOMM*%
G71*
G04*
G04 #@! TF.SameCoordinates,0FC80BA3-B051-4539-9073-6837C8DE60D5*
G04*
G04*
G04 #@! TF.FilePolarity,Positive*
G04*
G01*
G75*
%ADD10C,0.1000*%
%ADD11C,0.2540*%
%ADD12C,0.2000*%
%ADD13C,0.3810*%
%ADD14C,0.1270*%
G36*
X389870Y1406255D02*
X392785D01*
Y1405839D01*
X394452D01*
Y1405422D01*
X395285D01*
Y1405005D01*
X396118D01*
Y1404589D01*
X396951D01*
Y1404172D01*
X397368D01*
Y1403756D01*
X398201D01*
Y1403339D01*
X398617D01*
Y1402923D01*
X399034D01*
Y1402506D01*
X399450D01*
Y1401673D01*
X399867D01*
Y1401257D01*
X400284D01*
Y1400423D01*
X400700D01*
Y1399590D01*
X401116D01*
Y1398341D01*
X401533D01*
Y1396674D01*
X401950D01*
Y1382095D01*
X401533D01*
Y1380429D01*
X401116D01*
Y1379179D01*
X400700D01*
Y1378346D01*
X400284D01*
Y1377513D01*
X399867D01*
Y1377097D01*
X399450D01*
Y1376263D01*
X399034D01*
Y1375847D01*
X398617D01*
Y1375430D01*
X398201D01*
Y1375014D01*
X397368D01*
Y1374597D01*
X396951D01*
Y1374181D01*
X396118D01*
Y1373764D01*
X395285D01*
Y1373348D01*
X394452D01*
Y1372931D01*
X392785D01*
Y1372514D01*
X366126D01*
Y1372098D01*
X365710D01*
Y1342939D01*
X365293D01*
Y1342523D01*
X361128D01*
Y1404589D01*
Y1405005D01*
Y1406672D01*
X389870D01*
Y1406255D01*
D02*
G37*
G36*
X345715Y1426666D02*
X346965D01*
Y1426250D01*
X347798D01*
Y1425833D01*
X348631D01*
Y1425417D01*
X349048D01*
Y1425000D01*
X349464D01*
Y1424583D01*
X349881D01*
Y1423750D01*
X350297D01*
Y1422917D01*
X350714D01*
Y1326277D01*
X350297D01*
Y1325444D01*
X349881D01*
Y1324611D01*
X349464D01*
Y1324194D01*
X349048D01*
Y1323778D01*
X348631D01*
Y1323361D01*
X347798D01*
Y1322945D01*
X346965D01*
Y1322528D01*
X345715D01*
Y1322112D01*
X251158D01*
Y1322528D01*
X249908D01*
Y1322945D01*
X249075D01*
Y1323361D01*
X248658D01*
Y1323778D01*
X248242D01*
Y1324194D01*
X247825D01*
Y1324611D01*
X247409D01*
Y1325027D01*
X246992D01*
Y1325444D01*
X246576D01*
Y1326694D01*
X246159D01*
Y1422501D01*
X246576D01*
Y1423750D01*
X246992D01*
Y1424167D01*
X247409D01*
Y1424583D01*
X247825D01*
Y1425417D01*
X248658D01*
Y1425833D01*
X249075D01*
Y1426250D01*
X249908D01*
Y1426666D01*
X251158D01*
Y1427083D01*
X345715D01*
Y1426666D01*
D02*
G37*
G36*
X428192Y1401673D02*
X421528D01*
Y1401257D01*
X420278D01*
Y1400840D01*
X419445D01*
Y1400423D01*
X418612D01*
Y1400007D01*
X418195D01*
Y1399590D01*
X417779D01*
Y1399174D01*
X417362D01*
Y1398757D01*
X416945D01*
Y1397924D01*
X416529D01*
Y1397091D01*
X416112D01*
Y1395425D01*
X415696D01*
Y1353770D01*
X416112D01*
Y1352103D01*
X416529D01*
Y1351270D01*
X416945D01*
Y1350437D01*
X417362D01*
Y1350021D01*
X417779D01*
Y1349604D01*
X418195D01*
Y1349187D01*
X418612D01*
Y1348771D01*
X419445D01*
Y1348354D01*
X420278D01*
Y1347938D01*
X421528D01*
Y1347521D01*
X447354D01*
Y1342523D01*
X422777D01*
Y1342939D01*
X420278D01*
Y1343356D01*
X418612D01*
Y1343772D01*
X417779D01*
Y1344189D01*
X416945D01*
Y1344606D01*
X416112D01*
Y1345022D01*
X415279D01*
Y1345439D01*
X414863D01*
Y1345855D01*
X414446D01*
Y1346272D01*
X414030D01*
Y1346688D01*
X413613D01*
Y1347521D01*
X413197D01*
Y1347938D01*
X412780D01*
Y1348771D01*
X412364D01*
Y1349604D01*
X411947D01*
Y1350854D01*
X411530D01*
Y1352520D01*
X411114D01*
Y1396674D01*
X411530D01*
Y1398341D01*
X411947D01*
Y1399590D01*
X412364D01*
Y1400423D01*
X412780D01*
Y1401257D01*
X413197D01*
Y1401673D01*
X413613D01*
Y1402506D01*
X414030D01*
Y1402923D01*
X414446D01*
Y1403339D01*
X414863D01*
Y1403756D01*
X415696D01*
Y1404172D01*
X416112D01*
Y1404589D01*
X416945D01*
Y1405005D01*
X417779D01*
Y1405422D01*
X418612D01*
Y1405839D01*
X420278D01*
Y1406255D01*
X423194D01*
Y1406672D01*
X447354D01*
Y1405839D01*
X447770D01*
Y1405422D01*
X447354D01*
Y1405005D01*
X447770D01*
Y1404589D01*
X447354D01*
Y1402923D01*
X447770D01*
Y1402506D01*
X447354D01*
Y1401673D01*
X428609D01*
X428192D01*
D02*
G37*
G36*
X464016Y1347521D02*
X486926D01*
Y1347105D01*
X487343D01*
Y1342523D01*
X455685D01*
Y1342939D01*
X455268D01*
Y1347105D01*
X455685D01*
Y1347521D01*
X463599D01*
X464016D01*
D02*
G37*
G36*
X524416Y1406255D02*
X527332D01*
Y1405839D01*
X528582D01*
Y1405422D01*
X529831D01*
Y1405005D01*
X530664D01*
Y1404589D01*
X531081D01*
Y1404172D01*
X531914D01*
Y1403756D01*
X532331D01*
Y1403339D01*
X532747D01*
Y1402923D01*
X533164D01*
Y1402506D01*
X533580D01*
Y1402090D01*
X533997D01*
Y1401257D01*
X534413D01*
Y1400840D01*
X534830D01*
Y1400007D01*
X535246D01*
Y1398757D01*
X535663D01*
Y1397091D01*
X536079D01*
Y1393342D01*
X536496D01*
Y1355852D01*
X536079D01*
Y1352103D01*
X535663D01*
Y1350437D01*
X535246D01*
Y1349187D01*
X534830D01*
Y1348354D01*
X534413D01*
Y1347938D01*
X533997D01*
Y1347105D01*
X533580D01*
Y1346688D01*
X533164D01*
Y1346272D01*
X532747D01*
Y1345855D01*
X532331D01*
Y1345439D01*
X531914D01*
Y1345022D01*
X531497D01*
Y1344606D01*
X530664D01*
Y1344189D01*
X529831D01*
Y1343772D01*
X528582D01*
Y1343356D01*
X527332D01*
Y1342939D01*
X524416D01*
Y1342523D01*
X495674D01*
Y1342939D01*
X495257D01*
Y1344606D01*
Y1345022D01*
Y1406255D01*
X495674D01*
Y1406672D01*
X524416D01*
Y1406255D01*
D02*
G37*
G36*
X545244Y1367099D02*
Y1406255D01*
X545660D01*
Y1406672D01*
X549826D01*
Y1342523D01*
X545660D01*
Y1342939D01*
X545244D01*
Y1366683D01*
Y1367099D01*
D02*
G37*
G36*
X608976Y1372514D02*
Y1399174D01*
X609393D01*
Y1400423D01*
X608560D01*
Y1399174D01*
X608143D01*
Y1397924D01*
X607727D01*
Y1396674D01*
X607310D01*
Y1395425D01*
X606893D01*
Y1394175D01*
X606477D01*
Y1392926D01*
X606060D01*
Y1391676D01*
X605644D01*
Y1390426D01*
X605227D01*
Y1388760D01*
X604811D01*
Y1387510D01*
X604394D01*
Y1386261D01*
X603978D01*
Y1385011D01*
X603561D01*
Y1383761D01*
X603144D01*
Y1382512D01*
X602728D01*
Y1381262D01*
X602311D01*
Y1380012D01*
X601895D01*
Y1378763D01*
X601478D01*
Y1377513D01*
X601062D01*
Y1376263D01*
X600645D01*
Y1375014D01*
X600229D01*
Y1373348D01*
X599812D01*
Y1372098D01*
X599395D01*
Y1370848D01*
X598979D01*
Y1369599D01*
X598562D01*
Y1368349D01*
X598146D01*
Y1367099D01*
X597729D01*
Y1365850D01*
X597313D01*
Y1364600D01*
X596896D01*
Y1363350D01*
X596480D01*
Y1361684D01*
X596063D01*
Y1360434D01*
X595647D01*
Y1359185D01*
X595230D01*
Y1357935D01*
X594813D01*
Y1356685D01*
X594397D01*
Y1355436D01*
X593980D01*
Y1354186D01*
X593564D01*
Y1352937D01*
X593147D01*
Y1351270D01*
X592731D01*
Y1350021D01*
X592314D01*
Y1348771D01*
X591898D01*
Y1347521D01*
X591481D01*
Y1346272D01*
X591064D01*
Y1345022D01*
X590648D01*
Y1343772D01*
X590231D01*
Y1342939D01*
X589815D01*
Y1342523D01*
X583150D01*
Y1342939D01*
X582733D01*
Y1343356D01*
X582317D01*
Y1344606D01*
X581900D01*
Y1345855D01*
X581484D01*
Y1347105D01*
X581067D01*
Y1348354D01*
X580651D01*
Y1349604D01*
X580234D01*
Y1350854D01*
X579818D01*
Y1352103D01*
X579401D01*
Y1353353D01*
X578984D01*
Y1354603D01*
X578568D01*
Y1356269D01*
X578151D01*
Y1357519D01*
X577735D01*
Y1358768D01*
X577318D01*
Y1360018D01*
X576902D01*
Y1361268D01*
X576485D01*
Y1362517D01*
X576068D01*
Y1363767D01*
X575652D01*
Y1365016D01*
X575235D01*
Y1366266D01*
X574819D01*
Y1367932D01*
X574402D01*
Y1369182D01*
X573986D01*
Y1370432D01*
X573569D01*
Y1371681D01*
X573153D01*
Y1372931D01*
X572736D01*
Y1374181D01*
X572319D01*
Y1375430D01*
X571903D01*
Y1376680D01*
X571486D01*
Y1378346D01*
X571070D01*
Y1379596D01*
X570653D01*
Y1380845D01*
X570237D01*
Y1382095D01*
X569820D01*
Y1383345D01*
X569404D01*
Y1384595D01*
X568987D01*
Y1385844D01*
X568571D01*
Y1387094D01*
X568154D01*
Y1388344D01*
X567737D01*
Y1389593D01*
X567321D01*
Y1391259D01*
X566904D01*
Y1392509D01*
X566488D01*
Y1393759D01*
X566071D01*
Y1395008D01*
X565655D01*
Y1396258D01*
X565238D01*
Y1397508D01*
X564822D01*
Y1398757D01*
X564405D01*
Y1400007D01*
X563988D01*
Y1400423D01*
X563572D01*
Y1342939D01*
X563155D01*
Y1342523D01*
X559406D01*
Y1342939D01*
X558990D01*
Y1406255D01*
X559406D01*
Y1406672D01*
X566488D01*
Y1406255D01*
X566904D01*
Y1405839D01*
X567321D01*
Y1404589D01*
X567737D01*
Y1403339D01*
X568154D01*
Y1402090D01*
X568571D01*
Y1400840D01*
X568987D01*
Y1399590D01*
X569404D01*
Y1398341D01*
X569820D01*
Y1397091D01*
X570237D01*
Y1395841D01*
X570653D01*
Y1394592D01*
X571070D01*
Y1393342D01*
X571486D01*
Y1392092D01*
X571903D01*
Y1390843D01*
X572319D01*
Y1389593D01*
X572736D01*
Y1387927D01*
X573153D01*
Y1386677D01*
X573569D01*
Y1385428D01*
X573986D01*
Y1384178D01*
X574402D01*
Y1382928D01*
X574819D01*
Y1381679D01*
X575235D01*
Y1380429D01*
X575652D01*
Y1379179D01*
X576068D01*
Y1377930D01*
X576485D01*
Y1376680D01*
X576902D01*
Y1375430D01*
X577318D01*
Y1374181D01*
X577735D01*
Y1372931D01*
X578151D01*
Y1371681D01*
X578568D01*
Y1370432D01*
X578984D01*
Y1369182D01*
X579401D01*
Y1367932D01*
X579818D01*
Y1366683D01*
X580234D01*
Y1365433D01*
X580651D01*
Y1364183D01*
X581067D01*
Y1362934D01*
X581484D01*
Y1361684D01*
X581900D01*
Y1360434D01*
X582317D01*
Y1359185D01*
X582733D01*
Y1357935D01*
X583150D01*
Y1356685D01*
X583566D01*
Y1355436D01*
X583983D01*
Y1354186D01*
X584399D01*
Y1352937D01*
X584816D01*
Y1351687D01*
X585233D01*
Y1350437D01*
X585649D01*
Y1349187D01*
X586066D01*
Y1347938D01*
X586482D01*
Y1348354D01*
X586899D01*
Y1349604D01*
X587315D01*
Y1350854D01*
X587732D01*
Y1352103D01*
X588148D01*
Y1353353D01*
X588565D01*
Y1354603D01*
X588982D01*
Y1355852D01*
X589398D01*
Y1357102D01*
X589815D01*
Y1358352D01*
X590231D01*
Y1359601D01*
X590648D01*
Y1360851D01*
X591064D01*
Y1362101D01*
X591481D01*
Y1363350D01*
X591898D01*
Y1364600D01*
X592314D01*
Y1365850D01*
X592731D01*
Y1367099D01*
X593147D01*
Y1368349D01*
X593564D01*
Y1369599D01*
X593980D01*
Y1370848D01*
X594397D01*
Y1372098D01*
X594813D01*
Y1373348D01*
X595230D01*
Y1374597D01*
X595647D01*
Y1375847D01*
X596063D01*
Y1377097D01*
X596480D01*
Y1378346D01*
X596896D01*
Y1380012D01*
X597313D01*
Y1381262D01*
X597729D01*
Y1382512D01*
X598146D01*
Y1383761D01*
X598562D01*
Y1385011D01*
X598979D01*
Y1386261D01*
X599395D01*
Y1387510D01*
X599812D01*
Y1388760D01*
X600229D01*
Y1390010D01*
X600645D01*
Y1391259D01*
X601062D01*
Y1392509D01*
X601478D01*
Y1393759D01*
X601895D01*
Y1395008D01*
X602311D01*
Y1396258D01*
X602728D01*
Y1397508D01*
X603144D01*
Y1398757D01*
X603561D01*
Y1400007D01*
X603978D01*
Y1401257D01*
X604394D01*
Y1402506D01*
X604811D01*
Y1403756D01*
X605227D01*
Y1405005D01*
X605644D01*
Y1406255D01*
X606060D01*
Y1406672D01*
X613558D01*
Y1406255D01*
X613975D01*
Y1342939D01*
X613558D01*
Y1342523D01*
X609393D01*
Y1342939D01*
X608976D01*
Y1372098D01*
Y1372514D01*
D02*
G37*
G36*
X661878Y1367099D02*
X661462D01*
Y1365850D01*
X661045D01*
Y1364183D01*
X660629D01*
Y1362934D01*
X660212D01*
Y1361684D01*
X659796D01*
Y1360434D01*
X659379D01*
Y1359185D01*
X658962D01*
Y1357935D01*
X658546D01*
Y1356685D01*
X658129D01*
Y1355436D01*
X657713D01*
Y1354186D01*
X657296D01*
Y1352520D01*
X656880D01*
Y1351270D01*
X656463D01*
Y1350021D01*
X656047D01*
Y1348771D01*
X655630D01*
Y1347521D01*
X655213D01*
Y1346272D01*
X654797D01*
Y1345022D01*
X654380D01*
Y1343772D01*
X653964D01*
Y1342939D01*
X653547D01*
Y1342523D01*
X646882D01*
Y1342939D01*
X646466D01*
Y1343356D01*
X646049D01*
Y1344606D01*
X645633D01*
Y1345855D01*
X645216D01*
Y1347105D01*
X644800D01*
Y1348354D01*
X644383D01*
Y1349604D01*
X643967D01*
Y1350854D01*
X643550D01*
Y1352103D01*
X643133D01*
Y1353770D01*
X642717D01*
Y1355019D01*
X642300D01*
Y1356269D01*
X641884D01*
Y1357519D01*
X641467D01*
Y1358768D01*
X641051D01*
Y1360018D01*
X640634D01*
Y1361268D01*
X640218D01*
Y1362517D01*
X639801D01*
Y1363767D01*
X639384D01*
Y1365433D01*
X638968D01*
Y1366683D01*
X638551D01*
Y1367932D01*
X638135D01*
Y1369182D01*
X637718D01*
Y1370432D01*
X637302D01*
Y1371681D01*
X636885D01*
Y1372931D01*
X636469D01*
Y1374181D01*
X636052D01*
Y1375847D01*
X635635D01*
Y1377097D01*
X635219D01*
Y1378346D01*
X634802D01*
Y1379596D01*
X634386D01*
Y1380845D01*
X633969D01*
Y1382095D01*
X633553D01*
Y1383345D01*
X633136D01*
Y1384595D01*
X632720D01*
Y1385844D01*
X632303D01*
Y1387094D01*
X631886D01*
Y1388760D01*
X631470D01*
Y1390010D01*
X631053D01*
Y1391259D01*
X630637D01*
Y1392509D01*
X630220D01*
Y1393759D01*
X629804D01*
Y1395008D01*
X629387D01*
Y1396258D01*
X628971D01*
Y1397508D01*
X628554D01*
Y1398757D01*
X628138D01*
Y1400007D01*
X627721D01*
Y1400423D01*
X627304D01*
Y1342939D01*
X626888D01*
Y1342523D01*
X623139D01*
Y1342939D01*
X622722D01*
Y1406255D01*
X623139D01*
Y1406672D01*
X630220D01*
Y1406255D01*
X630637D01*
Y1405839D01*
X631053D01*
Y1404589D01*
X631470D01*
Y1403339D01*
X631886D01*
Y1402090D01*
X632303D01*
Y1400840D01*
X632720D01*
Y1399590D01*
X633136D01*
Y1398341D01*
X633553D01*
Y1397091D01*
X633969D01*
Y1395841D01*
X634386D01*
Y1394592D01*
X634802D01*
Y1393342D01*
X635219D01*
Y1392092D01*
X635635D01*
Y1390843D01*
X636052D01*
Y1389593D01*
X636469D01*
Y1388344D01*
X636885D01*
Y1387094D01*
X637302D01*
Y1385844D01*
X637718D01*
Y1384178D01*
X638135D01*
Y1382928D01*
X638551D01*
Y1381679D01*
X638968D01*
Y1380429D01*
X639384D01*
Y1379179D01*
X639801D01*
Y1377930D01*
X640218D01*
Y1376680D01*
X640634D01*
Y1375430D01*
X641051D01*
Y1374181D01*
X641467D01*
Y1372931D01*
X641884D01*
Y1371681D01*
X642300D01*
Y1370432D01*
X642717D01*
Y1369182D01*
X643133D01*
Y1367932D01*
X643550D01*
Y1366683D01*
X643967D01*
Y1365433D01*
X644383D01*
Y1364183D01*
X644800D01*
Y1362934D01*
X645216D01*
Y1361684D01*
X645633D01*
Y1360434D01*
X646049D01*
Y1359185D01*
X646466D01*
Y1357935D01*
X646882D01*
Y1356685D01*
X647299D01*
Y1355436D01*
X647716D01*
Y1354186D01*
X648132D01*
Y1352937D01*
X648549D01*
Y1351687D01*
X648965D01*
Y1350437D01*
X649382D01*
Y1349187D01*
X649798D01*
Y1347938D01*
X650631D01*
Y1349187D01*
X651048D01*
Y1350854D01*
X651464D01*
Y1351687D01*
X651881D01*
Y1352937D01*
X652298D01*
Y1354603D01*
X652714D01*
Y1355852D01*
X653131D01*
Y1357102D01*
X653547D01*
Y1358352D01*
X653964D01*
Y1359601D01*
X654380D01*
Y1360851D01*
X654797D01*
Y1362101D01*
X655213D01*
Y1363350D01*
X655630D01*
Y1364600D01*
X656047D01*
Y1365850D01*
X656463D01*
Y1367099D01*
X656880D01*
Y1368349D01*
X657296D01*
Y1369599D01*
X657713D01*
Y1370848D01*
X658129D01*
Y1372098D01*
X658546D01*
Y1373348D01*
X658962D01*
Y1374597D01*
X659379D01*
Y1375847D01*
X659796D01*
Y1377097D01*
X660212D01*
Y1378346D01*
X660629D01*
Y1379596D01*
X661045D01*
Y1380845D01*
X661462D01*
Y1382095D01*
X661878D01*
Y1383345D01*
X662295D01*
Y1384595D01*
X662711D01*
Y1385844D01*
X663128D01*
Y1387510D01*
X663544D01*
Y1388760D01*
X663961D01*
Y1390010D01*
X664378D01*
Y1391259D01*
X664794D01*
Y1392509D01*
X665211D01*
Y1393759D01*
X665627D01*
Y1395008D01*
X666044D01*
Y1396258D01*
X666460D01*
Y1397508D01*
X666877D01*
Y1398757D01*
X667293D01*
Y1400007D01*
X667710D01*
Y1401257D01*
X668127D01*
Y1402506D01*
X668543D01*
Y1403756D01*
X668960D01*
Y1405005D01*
X669376D01*
Y1406255D01*
X669793D01*
Y1406672D01*
X677291D01*
Y1406255D01*
X677707D01*
Y1342939D01*
X677291D01*
Y1342523D01*
X673125D01*
Y1342939D01*
X672709D01*
Y1400007D01*
X672292D01*
Y1399174D01*
X671876D01*
Y1397924D01*
X671459D01*
Y1396674D01*
X671042D01*
Y1395425D01*
X670626D01*
Y1394175D01*
X670209D01*
Y1392509D01*
X669793D01*
Y1391259D01*
X669376D01*
Y1390010D01*
X668960D01*
Y1388760D01*
X668543D01*
Y1387510D01*
X668127D01*
Y1386261D01*
X667710D01*
Y1385011D01*
X667293D01*
Y1383761D01*
X666877D01*
Y1382512D01*
X666460D01*
Y1381262D01*
X666044D01*
Y1380012D01*
X665627D01*
Y1378763D01*
X665211D01*
Y1377513D01*
X664794D01*
Y1376263D01*
X664378D01*
Y1374597D01*
X663961D01*
Y1373348D01*
X663544D01*
Y1372098D01*
X663128D01*
Y1370848D01*
X662711D01*
Y1369599D01*
X662295D01*
Y1368349D01*
X661878D01*
Y1367516D01*
Y1367099D01*
D02*
G37*
G36*
X711448Y1376680D02*
X722278D01*
Y1377097D01*
X722695D01*
Y1376680D01*
X723111D01*
Y1372514D01*
X691453D01*
Y1372098D01*
X691037D01*
Y1347521D01*
X722695D01*
Y1347105D01*
X723111D01*
Y1342523D01*
X686871D01*
Y1342939D01*
X686455D01*
Y1406255D01*
X686871D01*
Y1406672D01*
X723111D01*
Y1401673D01*
X691037D01*
Y1377097D01*
X691453D01*
Y1376680D01*
X711031D01*
X711448D01*
D02*
G37*
G36*
X761434Y1406255D02*
X763934D01*
Y1405839D01*
X765600D01*
Y1405422D01*
X766433D01*
Y1405005D01*
X767266D01*
Y1404589D01*
X768099D01*
Y1404172D01*
X768516D01*
Y1403756D01*
X769349D01*
Y1403339D01*
X769765D01*
Y1402923D01*
X770182D01*
Y1402506D01*
X770598D01*
Y1401673D01*
X771015D01*
Y1401257D01*
X771432D01*
Y1400423D01*
X771848D01*
Y1399590D01*
X772265D01*
Y1398341D01*
X772681D01*
Y1396258D01*
X773098D01*
Y1382512D01*
X772681D01*
Y1380429D01*
X772265D01*
Y1379179D01*
X771848D01*
Y1378346D01*
X771432D01*
Y1377513D01*
X771015D01*
Y1377097D01*
X770598D01*
Y1376263D01*
X770182D01*
Y1375847D01*
X769765D01*
Y1375430D01*
X769349D01*
Y1375014D01*
X768932D01*
Y1374597D01*
X768099D01*
Y1374181D01*
X767266D01*
Y1373764D01*
X766433D01*
Y1373348D01*
X765600D01*
Y1372931D01*
X763934D01*
Y1372514D01*
X762684D01*
Y1371681D01*
X763101D01*
Y1370432D01*
X763517D01*
Y1369182D01*
X763934D01*
Y1367932D01*
X764350D01*
Y1366683D01*
X764767D01*
Y1365433D01*
X765183D01*
Y1364600D01*
X765600D01*
Y1363350D01*
X766016D01*
Y1362101D01*
X766433D01*
Y1360851D01*
X766849D01*
Y1359601D01*
X767266D01*
Y1358768D01*
X767682D01*
Y1357519D01*
X768099D01*
Y1356269D01*
X768516D01*
Y1355019D01*
X768932D01*
Y1353770D01*
X769349D01*
Y1352937D01*
X769765D01*
Y1351687D01*
X770182D01*
Y1350437D01*
X770598D01*
Y1349187D01*
X771015D01*
Y1347938D01*
X771432D01*
Y1347105D01*
X771848D01*
Y1345855D01*
X772265D01*
Y1344606D01*
X772681D01*
Y1343356D01*
X773098D01*
Y1342939D01*
X772681D01*
Y1342523D01*
X768932D01*
Y1342939D01*
X768516D01*
Y1343356D01*
X768099D01*
Y1344606D01*
X767682D01*
Y1345439D01*
X767266D01*
Y1346688D01*
X766849D01*
Y1347938D01*
X766433D01*
Y1349187D01*
X766016D01*
Y1350437D01*
X765600D01*
Y1351270D01*
X765183D01*
Y1352520D01*
X764767D01*
Y1353770D01*
X764350D01*
Y1355019D01*
X763934D01*
Y1356269D01*
X763517D01*
Y1357519D01*
X763101D01*
Y1358352D01*
X762684D01*
Y1359601D01*
X762267D01*
Y1360851D01*
X761851D01*
Y1362101D01*
X761434D01*
Y1363350D01*
X761018D01*
Y1364600D01*
X760601D01*
Y1365433D01*
X760185D01*
Y1366683D01*
X759768D01*
Y1367932D01*
X759352D01*
Y1369182D01*
X758935D01*
Y1370432D01*
X758518D01*
Y1371265D01*
X758102D01*
Y1372098D01*
X757685D01*
Y1372514D01*
X738107D01*
Y1372098D01*
X737691D01*
Y1372514D01*
X736858D01*
Y1342939D01*
X736441D01*
Y1342523D01*
X732276D01*
Y1406672D01*
X761434D01*
Y1406255D01*
D02*
G37*
%LPC*%
G36*
X391536Y1401673D02*
X365710D01*
Y1377097D01*
X366126D01*
Y1376680D01*
X366543D01*
Y1377097D01*
X366959D01*
Y1376680D01*
X388620D01*
Y1377097D01*
X391952D01*
Y1377513D01*
X392785D01*
Y1377930D01*
X393619D01*
Y1378346D01*
X394452D01*
Y1378763D01*
X394868D01*
Y1379179D01*
X395285D01*
Y1379596D01*
X395701D01*
Y1380012D01*
X396118D01*
Y1380845D01*
X396535D01*
Y1381679D01*
X396951D01*
Y1383345D01*
X397368D01*
Y1395425D01*
X396951D01*
Y1397091D01*
X396535D01*
Y1397924D01*
X396118D01*
Y1398757D01*
X395701D01*
Y1399174D01*
X395285D01*
Y1399590D01*
X394868D01*
Y1400007D01*
X394452D01*
Y1400423D01*
X393619D01*
Y1400840D01*
X392785D01*
Y1401257D01*
X391536D01*
Y1401673D01*
D02*
G37*
G36*
X345715Y1423334D02*
X251158D01*
Y1422917D01*
X250325D01*
Y1422084D01*
X249908D01*
Y1421251D01*
X249492D01*
Y1327943D01*
X249908D01*
Y1326694D01*
X250325D01*
Y1326277D01*
X251158D01*
Y1325861D01*
X345715D01*
Y1326277D01*
X346548D01*
Y1326694D01*
X346965D01*
Y1327527D01*
X347381D01*
Y1421668D01*
X346965D01*
Y1422501D01*
X346548D01*
Y1422917D01*
X345715D01*
Y1423334D01*
D02*
G37*
%LPD*%
G36*
X316556Y1420835D02*
X316140D01*
Y1409588D01*
X315723D01*
Y1407505D01*
Y1407088D01*
Y1398341D01*
X315307D01*
Y1390010D01*
X314474D01*
Y1390426D01*
X313224D01*
Y1390843D01*
X311974D01*
Y1391259D01*
X309892D01*
Y1390843D01*
X308642D01*
Y1390426D01*
X308225D01*
Y1390010D01*
X307809D01*
Y1389593D01*
X307392D01*
Y1388760D01*
X306976D01*
Y1387927D01*
X306559D01*
Y1387510D01*
X306143D01*
Y1386677D01*
X305310D01*
Y1388760D01*
X304893D01*
Y1391259D01*
X304476D01*
Y1393759D01*
X304060D01*
Y1396258D01*
X303643D01*
Y1398341D01*
X303227D01*
Y1400840D01*
X302810D01*
Y1403339D01*
X302394D01*
Y1405839D01*
X301977D01*
Y1408338D01*
X301561D01*
Y1410421D01*
X301144D01*
Y1412920D01*
X300728D01*
Y1415419D01*
X300311D01*
Y1417919D01*
X299894D01*
Y1420418D01*
X299478D01*
Y1421668D01*
X316556D01*
Y1420835D01*
D02*
G37*
G36*
X345299Y1421251D02*
X345715D01*
Y1409588D01*
X345299D01*
Y1408754D01*
X344882D01*
Y1407921D01*
X344465D01*
Y1407088D01*
X344049D01*
Y1406255D01*
X343632D01*
Y1405422D01*
X343216D01*
Y1404589D01*
X342799D01*
Y1403339D01*
X342383D01*
Y1402506D01*
X341966D01*
Y1401673D01*
X341550D01*
Y1400840D01*
X341133D01*
Y1400007D01*
X340717D01*
Y1399174D01*
X340300D01*
Y1398341D01*
X339883D01*
Y1397091D01*
X339467D01*
Y1396258D01*
X339050D01*
Y1395425D01*
X338634D01*
Y1394592D01*
X338217D01*
Y1393759D01*
X337801D01*
Y1392926D01*
X337384D01*
Y1392092D01*
X336968D01*
Y1391259D01*
X336551D01*
Y1390010D01*
X336134D01*
Y1389176D01*
X335718D01*
Y1388344D01*
X335301D01*
Y1387510D01*
X334885D01*
Y1386677D01*
X334468D01*
Y1385844D01*
X334052D01*
Y1385011D01*
X333635D01*
Y1384178D01*
X333218D01*
Y1383345D01*
X332385D01*
Y1383761D01*
X331552D01*
Y1384178D01*
X330303D01*
Y1384595D01*
X329470D01*
Y1385011D01*
X328220D01*
Y1385428D01*
X326970D01*
Y1385844D01*
X326137D01*
Y1386261D01*
X324888D01*
Y1386677D01*
X324054D01*
Y1388760D01*
X324471D01*
Y1390426D01*
X324888D01*
Y1392092D01*
X325304D01*
Y1392926D01*
Y1393342D01*
Y1394175D01*
X325721D01*
Y1395841D01*
X326137D01*
Y1397508D01*
X326554D01*
Y1399590D01*
X326970D01*
Y1401257D01*
X327387D01*
Y1402923D01*
X327803D01*
Y1405005D01*
X328220D01*
Y1406672D01*
X328637D01*
Y1408338D01*
X329053D01*
Y1410421D01*
X329470D01*
Y1412087D01*
X329886D01*
Y1413753D01*
X330303D01*
Y1415419D01*
X330719D01*
Y1417502D01*
X331136D01*
Y1419168D01*
X331552D01*
Y1420835D01*
X331969D01*
Y1421668D01*
X345299D01*
Y1421251D01*
D02*
G37*
G36*
X284065Y1420418D02*
X284482D01*
Y1419168D01*
X284898D01*
Y1417919D01*
X285315D01*
Y1416669D01*
X285732D01*
Y1415836D01*
X286148D01*
Y1414586D01*
X286565D01*
Y1413337D01*
X286981D01*
Y1412087D01*
X287398D01*
Y1411254D01*
X287814D01*
Y1410837D01*
Y1410421D01*
Y1410004D01*
X288231D01*
Y1408754D01*
X288647D01*
Y1407505D01*
X289064D01*
Y1406672D01*
X289480D01*
Y1405422D01*
X289897D01*
Y1404172D01*
X290314D01*
Y1403339D01*
X290730D01*
Y1402090D01*
X291147D01*
Y1400840D01*
X291563D01*
Y1399590D01*
X291980D01*
Y1398757D01*
X292396D01*
Y1397508D01*
X292813D01*
Y1396258D01*
X293230D01*
Y1395008D01*
X293646D01*
Y1394175D01*
X294063D01*
Y1392926D01*
X294479D01*
Y1391676D01*
X294896D01*
Y1390426D01*
X295312D01*
Y1389176D01*
X295729D01*
Y1388344D01*
X296145D01*
Y1387094D01*
X296562D01*
Y1385844D01*
X296978D01*
Y1384595D01*
X297395D01*
Y1383761D01*
X297812D01*
Y1382512D01*
X298228D01*
Y1381262D01*
X298645D01*
Y1380012D01*
X299061D01*
Y1378346D01*
X298645D01*
Y1377930D01*
X297812D01*
Y1377513D01*
X297395D01*
Y1377097D01*
X296978D01*
Y1376680D01*
X296145D01*
Y1376263D01*
X295729D01*
Y1375847D01*
X294896D01*
Y1375430D01*
X294479D01*
Y1375014D01*
X293646D01*
Y1374597D01*
X291980D01*
Y1375430D01*
X291563D01*
Y1375847D01*
X291147D01*
Y1376680D01*
X290730D01*
Y1377097D01*
X290314D01*
Y1377930D01*
X289897D01*
Y1378763D01*
X289480D01*
Y1379179D01*
X289064D01*
Y1380012D01*
X288647D01*
Y1380845D01*
X288231D01*
Y1381262D01*
X287814D01*
Y1382095D01*
X287398D01*
Y1382512D01*
X286981D01*
Y1383345D01*
X286565D01*
Y1384178D01*
X286148D01*
Y1384595D01*
X285732D01*
Y1385428D01*
X285315D01*
Y1386261D01*
X284898D01*
Y1386677D01*
X284482D01*
Y1387510D01*
X284065D01*
Y1387927D01*
X283649D01*
Y1388760D01*
X283232D01*
Y1389593D01*
X282816D01*
Y1390010D01*
X282399D01*
Y1390843D01*
X281983D01*
Y1391259D01*
X281566D01*
Y1392092D01*
X281150D01*
Y1392926D01*
X280733D01*
Y1393342D01*
X280316D01*
Y1394175D01*
X279900D01*
Y1395008D01*
X279483D01*
Y1395425D01*
X279067D01*
Y1396258D01*
X278650D01*
Y1396674D01*
X278234D01*
Y1397508D01*
X277817D01*
Y1398341D01*
X277400D01*
Y1398757D01*
X276984D01*
Y1399590D01*
X276567D01*
Y1400423D01*
X276151D01*
Y1400840D01*
X275734D01*
Y1401673D01*
X275318D01*
Y1402090D01*
X274901D01*
Y1402923D01*
X274485D01*
Y1403756D01*
X274068D01*
Y1404172D01*
X273652D01*
Y1405005D01*
X273235D01*
Y1405422D01*
X272819D01*
Y1406255D01*
X272402D01*
Y1407088D01*
X271985D01*
Y1407505D01*
X271569D01*
Y1408338D01*
X271152D01*
Y1408754D01*
X270736D01*
Y1409588D01*
X270319D01*
Y1410421D01*
X269903D01*
Y1410837D01*
X269486D01*
Y1411670D01*
X269069D01*
Y1412504D01*
X268653D01*
Y1412920D01*
X268236D01*
Y1413753D01*
X267820D01*
Y1414170D01*
X267403D01*
Y1415003D01*
X266987D01*
Y1415836D01*
X266570D01*
Y1416252D01*
X266154D01*
Y1417086D01*
X265737D01*
Y1417502D01*
X265320D01*
Y1418335D01*
X264904D01*
Y1419168D01*
X264487D01*
Y1419585D01*
X264071D01*
Y1420418D01*
X263654D01*
Y1421251D01*
X263238D01*
Y1421668D01*
X284065D01*
Y1420418D01*
D02*
G37*
G36*
X251991Y1406672D02*
X252407D01*
Y1406255D01*
X252824D01*
Y1405839D01*
X253241D01*
Y1405422D01*
X253657D01*
Y1405005D01*
X254074D01*
Y1404589D01*
X254490D01*
Y1404172D01*
X254907D01*
Y1403339D01*
X255323D01*
Y1402923D01*
X255740D01*
Y1402506D01*
X256156D01*
Y1402090D01*
X256573D01*
Y1401673D01*
X256989D01*
Y1401257D01*
X257406D01*
Y1400840D01*
X257823D01*
Y1400423D01*
X258239D01*
Y1400007D01*
X258656D01*
Y1399590D01*
X259072D01*
Y1399174D01*
X259489D01*
Y1398757D01*
X259905D01*
Y1397924D01*
X260322D01*
Y1397508D01*
X260738D01*
Y1397091D01*
X261155D01*
Y1396674D01*
X261572D01*
Y1396258D01*
X261988D01*
Y1395841D01*
X262405D01*
Y1395425D01*
X262821D01*
Y1395008D01*
X263238D01*
Y1394592D01*
X263654D01*
Y1394175D01*
X264071D01*
Y1393759D01*
X264487D01*
Y1393342D01*
X264904D01*
Y1392926D01*
X265320D01*
Y1392092D01*
X265737D01*
Y1391676D01*
X266154D01*
Y1391259D01*
X266570D01*
Y1390843D01*
X266987D01*
Y1390426D01*
X267403D01*
Y1390010D01*
X267820D01*
Y1389593D01*
X268236D01*
Y1389176D01*
X268653D01*
Y1388760D01*
X269069D01*
Y1388344D01*
X269486D01*
Y1387927D01*
X269903D01*
Y1387510D01*
X270319D01*
Y1387094D01*
X270736D01*
Y1386677D01*
X271152D01*
Y1385844D01*
X271569D01*
Y1385428D01*
X271985D01*
Y1385011D01*
X272402D01*
Y1384595D01*
X272819D01*
Y1384178D01*
X273235D01*
Y1383761D01*
X273652D01*
Y1383345D01*
X274068D01*
Y1382928D01*
X274485D01*
Y1382512D01*
X274901D01*
Y1382095D01*
X275318D01*
Y1381679D01*
X275734D01*
Y1381262D01*
X276151D01*
Y1380429D01*
X276567D01*
Y1380012D01*
X276984D01*
Y1379596D01*
X277400D01*
Y1379179D01*
X277817D01*
Y1378763D01*
X278234D01*
Y1378346D01*
X278650D01*
Y1377930D01*
X279067D01*
Y1377513D01*
X279483D01*
Y1377097D01*
X279900D01*
Y1376680D01*
X280316D01*
Y1376263D01*
X280733D01*
Y1375847D01*
X281150D01*
Y1375430D01*
X281566D01*
Y1374597D01*
X281983D01*
Y1374181D01*
X282399D01*
Y1373764D01*
X282816D01*
Y1373348D01*
X283232D01*
Y1372931D01*
X283649D01*
Y1372514D01*
X284065D01*
Y1372098D01*
X279067D01*
Y1372514D01*
X277400D01*
Y1372931D01*
X276567D01*
Y1373348D01*
X275734D01*
Y1373764D01*
X274485D01*
Y1374181D01*
X272402D01*
Y1373764D01*
X271569D01*
Y1373348D01*
X271152D01*
Y1372931D01*
X270736D01*
Y1372514D01*
X270319D01*
Y1372098D01*
X269903D01*
Y1371681D01*
X269069D01*
Y1372098D01*
X268653D01*
Y1372514D01*
X267820D01*
Y1372931D01*
X267403D01*
Y1373348D01*
X266570D01*
Y1373764D01*
X266154D01*
Y1374181D01*
X265320D01*
Y1374597D01*
X264904D01*
Y1375014D01*
X264487D01*
Y1375430D01*
X263654D01*
Y1375847D01*
X263238D01*
Y1376263D01*
X262405D01*
Y1376680D01*
X261988D01*
Y1377097D01*
X261155D01*
Y1377513D01*
X260738D01*
Y1377930D01*
X260322D01*
Y1378346D01*
X259489D01*
Y1378763D01*
X259072D01*
Y1379179D01*
X258239D01*
Y1379596D01*
X257823D01*
Y1380012D01*
X256989D01*
Y1380429D01*
X256573D01*
Y1380845D01*
X256156D01*
Y1381262D01*
X255323D01*
Y1381679D01*
X254907D01*
Y1382095D01*
X254074D01*
Y1382512D01*
X253657D01*
Y1382928D01*
X253241D01*
Y1383345D01*
X252407D01*
Y1383761D01*
X251991D01*
Y1384178D01*
X251574D01*
Y1384595D01*
X251158D01*
Y1407088D01*
X251991D01*
Y1406672D01*
D02*
G37*
G36*
X312391Y1388760D02*
X313641D01*
Y1388344D01*
X314890D01*
Y1387927D01*
X316140D01*
Y1387510D01*
X316973D01*
Y1387094D01*
X318223D01*
Y1386677D01*
X319472D01*
Y1386261D01*
X320722D01*
Y1385844D01*
X321555D01*
Y1385428D01*
X322805D01*
Y1385011D01*
X324054D01*
Y1384595D01*
X324888D01*
Y1384178D01*
X326137D01*
Y1383761D01*
X327387D01*
Y1383345D01*
X328220D01*
Y1382928D01*
X329470D01*
Y1382512D01*
X330719D01*
Y1382095D01*
X331552D01*
Y1381679D01*
X332802D01*
Y1381262D01*
X333635D01*
Y1380845D01*
X334885D01*
Y1380429D01*
X335718D01*
Y1380012D01*
X336551D01*
Y1379596D01*
X336968D01*
Y1379179D01*
X337384D01*
Y1378763D01*
X337801D01*
Y1378346D01*
X338217D01*
Y1377930D01*
X338634D01*
Y1377097D01*
X339050D01*
Y1376680D01*
X339467D01*
Y1375430D01*
X339883D01*
Y1374181D01*
X340717D01*
Y1374597D01*
X341550D01*
Y1375014D01*
X342383D01*
Y1375430D01*
X343216D01*
Y1375847D01*
X343632D01*
Y1376263D01*
X344465D01*
Y1376680D01*
X345299D01*
Y1377097D01*
X345715D01*
Y1372931D01*
X344882D01*
Y1372514D01*
X344049D01*
Y1372098D01*
X343216D01*
Y1371681D01*
X342799D01*
Y1371265D01*
X341966D01*
Y1370848D01*
X341133D01*
Y1370432D01*
X340717D01*
Y1362517D01*
X340300D01*
Y1359601D01*
X339883D01*
Y1357519D01*
X339467D01*
Y1356269D01*
X339050D01*
Y1355852D01*
X338634D01*
Y1355436D01*
X338217D01*
Y1355019D01*
X337801D01*
Y1354603D01*
X337384D01*
Y1354186D01*
X336551D01*
Y1353770D01*
X335718D01*
Y1353353D01*
X335301D01*
Y1352937D01*
X334468D01*
Y1352520D01*
X333635D01*
Y1352103D01*
X332802D01*
Y1351687D01*
X332385D01*
Y1351270D01*
X331552D01*
Y1350854D01*
X330719D01*
Y1350437D01*
X329886D01*
Y1350021D01*
X329470D01*
Y1349604D01*
X328637D01*
Y1349187D01*
X327803D01*
Y1348771D01*
X326970D01*
Y1348354D01*
X326554D01*
Y1347938D01*
X325721D01*
Y1347521D01*
X324888D01*
Y1347105D01*
X324054D01*
Y1346688D01*
X323638D01*
Y1346272D01*
X322805D01*
Y1345855D01*
X321972D01*
Y1345439D01*
X321555D01*
Y1345022D01*
X320722D01*
Y1344606D01*
X319889D01*
Y1344189D01*
X319056D01*
Y1343772D01*
X318639D01*
Y1343356D01*
X317806D01*
Y1342939D01*
X316973D01*
Y1342523D01*
X316140D01*
Y1342106D01*
X315723D01*
Y1341690D01*
X314890D01*
Y1341273D01*
X314057D01*
Y1340856D01*
X313641D01*
Y1340440D01*
X312808D01*
Y1340023D01*
X311974D01*
Y1339607D01*
X311141D01*
Y1339190D01*
X310725D01*
Y1338774D01*
X309892D01*
Y1338357D01*
X309058D01*
Y1337941D01*
X308225D01*
Y1337524D01*
X307809D01*
Y1337108D01*
X306976D01*
Y1336691D01*
X306143D01*
Y1336274D01*
X305726D01*
Y1335858D01*
X304893D01*
Y1335441D01*
X304060D01*
Y1335025D01*
X303227D01*
Y1334608D01*
X302810D01*
Y1334192D01*
X301977D01*
Y1333775D01*
X301144D01*
Y1333358D01*
X300311D01*
Y1332942D01*
X299894D01*
Y1332525D01*
X299061D01*
Y1332109D01*
X298228D01*
Y1331692D01*
X297395D01*
Y1331276D01*
X296978D01*
Y1330859D01*
X296145D01*
Y1330443D01*
X295312D01*
Y1330026D01*
X292396D01*
Y1330443D01*
X291563D01*
Y1330859D01*
X290730D01*
Y1331276D01*
X290314D01*
Y1331692D01*
X289480D01*
Y1332109D01*
X289064D01*
Y1332525D01*
X288231D01*
Y1332942D01*
X287814D01*
Y1333358D01*
X286981D01*
Y1333775D01*
X286565D01*
Y1334192D01*
X285732D01*
Y1334608D01*
X284898D01*
Y1335025D01*
X284482D01*
Y1335441D01*
X283649D01*
Y1335858D01*
X283232D01*
Y1336274D01*
X282399D01*
Y1336691D01*
X281983D01*
Y1337108D01*
X281150D01*
Y1337524D01*
X280733D01*
Y1337108D01*
X279900D01*
Y1336691D01*
X279067D01*
Y1336274D01*
X278650D01*
Y1335858D01*
X277817D01*
Y1335441D01*
X276984D01*
Y1335025D01*
X276151D01*
Y1334608D01*
X275318D01*
Y1334192D01*
X274901D01*
Y1333775D01*
X274068D01*
Y1333358D01*
X273235D01*
Y1332942D01*
X272402D01*
Y1332525D01*
X271569D01*
Y1332109D01*
X270736D01*
Y1331692D01*
X270319D01*
Y1331276D01*
X269486D01*
Y1330859D01*
X268653D01*
Y1330443D01*
X267820D01*
Y1330026D01*
X266987D01*
Y1329610D01*
X266154D01*
Y1329193D01*
X265737D01*
Y1328777D01*
X264904D01*
Y1328360D01*
X264071D01*
Y1327943D01*
X263238D01*
Y1327527D01*
X262405D01*
Y1327110D01*
X259905D01*
Y1327527D01*
X259489D01*
Y1327110D01*
X257406D01*
Y1327527D01*
X256989D01*
Y1327110D01*
X256573D01*
Y1327527D01*
X256156D01*
Y1327943D01*
X256989D01*
Y1328360D01*
X257406D01*
Y1328777D01*
X258239D01*
Y1329193D01*
X259072D01*
Y1329610D01*
X259905D01*
Y1330026D01*
X260738D01*
Y1330443D01*
X261572D01*
Y1330859D01*
X261988D01*
Y1331276D01*
X262821D01*
Y1331692D01*
X263654D01*
Y1332109D01*
X264487D01*
Y1332525D01*
X265320D01*
Y1332942D01*
X265737D01*
Y1333358D01*
X266570D01*
Y1333775D01*
X267403D01*
Y1334192D01*
X268236D01*
Y1334608D01*
X269069D01*
Y1335025D01*
X269903D01*
Y1335441D01*
X270319D01*
Y1335858D01*
X271152D01*
Y1336274D01*
X271985D01*
Y1336691D01*
X272819D01*
Y1337108D01*
X273652D01*
Y1337524D01*
X274485D01*
Y1337941D01*
X274901D01*
Y1338357D01*
X275734D01*
Y1338774D01*
X276567D01*
Y1339190D01*
X277400D01*
Y1340023D01*
X276984D01*
Y1340440D01*
X276151D01*
Y1340856D01*
X275734D01*
Y1341273D01*
X274901D01*
Y1341690D01*
X274485D01*
Y1342106D01*
X273652D01*
Y1342523D01*
X273235D01*
Y1342939D01*
X272402D01*
Y1343356D01*
X271985D01*
Y1343772D01*
X271569D01*
Y1344189D01*
X271152D01*
Y1344606D01*
X270736D01*
Y1345439D01*
X270319D01*
Y1345855D01*
X269903D01*
Y1347105D01*
X269486D01*
Y1347938D01*
X269069D01*
Y1348771D01*
X268653D01*
Y1350021D01*
X268236D01*
Y1351270D01*
X267820D01*
Y1352937D01*
X267403D01*
Y1355436D01*
X266987D01*
Y1360434D01*
X267403D01*
Y1362934D01*
X267820D01*
Y1364600D01*
X268236D01*
Y1365850D01*
X268653D01*
Y1366683D01*
X269069D01*
Y1367516D01*
X269486D01*
Y1368349D01*
X269903D01*
Y1369182D01*
X270319D01*
Y1369599D01*
X270736D01*
Y1370015D01*
X271152D01*
Y1370848D01*
X271569D01*
Y1371265D01*
X271985D01*
Y1371681D01*
X272402D01*
Y1372098D01*
X274901D01*
Y1371681D01*
X275734D01*
Y1371265D01*
X276567D01*
Y1370848D01*
X278234D01*
Y1370432D01*
X280316D01*
Y1370015D01*
X285732D01*
Y1370432D01*
X287814D01*
Y1370848D01*
X289480D01*
Y1371265D01*
X290730D01*
Y1371681D01*
X291563D01*
Y1372098D01*
X292813D01*
Y1372514D01*
X293646D01*
Y1372931D01*
X294479D01*
Y1373348D01*
X295312D01*
Y1373764D01*
X295729D01*
Y1374181D01*
X296562D01*
Y1374597D01*
X296978D01*
Y1375014D01*
X297812D01*
Y1375430D01*
X298228D01*
Y1375847D01*
X299061D01*
Y1376263D01*
X299478D01*
Y1376680D01*
X299894D01*
Y1377097D01*
X300311D01*
Y1377513D01*
X300728D01*
Y1377930D01*
X301144D01*
Y1378346D01*
X301977D01*
Y1378763D01*
X302394D01*
Y1379179D01*
X302810D01*
Y1379596D01*
X303227D01*
Y1380429D01*
X303643D01*
Y1380845D01*
X304060D01*
Y1381262D01*
X304476D01*
Y1381679D01*
X304893D01*
Y1382095D01*
X305310D01*
Y1382928D01*
X305726D01*
Y1383345D01*
X306143D01*
Y1383761D01*
X306559D01*
Y1384595D01*
X306976D01*
Y1385011D01*
X307392D01*
Y1385844D01*
X307809D01*
Y1386677D01*
X308225D01*
Y1387094D01*
X308642D01*
Y1387927D01*
X309058D01*
Y1388760D01*
X309892D01*
Y1389176D01*
X312391D01*
Y1388760D01*
D02*
G37*
G36*
X252407Y1369182D02*
X253241D01*
Y1368766D01*
X254074D01*
Y1368349D01*
X254907D01*
Y1367932D01*
X255740D01*
Y1367516D01*
X256989D01*
Y1367099D01*
X257823D01*
Y1366683D01*
X258656D01*
Y1366266D01*
X259489D01*
Y1365850D01*
X260322D01*
Y1365433D01*
X261155D01*
Y1365016D01*
X261988D01*
Y1364600D01*
X262821D01*
Y1364183D01*
X263654D01*
Y1363767D01*
X264904D01*
Y1363350D01*
X265320D01*
Y1362934D01*
X265737D01*
Y1362101D01*
X265320D01*
Y1354186D01*
X265737D01*
Y1352103D01*
X264071D01*
Y1352520D01*
X261988D01*
Y1352937D01*
X260322D01*
Y1353353D01*
X258656D01*
Y1353770D01*
X256573D01*
Y1354186D01*
X254907D01*
Y1354603D01*
X253241D01*
Y1355019D01*
X251574D01*
Y1355436D01*
X251158D01*
Y1369599D01*
X252407D01*
Y1369182D01*
D02*
G37*
%LPC*%
G36*
X295729D02*
X293646D01*
Y1368766D01*
X292813D01*
Y1368349D01*
X291563D01*
Y1367932D01*
X290314D01*
Y1367516D01*
X289064D01*
Y1367099D01*
X286981D01*
Y1366683D01*
X278650D01*
Y1367099D01*
X276984D01*
Y1367516D01*
X275734D01*
Y1367932D01*
X274485D01*
Y1368349D01*
X273652D01*
Y1367516D01*
X273235D01*
Y1367099D01*
X272819D01*
Y1366266D01*
X272402D01*
Y1365433D01*
X271985D01*
Y1364600D01*
X271569D01*
Y1363350D01*
X271152D01*
Y1361684D01*
X270736D01*
Y1354603D01*
X271152D01*
Y1352520D01*
X271569D01*
Y1351270D01*
X271985D01*
Y1350021D01*
X272402D01*
Y1349187D01*
X272819D01*
Y1348354D01*
X273235D01*
Y1347521D01*
X273652D01*
Y1346688D01*
X274068D01*
Y1346272D01*
X274485D01*
Y1345855D01*
X275318D01*
Y1345439D01*
X275734D01*
Y1345022D01*
X276567D01*
Y1344606D01*
X276984D01*
Y1344189D01*
X277817D01*
Y1343772D01*
X278234D01*
Y1343356D01*
X279067D01*
Y1342939D01*
X279483D01*
Y1342523D01*
X279900D01*
Y1342106D01*
X280733D01*
Y1341690D01*
X281150D01*
Y1341273D01*
X281983D01*
Y1340856D01*
X282816D01*
Y1340440D01*
X283232D01*
Y1340023D01*
X284065D01*
Y1339607D01*
X284482D01*
Y1339190D01*
X285315D01*
Y1338774D01*
X285732D01*
Y1338357D01*
X286565D01*
Y1337941D01*
X286981D01*
Y1337524D01*
X287814D01*
Y1337108D01*
X288231D01*
Y1336691D01*
X289064D01*
Y1336274D01*
X289480D01*
Y1335858D01*
X290314D01*
Y1335441D01*
X290730D01*
Y1335025D01*
X291563D01*
Y1334608D01*
X292396D01*
Y1334192D01*
X292813D01*
Y1333775D01*
X293646D01*
Y1333358D01*
X294063D01*
Y1333775D01*
X294896D01*
Y1334192D01*
X295729D01*
Y1334608D01*
X296562D01*
Y1335025D01*
X296978D01*
Y1335441D01*
X297812D01*
Y1335858D01*
X298645D01*
Y1336274D01*
X299061D01*
Y1336691D01*
X299894D01*
Y1337108D01*
X300728D01*
Y1337524D01*
X301561D01*
Y1337941D01*
X301977D01*
Y1338357D01*
X302810D01*
Y1338774D01*
X303643D01*
Y1339190D01*
X304476D01*
Y1339607D01*
X304893D01*
Y1340023D01*
X305726D01*
Y1340440D01*
X306559D01*
Y1340856D01*
X306976D01*
Y1341273D01*
X307809D01*
Y1341690D01*
X308642D01*
Y1342106D01*
X309475D01*
Y1342523D01*
X309892D01*
Y1342939D01*
X310725D01*
Y1343356D01*
X311558D01*
Y1343772D01*
X312391D01*
Y1344189D01*
X312808D01*
Y1344606D01*
X313641D01*
Y1345022D01*
X314474D01*
Y1345439D01*
X314890D01*
Y1345855D01*
X315307D01*
Y1350854D01*
X314890D01*
Y1355852D01*
X314474D01*
Y1359185D01*
X313641D01*
Y1358768D01*
X312808D01*
Y1358352D01*
X311974D01*
Y1357935D01*
X310725D01*
Y1357519D01*
X309058D01*
Y1357102D01*
X307392D01*
Y1356685D01*
X304476D01*
Y1356269D01*
X301561D01*
Y1356685D01*
X298645D01*
Y1357102D01*
X296978D01*
Y1357519D01*
X296145D01*
Y1357935D01*
X294896D01*
Y1358352D01*
X294479D01*
Y1357935D01*
X294063D01*
Y1357102D01*
X293646D01*
Y1356685D01*
X293230D01*
Y1355852D01*
X292813D01*
Y1355436D01*
X292396D01*
Y1354603D01*
X291980D01*
Y1353770D01*
X291563D01*
Y1352937D01*
X291147D01*
Y1351687D01*
X290730D01*
Y1350437D01*
X290314D01*
Y1348771D01*
X289897D01*
Y1344606D01*
X289480D01*
Y1343356D01*
X289897D01*
Y1339607D01*
X290314D01*
Y1337941D01*
X289897D01*
Y1338774D01*
X289480D01*
Y1340440D01*
X289064D01*
Y1342523D01*
X288647D01*
Y1349604D01*
X289064D01*
Y1351687D01*
X289480D01*
Y1352937D01*
X289897D01*
Y1354186D01*
X290314D01*
Y1355019D01*
X290730D01*
Y1355852D01*
X291147D01*
Y1356685D01*
X291563D01*
Y1357519D01*
X291980D01*
Y1357935D01*
X292396D01*
Y1358768D01*
X292813D01*
Y1359185D01*
X292396D01*
Y1359601D01*
X291980D01*
Y1360018D01*
X291147D01*
Y1360434D01*
X290314D01*
Y1360851D01*
X289480D01*
Y1361268D01*
X288647D01*
Y1361684D01*
X287814D01*
Y1362101D01*
X286981D01*
Y1362517D01*
X286565D01*
Y1362934D01*
X285732D01*
Y1363350D01*
X284898D01*
Y1363767D01*
X284065D01*
Y1364183D01*
X283232D01*
Y1364600D01*
X282399D01*
Y1365016D01*
X283649D01*
Y1364600D01*
X284898D01*
Y1364183D01*
X285732D01*
Y1363767D01*
X286981D01*
Y1363350D01*
X287814D01*
Y1362934D01*
X289064D01*
Y1362517D01*
X289897D01*
Y1362101D01*
X291147D01*
Y1361684D01*
X291980D01*
Y1361268D01*
X293230D01*
Y1360851D01*
X294063D01*
Y1360434D01*
X295312D01*
Y1360018D01*
X296145D01*
Y1359601D01*
X296978D01*
Y1359185D01*
X298645D01*
Y1358768D01*
X300728D01*
Y1358352D01*
X305310D01*
Y1358768D01*
X306143D01*
Y1359185D01*
X305726D01*
Y1359601D01*
X304893D01*
Y1360018D01*
X304476D01*
Y1360434D01*
X303643D01*
Y1360851D01*
X302810D01*
Y1361268D01*
X302394D01*
Y1361684D01*
X301561D01*
Y1362101D01*
X301144D01*
Y1362517D01*
X300311D01*
Y1362934D01*
X299478D01*
Y1363350D01*
X300728D01*
Y1362934D01*
X301561D01*
Y1362517D01*
X302810D01*
Y1362101D01*
X303643D01*
Y1361684D01*
X304893D01*
Y1361268D01*
X305726D01*
Y1360851D01*
X306559D01*
Y1360434D01*
X307809D01*
Y1360018D01*
X308642D01*
Y1359601D01*
X310725D01*
Y1360018D01*
X311974D01*
Y1360434D01*
X312391D01*
Y1361268D01*
X311558D01*
Y1361684D01*
X310725D01*
Y1362101D01*
X309892D01*
Y1362517D01*
X308642D01*
Y1362934D01*
X307809D01*
Y1363350D01*
X306976D01*
Y1363767D01*
X306143D01*
Y1364183D01*
X305310D01*
Y1364600D01*
X304476D01*
Y1365016D01*
X303643D01*
Y1365433D01*
X302810D01*
Y1365850D01*
X301977D01*
Y1366266D01*
X301144D01*
Y1366683D01*
X299894D01*
Y1367099D01*
X299061D01*
Y1367516D01*
X298228D01*
Y1367932D01*
X297395D01*
Y1368349D01*
X296562D01*
Y1368766D01*
X295729D01*
Y1369182D01*
D02*
G37*
G36*
X312391Y1385428D02*
X311558D01*
Y1385011D01*
X311141D01*
Y1384595D01*
X310725D01*
Y1383761D01*
X310308D01*
Y1383345D01*
X309892D01*
Y1382512D01*
X309475D01*
Y1382095D01*
X309058D01*
Y1381262D01*
X308642D01*
Y1380845D01*
X308225D01*
Y1380429D01*
X307809D01*
Y1379596D01*
X307392D01*
Y1379179D01*
X306976D01*
Y1378763D01*
X306559D01*
Y1378346D01*
X306143D01*
Y1377930D01*
X305726D01*
Y1377513D01*
X305310D01*
Y1377097D01*
X304893D01*
Y1376680D01*
X304476D01*
Y1376263D01*
X304060D01*
Y1375847D01*
X303643D01*
Y1375430D01*
X303227D01*
Y1375014D01*
X302810D01*
Y1374597D01*
X302394D01*
Y1374181D01*
X301977D01*
Y1373764D01*
X301144D01*
Y1373348D01*
X300728D01*
Y1372931D01*
X300311D01*
Y1372514D01*
X299478D01*
Y1372098D01*
X299061D01*
Y1371681D01*
X298228D01*
Y1371265D01*
X297812D01*
Y1370848D01*
X297395D01*
Y1370432D01*
X297812D01*
Y1370015D01*
X298645D01*
Y1369599D01*
X299478D01*
Y1369182D01*
X300311D01*
Y1368766D01*
X301561D01*
Y1368349D01*
X302394D01*
Y1367932D01*
X303227D01*
Y1367516D01*
X304060D01*
Y1367099D01*
X304893D01*
Y1366683D01*
X305726D01*
Y1366266D01*
X306559D01*
Y1365850D01*
X307392D01*
Y1365433D01*
X308225D01*
Y1365016D01*
X309475D01*
Y1364600D01*
X310308D01*
Y1364183D01*
X311141D01*
Y1363767D01*
X311974D01*
Y1363350D01*
X312808D01*
Y1362934D01*
X313641D01*
Y1362517D01*
X314474D01*
Y1362101D01*
X316140D01*
Y1362517D01*
X316556D01*
Y1362934D01*
X317390D01*
Y1363350D01*
X317806D01*
Y1364183D01*
X316973D01*
Y1364600D01*
X316140D01*
Y1365016D01*
X315307D01*
Y1365433D01*
X314474D01*
Y1365850D01*
X313641D01*
Y1366266D01*
X312808D01*
Y1366683D01*
X311974D01*
Y1367099D01*
X311558D01*
Y1367516D01*
X310725D01*
Y1367932D01*
X309892D01*
Y1368349D01*
X309058D01*
Y1368766D01*
X308225D01*
Y1369182D01*
X307392D01*
Y1369599D01*
X306559D01*
Y1370015D01*
X306143D01*
Y1370432D01*
X306976D01*
Y1370015D01*
X307809D01*
Y1369599D01*
X308642D01*
Y1369182D01*
X309892D01*
Y1368766D01*
X310725D01*
Y1368349D01*
X311558D01*
Y1367932D01*
X312391D01*
Y1367516D01*
X313224D01*
Y1367099D01*
X314474D01*
Y1366683D01*
X315307D01*
Y1366266D01*
X316140D01*
Y1365850D01*
X316973D01*
Y1365433D01*
X318223D01*
Y1365016D01*
X319056D01*
Y1364600D01*
X319889D01*
Y1365016D01*
X320722D01*
Y1365433D01*
X321138D01*
Y1365850D01*
X321555D01*
Y1366266D01*
X321972D01*
Y1366683D01*
X321138D01*
Y1367099D01*
X320305D01*
Y1367516D01*
X319889D01*
Y1367932D01*
X319056D01*
Y1368349D01*
X318223D01*
Y1368766D01*
X317390D01*
Y1369182D01*
X316556D01*
Y1369599D01*
X315723D01*
Y1370015D01*
X314890D01*
Y1370432D01*
X314057D01*
Y1370848D01*
X313641D01*
Y1371265D01*
X312808D01*
Y1371681D01*
X311974D01*
Y1372098D01*
X313224D01*
Y1371681D01*
X314057D01*
Y1371265D01*
X314890D01*
Y1370848D01*
X316140D01*
Y1370432D01*
X316973D01*
Y1370015D01*
X317806D01*
Y1369599D01*
X318639D01*
Y1369182D01*
X319889D01*
Y1368766D01*
X320722D01*
Y1368349D01*
X321555D01*
Y1367932D01*
X322805D01*
Y1367516D01*
X323638D01*
Y1367932D01*
X324054D01*
Y1368349D01*
X324471D01*
Y1368766D01*
X324888D01*
Y1369182D01*
X325304D01*
Y1369599D01*
X325721D01*
Y1370015D01*
X326137D01*
Y1370432D01*
X326554D01*
Y1370848D01*
X326970D01*
Y1371265D01*
X327387D01*
Y1372098D01*
X327803D01*
Y1372514D01*
X328220D01*
Y1372931D01*
X328637D01*
Y1373348D01*
X329053D01*
Y1373764D01*
X329470D01*
Y1372931D01*
X329053D01*
Y1372514D01*
X328637D01*
Y1371681D01*
X328220D01*
Y1371265D01*
X327803D01*
Y1370848D01*
X327387D01*
Y1370015D01*
X326970D01*
Y1369599D01*
X326554D01*
Y1369182D01*
X326137D01*
Y1368766D01*
X325721D01*
Y1367932D01*
X325304D01*
Y1367516D01*
X324888D01*
Y1367099D01*
X324471D01*
Y1366683D01*
X324054D01*
Y1366266D01*
X323638D01*
Y1365850D01*
X323221D01*
Y1365433D01*
X322805D01*
Y1365016D01*
X322388D01*
Y1364600D01*
X321972D01*
Y1364183D01*
X321138D01*
Y1363767D01*
X320722D01*
Y1363350D01*
X320305D01*
Y1362934D01*
X319889D01*
Y1362517D01*
X319472D01*
Y1362101D01*
X318639D01*
Y1361684D01*
X318223D01*
Y1361268D01*
X317390D01*
Y1360851D01*
X316556D01*
Y1355436D01*
X316973D01*
Y1350437D01*
X317390D01*
Y1347105D01*
X317806D01*
Y1347521D01*
X318639D01*
Y1347938D01*
X319472D01*
Y1348354D01*
X320305D01*
Y1348771D01*
X320722D01*
Y1349187D01*
X321555D01*
Y1349604D01*
X322388D01*
Y1350021D01*
X322805D01*
Y1350437D01*
X323638D01*
Y1350854D01*
X324471D01*
Y1351270D01*
X325304D01*
Y1351687D01*
X325721D01*
Y1352103D01*
X326554D01*
Y1352520D01*
X327387D01*
Y1352937D01*
X328220D01*
Y1353353D01*
X328637D01*
Y1353770D01*
X329470D01*
Y1354186D01*
X330303D01*
Y1354603D01*
X331136D01*
Y1355019D01*
X331552D01*
Y1355436D01*
X332385D01*
Y1355852D01*
X333218D01*
Y1356269D01*
X334052D01*
Y1356685D01*
X334468D01*
Y1357102D01*
X335301D01*
Y1357519D01*
X336134D01*
Y1358768D01*
X336551D01*
Y1360851D01*
X336968D01*
Y1364183D01*
X337384D01*
Y1371265D01*
X336968D01*
Y1373348D01*
X336551D01*
Y1374597D01*
X336134D01*
Y1375430D01*
X335718D01*
Y1375847D01*
X335301D01*
Y1376263D01*
X334885D01*
Y1376680D01*
X334468D01*
Y1377097D01*
X333635D01*
Y1377513D01*
X332802D01*
Y1377930D01*
X331552D01*
Y1378346D01*
X330719D01*
Y1378763D01*
X329470D01*
Y1379179D01*
X328220D01*
Y1379596D01*
X327387D01*
Y1380012D01*
X326137D01*
Y1380429D01*
X324888D01*
Y1380845D01*
X324054D01*
Y1381262D01*
X322805D01*
Y1381679D01*
X321555D01*
Y1382095D01*
X320722D01*
Y1382512D01*
X319472D01*
Y1382928D01*
X318223D01*
Y1383345D01*
X316973D01*
Y1383761D01*
X316140D01*
Y1384178D01*
X314890D01*
Y1384595D01*
X313641D01*
Y1385011D01*
X312391D01*
Y1385428D01*
D02*
G37*
G36*
X526082Y1401673D02*
X499839D01*
Y1347521D01*
X526082D01*
Y1347938D01*
X527332D01*
Y1348354D01*
X528165D01*
Y1348771D01*
X528582D01*
Y1349187D01*
X529415D01*
Y1349604D01*
X529831D01*
Y1350437D01*
X530248D01*
Y1350854D01*
X530664D01*
Y1351687D01*
X531081D01*
Y1352937D01*
X531497D01*
Y1396258D01*
X531081D01*
Y1396674D01*
Y1397508D01*
X530664D01*
Y1398341D01*
X530248D01*
Y1398757D01*
X529831D01*
Y1399590D01*
X529415D01*
Y1400007D01*
X528582D01*
Y1400423D01*
X528165D01*
Y1400840D01*
X527332D01*
Y1401257D01*
X526082D01*
Y1401673D01*
D02*
G37*
G36*
X762684D02*
X736858D01*
Y1377097D01*
X737274D01*
Y1376680D01*
X760185D01*
Y1377097D01*
X763101D01*
Y1377513D01*
X764350D01*
Y1377930D01*
X764767D01*
Y1378346D01*
X765600D01*
Y1378763D01*
X766016D01*
Y1379179D01*
X766433D01*
Y1379596D01*
X766849D01*
Y1380012D01*
X767266D01*
Y1380845D01*
X767682D01*
Y1381679D01*
X768099D01*
Y1383345D01*
X768516D01*
Y1395425D01*
X768099D01*
Y1397091D01*
X767682D01*
Y1397924D01*
X767266D01*
Y1398757D01*
X766849D01*
Y1399174D01*
X766433D01*
Y1399590D01*
X766016D01*
Y1400007D01*
X765600D01*
Y1400423D01*
X764767D01*
Y1400840D01*
X763934D01*
Y1401257D01*
X762684D01*
Y1401673D01*
D02*
G37*
%LPD*%
D10*
X698500Y354630D02*
G03*
X698500Y353630I0J-500D01*
G01*
D02*
G03*
X698500Y354630I0J500D01*
G01*
X327960Y647700D02*
G03*
X326960Y647700I-500J0D01*
G01*
D02*
G03*
X327960Y647700I500J0D01*
G01*
D11*
X1280160Y477520D02*
G03*
X1280160Y477520I-2540J0D01*
G01*
Y718820D02*
G03*
X1280160Y718820I-2540J0D01*
G01*
X817880Y1087120D02*
G03*
X817880Y1087120I-2540J0D01*
G01*
Y858520D02*
G03*
X817880Y858520I-2540J0D01*
G01*
X1168400Y1358900D02*
G03*
X1168400Y1358900I-2540J0D01*
G01*
X1374140Y1183640D02*
G03*
X1374140Y1183640I-2540J0D01*
G01*
Y955040D02*
G03*
X1374140Y955040I-2540J0D01*
G01*
Y726440D02*
G03*
X1374140Y726440I-2540J0D01*
G01*
X1419860Y509270D02*
X1432560D01*
Y445770D02*
Y509270D01*
X1419860Y445770D02*
X1432560D01*
X1419860Y337820D02*
Y445770D01*
Y509270D02*
Y617220D01*
X1470660D02*
X1496060D01*
Y337820D02*
Y617220D01*
X1419860Y337820D02*
X1496060D01*
X1419860Y617220D02*
X1470660D01*
X1485900Y941070D02*
X1498600D01*
Y877570D02*
Y941070D01*
X1485900Y877570D02*
X1498600D01*
X1485900Y769620D02*
Y877570D01*
Y941070D02*
Y1049020D01*
X1536700D02*
X1562100D01*
Y769620D02*
Y1049020D01*
X1485900Y769620D02*
X1562100D01*
X1485900Y1049020D02*
X1536700D01*
X673100Y1060450D02*
X685800D01*
X673100D02*
Y1123950D01*
X685800D01*
Y1231900D01*
Y952500D02*
Y1060450D01*
X609600Y952500D02*
X635000D01*
X609600D02*
Y1231900D01*
X685800D01*
X635000Y952500D02*
X685800D01*
X1485900Y1294130D02*
X1498600D01*
Y1230630D02*
Y1294130D01*
X1485900Y1230630D02*
X1498600D01*
X1485900Y1122680D02*
Y1230630D01*
Y1294130D02*
Y1402080D01*
X1536700D02*
X1562100D01*
Y1122680D02*
Y1402080D01*
X1485900Y1122680D02*
X1562100D01*
X1485900Y1402080D02*
X1536700D01*
X1265190Y832630D02*
Y1296180D01*
X874030D02*
X1265190D01*
X874030Y832630D02*
Y1296180D01*
Y832630D02*
X1265190D01*
X1139460Y854225D02*
X1129303D01*
X1134382D01*
Y869460D01*
X1121686D02*
X1116608D01*
X1114068Y866921D01*
Y861842D01*
X1116608Y859303D01*
X1121686D01*
X1124225Y861842D01*
Y866921D01*
X1121686Y869460D01*
X1093755Y854225D02*
Y864382D01*
X1088677Y869460D01*
X1083598Y864382D01*
Y854225D01*
X1078520Y869460D02*
X1073441D01*
X1075981D01*
Y859303D01*
X1078520D01*
X1055667Y854225D02*
Y869460D01*
X1063285D01*
X1065824Y866921D01*
Y861842D01*
X1063285Y859303D01*
X1055667D01*
X1048050Y869460D02*
X1042971D01*
X1040432Y866921D01*
Y861842D01*
X1042971Y859303D01*
X1048050D01*
X1050589Y861842D01*
Y866921D01*
X1048050Y869460D01*
X1035354Y859303D02*
Y869460D01*
Y864382D01*
X1032815Y861842D01*
X1030275Y859303D01*
X1027736D01*
X1012501Y869460D02*
Y854225D01*
X1020119Y861842D01*
X1009962D01*
X1004884Y869460D02*
Y854225D01*
Y864382D02*
X997266Y859303D01*
X1004884Y864382D02*
X997266Y869460D01*
X588014Y1060447D02*
X585475Y1057907D01*
Y1052829D01*
X588014Y1050290D01*
X598171D01*
X600710Y1052829D01*
Y1057907D01*
X598171Y1060447D01*
X585475Y1065525D02*
X600710D01*
X593092D01*
X590553Y1068064D01*
Y1073143D01*
X593092Y1075682D01*
X600710D01*
X598171Y1080760D02*
X600710Y1083299D01*
Y1088378D01*
X598171Y1090917D01*
X588014D01*
X585475Y1088378D01*
Y1083299D01*
X588014Y1080760D01*
X590553D01*
X593092Y1083299D01*
Y1090917D01*
Y1095995D02*
Y1106152D01*
X600710Y1111230D02*
Y1116309D01*
Y1113770D01*
X585475D01*
X588014Y1111230D01*
X585475Y1134083D02*
X588014Y1129005D01*
X593092Y1123926D01*
X598171D01*
X600710Y1126465D01*
Y1131544D01*
X598171Y1134083D01*
X595632D01*
X593092Y1131544D01*
Y1123926D01*
X1498597Y1113786D02*
X1496057Y1116325D01*
X1490979D01*
X1488440Y1113786D01*
Y1103629D01*
X1490979Y1101090D01*
X1496057D01*
X1498597Y1103629D01*
X1503675Y1116325D02*
Y1101090D01*
Y1108708D01*
X1506214Y1111247D01*
X1511293D01*
X1513832Y1108708D01*
Y1101090D01*
X1518910D02*
X1523988D01*
X1521449D01*
Y1116325D01*
X1518910Y1113786D01*
X1531606Y1108708D02*
X1541763D01*
X1546841Y1113786D02*
X1549380Y1116325D01*
X1554459D01*
X1556998Y1113786D01*
Y1111247D01*
X1554459Y1108708D01*
X1556998Y1106168D01*
Y1103629D01*
X1554459Y1101090D01*
X1549380D01*
X1546841Y1103629D01*
Y1106168D01*
X1549380Y1108708D01*
X1546841Y1111247D01*
Y1113786D01*
X1549380Y1108708D02*
X1554459D01*
X1479547Y758186D02*
X1477007Y760725D01*
X1471929D01*
X1469390Y758186D01*
Y748029D01*
X1471929Y745490D01*
X1477007D01*
X1479547Y748029D01*
X1484625Y760725D02*
Y745490D01*
Y753108D01*
X1487164Y755647D01*
X1492243D01*
X1494782Y753108D01*
Y745490D01*
X1499860D02*
X1504939D01*
X1502399D01*
Y760725D01*
X1499860Y758186D01*
X1512556Y760725D02*
X1522713D01*
Y758186D01*
X1512556Y748029D01*
Y745490D01*
X1527791Y753108D02*
X1537948D01*
X1553183Y745490D02*
X1543026D01*
X1553183Y755647D01*
Y758186D01*
X1550644Y760725D01*
X1545565D01*
X1543026Y758186D01*
X1565879Y745490D02*
Y760725D01*
X1558261Y753108D01*
X1568418D01*
X1409697Y326386D02*
X1407157Y328925D01*
X1402079D01*
X1399540Y326386D01*
Y316229D01*
X1402079Y313690D01*
X1407157D01*
X1409697Y316229D01*
X1414775Y328925D02*
Y313690D01*
Y321307D01*
X1417314Y323847D01*
X1422393D01*
X1424932Y321307D01*
Y313690D01*
X1440167D02*
X1430010D01*
X1440167Y323847D01*
Y326386D01*
X1437628Y328925D01*
X1432549D01*
X1430010Y326386D01*
X1455402Y328925D02*
X1445245D01*
Y321307D01*
X1450324Y323847D01*
X1452863D01*
X1455402Y321307D01*
Y316229D01*
X1452863Y313690D01*
X1447784D01*
X1445245Y316229D01*
X1460480Y321307D02*
X1470637D01*
X1475715Y326386D02*
X1478255Y328925D01*
X1483333D01*
X1485872Y326386D01*
Y323847D01*
X1483333Y321307D01*
X1480794D01*
X1483333D01*
X1485872Y318768D01*
Y316229D01*
X1483333Y313690D01*
X1478255D01*
X1475715Y316229D01*
X1501107Y313690D02*
X1490950D01*
X1501107Y323847D01*
Y326386D01*
X1498568Y328925D01*
X1493490D01*
X1490950Y326386D01*
X1543055Y270510D02*
X1550672D01*
X1553212Y273049D01*
X1550672Y275588D01*
X1553212Y278127D01*
X1550672Y280667D01*
X1543055D01*
Y285745D02*
X1550672D01*
X1553212Y288284D01*
X1550672Y290823D01*
X1553212Y293363D01*
X1550672Y295902D01*
X1543055D01*
Y300980D02*
X1550672D01*
X1553212Y303519D01*
X1550672Y306059D01*
X1553212Y308598D01*
X1550672Y311137D01*
X1543055D01*
X1553212Y316215D02*
X1550672D01*
Y318754D01*
X1553212D01*
Y316215D01*
X1558290Y333989D02*
Y336529D01*
X1555751Y339068D01*
X1543055D01*
Y331450D01*
X1545594Y328911D01*
X1550672D01*
X1553212Y331450D01*
Y339068D01*
Y344146D02*
Y349225D01*
Y346685D01*
X1543055D01*
Y344146D01*
X1540516Y359381D02*
X1543055D01*
Y356842D01*
Y361920D01*
Y359381D01*
X1550672D01*
X1553212Y361920D01*
X1537977Y369538D02*
X1553212D01*
X1545594D01*
X1543055Y372077D01*
Y377155D01*
X1545594Y379695D01*
X1553212D01*
X1543055Y384773D02*
X1550672D01*
X1553212Y387312D01*
Y394930D01*
X1543055D01*
X1537977Y400008D02*
X1553212D01*
Y407626D01*
X1550672Y410165D01*
X1548133D01*
X1545594D01*
X1543055Y407626D01*
Y400008D01*
X1553212Y415243D02*
X1550672D01*
Y417782D01*
X1553212D01*
Y415243D01*
X1543055Y438096D02*
Y430478D01*
X1545594Y427939D01*
X1550672D01*
X1553212Y430478D01*
Y438096D01*
Y445713D02*
Y450792D01*
X1550672Y453331D01*
X1545594D01*
X1543055Y450792D01*
Y445713D01*
X1545594Y443174D01*
X1550672D01*
X1553212Y445713D01*
Y458409D02*
X1543055D01*
Y460948D01*
X1545594Y463488D01*
X1553212D01*
X1545594D01*
X1543055Y466027D01*
X1545594Y468566D01*
X1553212D01*
Y473644D02*
X1543055Y483801D01*
Y488879D02*
X1553212Y499036D01*
X1548133Y493958D01*
X1543055Y499036D01*
X1553212Y488879D01*
Y504114D02*
X1543055D01*
Y511732D01*
X1545594Y514271D01*
X1553212D01*
X1545594Y519350D02*
Y529506D01*
Y534585D02*
Y544741D01*
X1553212Y549820D02*
X1543055D01*
Y557437D01*
X1545594Y559976D01*
X1553212D01*
X1537977Y575211D02*
X1553212D01*
Y567594D01*
X1550672Y565055D01*
X1545594D01*
X1543055Y567594D01*
Y575211D01*
X1553212Y580290D02*
Y585368D01*
Y582829D01*
X1543055D01*
Y580290D01*
X1553212Y592986D02*
X1543055D01*
Y600603D01*
X1545594Y603142D01*
X1553212D01*
X1558290Y613299D02*
Y615838D01*
X1555751Y618377D01*
X1543055D01*
Y610760D01*
X1545594Y608221D01*
X1550672D01*
X1553212Y610760D01*
Y618377D01*
X1545594Y623456D02*
Y633613D01*
X1558290Y638691D02*
Y641230D01*
X1555751Y643769D01*
X1543055D01*
Y653926D02*
X1550672D01*
X1553212Y656465D01*
Y664083D01*
X1543055D01*
Y671700D02*
Y676779D01*
X1545594Y679318D01*
X1553212D01*
Y671700D01*
X1550672Y669161D01*
X1548133Y671700D01*
Y679318D01*
X1511305Y270510D02*
X1518922D01*
X1521462Y273049D01*
X1518922Y275588D01*
X1521462Y278127D01*
X1518922Y280667D01*
X1511305D01*
Y285745D02*
X1518922D01*
X1521462Y288284D01*
X1518922Y290823D01*
X1521462Y293363D01*
X1518922Y295902D01*
X1511305D01*
Y300980D02*
X1518922D01*
X1521462Y303519D01*
X1518922Y306059D01*
X1521462Y308598D01*
X1518922Y311137D01*
X1511305D01*
X1521462Y316215D02*
X1518922D01*
Y318754D01*
X1521462D01*
Y316215D01*
X1511305Y328911D02*
X1518922D01*
X1521462Y331450D01*
Y339068D01*
X1524001D01*
X1526540Y336529D01*
Y333989D01*
X1521462Y339068D02*
X1511305D01*
X1521462Y346685D02*
Y351764D01*
X1518922Y354303D01*
X1513844D01*
X1511305Y351764D01*
Y346685D01*
X1513844Y344146D01*
X1518922D01*
X1521462Y346685D01*
X1511305Y359381D02*
X1518922D01*
X1521462Y361920D01*
Y369538D01*
X1511305D01*
X1508766Y377155D02*
X1511305D01*
Y374616D01*
Y379695D01*
Y377155D01*
X1518922D01*
X1521462Y379695D01*
X1511305Y387312D02*
X1518922D01*
X1521462Y389851D01*
Y397469D01*
X1511305D01*
X1506227Y402547D02*
X1521462D01*
Y410165D01*
X1518922Y412704D01*
X1516383D01*
X1513844D01*
X1511305Y410165D01*
Y402547D01*
X1521462Y425400D02*
Y420322D01*
X1518922Y417782D01*
X1513844D01*
X1511305Y420322D01*
Y425400D01*
X1513844Y427939D01*
X1516383D01*
Y417782D01*
X1521462Y433017D02*
X1518922D01*
Y435557D01*
X1521462D01*
Y433017D01*
X1511305Y455870D02*
Y448252D01*
X1513844Y445713D01*
X1518922D01*
X1521462Y448252D01*
Y455870D01*
Y463488D02*
Y468566D01*
X1518922Y471105D01*
X1513844D01*
X1511305Y468566D01*
Y463488D01*
X1513844Y460948D01*
X1518922D01*
X1521462Y463488D01*
Y476184D02*
X1511305D01*
Y478723D01*
X1513844Y481262D01*
X1521462D01*
X1513844D01*
X1511305Y483801D01*
X1513844Y486340D01*
X1521462D01*
Y491418D02*
X1511305Y501575D01*
X1516383Y514271D02*
X1513844D01*
Y511732D01*
X1516383D01*
Y514271D01*
X1513844Y516810D01*
X1508766D01*
X1506227Y514271D01*
Y509193D01*
X1508766Y506654D01*
X1518922D01*
X1521462Y509193D01*
Y516810D01*
X1526540Y521889D02*
X1511305D01*
Y529506D01*
X1513844Y532045D01*
X1518922D01*
X1521462Y529506D01*
Y521889D01*
X1511305Y547281D02*
Y539663D01*
X1513844Y537124D01*
X1518922D01*
X1521462Y539663D01*
Y547281D01*
X1506227Y562515D02*
X1521462D01*
Y554898D01*
X1518922Y552359D01*
X1513844D01*
X1511305Y554898D01*
Y562515D01*
X1521462Y567594D02*
Y572672D01*
Y570133D01*
X1511305D01*
Y567594D01*
X1521462Y580290D02*
X1511305D01*
Y582829D01*
X1513844Y585368D01*
X1521462D01*
X1513844D01*
X1511305Y587907D01*
X1513844Y590447D01*
X1521462D01*
Y595525D02*
X1511305D01*
Y598064D01*
X1513844Y600603D01*
X1521462D01*
X1513844D01*
X1511305Y603142D01*
X1513844Y605682D01*
X1521462D01*
Y618377D02*
Y613299D01*
X1518922Y610760D01*
X1513844D01*
X1511305Y613299D01*
Y618377D01*
X1513844Y620917D01*
X1516383D01*
Y610760D01*
X1511305Y625995D02*
X1521462D01*
X1516383D01*
X1513844Y628534D01*
X1511305Y631073D01*
Y633613D01*
X687681Y917954D02*
X680063Y910336D01*
X672446Y917954D01*
X680063Y925571D02*
Y935728D01*
X642620Y919477D02*
X635003Y911860D01*
X627385Y919477D01*
X635003Y927095D02*
Y937252D01*
X596900Y919477D02*
X589282Y911860D01*
X581665Y919477D01*
X589282Y927095D02*
Y937252D01*
X551180Y919477D02*
X543563Y911860D01*
X535945Y919477D01*
X543563Y927095D02*
Y937252D01*
X673100Y673102D02*
X680717Y680720D01*
X688335Y673102D01*
X680717Y665485D02*
Y655328D01*
X627380Y673102D02*
X634997Y680720D01*
X642615Y673102D01*
X634997Y665485D02*
Y655328D01*
X581660Y673102D02*
X589277Y680720D01*
X596895Y673102D01*
X589277Y665485D02*
Y655328D01*
X535940Y673102D02*
X543558Y680720D01*
X551175Y673102D01*
X543558Y665485D02*
Y655328D01*
X259078Y1234438D02*
X254000Y1239517D01*
Y1244595D01*
X259078Y1249673D01*
X276853Y1244595D02*
X269235D01*
X266696Y1242056D01*
Y1236977D01*
X269235Y1234438D01*
X276853D01*
X281931D02*
X287009Y1239517D01*
Y1244595D01*
X281931Y1249673D01*
X320019Y1234438D02*
X309862D01*
X320019Y1244595D01*
Y1247134D01*
X317479Y1249673D01*
X312401D01*
X309862Y1247134D01*
X325097D02*
X327636Y1249673D01*
X332715D01*
X335254Y1247134D01*
Y1236977D01*
X332715Y1234438D01*
X327636D01*
X325097Y1236977D01*
Y1247134D01*
X350489Y1234438D02*
X340332D01*
X350489Y1244595D01*
Y1247134D01*
X347950Y1249673D01*
X342871D01*
X340332Y1247134D01*
X365724Y1249673D02*
X355567D01*
Y1242056D01*
X360645Y1244595D01*
X363185D01*
X365724Y1242056D01*
Y1236977D01*
X363185Y1234438D01*
X358106D01*
X355567Y1236977D01*
X396194Y1247134D02*
X393655Y1249673D01*
X388577D01*
X386037Y1247134D01*
Y1236977D01*
X388577Y1234438D01*
X393655D01*
X396194Y1236977D01*
X401272Y1249673D02*
Y1234438D01*
Y1242056D01*
X403811Y1244595D01*
X408890D01*
X411429Y1242056D01*
Y1234438D01*
X416507Y1244595D02*
Y1234438D01*
Y1239517D01*
X419047Y1242056D01*
X421586Y1244595D01*
X424125D01*
X431743Y1234438D02*
X436821D01*
X434282D01*
Y1244595D01*
X431743D01*
X444438Y1234438D02*
X452056D01*
X454595Y1236977D01*
X452056Y1239517D01*
X446978D01*
X444438Y1242056D01*
X446978Y1244595D01*
X454595D01*
X474908Y1234438D02*
Y1249673D01*
X485065Y1234438D01*
Y1249673D01*
X492683Y1234438D02*
X497761D01*
X500300Y1236977D01*
Y1242056D01*
X497761Y1244595D01*
X492683D01*
X490144Y1242056D01*
Y1236977D01*
X492683Y1234438D01*
X512996D02*
X507918D01*
X505379Y1236977D01*
Y1242056D01*
X507918Y1244595D01*
X512996D01*
X515535Y1242056D01*
Y1239517D01*
X505379D01*
X530770Y1249673D02*
Y1234438D01*
X523153D01*
X520614Y1236977D01*
Y1242056D01*
X523153Y1244595D01*
X530770D01*
X535849Y1234438D02*
X540927D01*
X538388D01*
Y1244595D01*
X535849D01*
X548545Y1234438D02*
Y1244595D01*
X556162D01*
X558701Y1242056D01*
Y1234438D01*
X568858Y1229360D02*
X571397D01*
X573937Y1231899D01*
Y1244595D01*
X566319D01*
X563780Y1242056D01*
Y1236977D01*
X566319Y1234438D01*
X573937D01*
X256540Y1264918D02*
Y1280153D01*
X264158D01*
X266697Y1277614D01*
Y1272536D01*
X264158Y1269997D01*
X256540D01*
X261618D02*
X266697Y1264918D01*
X279393D02*
X274314D01*
X271775Y1267458D01*
Y1272536D01*
X274314Y1275075D01*
X279393D01*
X281932Y1272536D01*
Y1269997D01*
X271775D01*
X287010Y1275075D02*
X292089Y1264918D01*
X297167Y1275075D01*
X317480Y1264918D02*
X322559D01*
X320019D01*
Y1280153D01*
X317480Y1277614D01*
X330176Y1264918D02*
Y1267458D01*
X332715D01*
Y1264918D01*
X330176D01*
X342872Y1277614D02*
X345411Y1280153D01*
X350490D01*
X353029Y1277614D01*
Y1267458D01*
X350490Y1264918D01*
X345411D01*
X342872Y1267458D01*
Y1277614D01*
X360646Y1262379D02*
X363186Y1264918D01*
Y1267458D01*
X360646D01*
Y1264918D01*
X363186D01*
X360646Y1262379D01*
X358107Y1259840D01*
X388577Y1277614D02*
X391116Y1280153D01*
X396195D01*
X398734Y1277614D01*
Y1267458D01*
X396195Y1264918D01*
X391116D01*
X388577Y1267458D01*
Y1277614D01*
X413969Y1264918D02*
X403812D01*
X413969Y1275075D01*
Y1277614D01*
X411430Y1280153D01*
X406352D01*
X403812Y1277614D01*
X419047Y1264918D02*
Y1267458D01*
X421587D01*
Y1264918D01*
X419047D01*
X431743Y1277614D02*
X434282Y1280153D01*
X439361D01*
X441900Y1277614D01*
Y1267458D01*
X439361Y1264918D01*
X434282D01*
X431743Y1267458D01*
Y1277614D01*
X446978Y1264918D02*
X452057D01*
X449518D01*
Y1280153D01*
X446978Y1277614D01*
X459674Y1264918D02*
Y1267458D01*
X462214D01*
Y1264918D01*
X459674D01*
X482527D02*
X472370D01*
X482527Y1275075D01*
Y1277614D01*
X479988Y1280153D01*
X474909D01*
X472370Y1277614D01*
X487605D02*
X490144Y1280153D01*
X495223D01*
X497762Y1277614D01*
Y1267458D01*
X495223Y1264918D01*
X490144D01*
X487605Y1267458D01*
Y1277614D01*
X512997Y1264918D02*
X502840D01*
X512997Y1275075D01*
Y1277614D01*
X510458Y1280153D01*
X505379D01*
X502840Y1277614D01*
X528232Y1280153D02*
X518075D01*
Y1272536D01*
X523154Y1275075D01*
X525693D01*
X528232Y1272536D01*
Y1267458D01*
X525693Y1264918D01*
X520615D01*
X518075Y1267458D01*
X256540Y1308095D02*
Y1292860D01*
X264158D01*
X266697Y1295399D01*
Y1305556D01*
X264158Y1308095D01*
X256540D01*
X271775D02*
Y1295399D01*
X274314Y1292860D01*
X279393D01*
X281932Y1295399D01*
Y1308095D01*
X294628D02*
X289549D01*
X287010Y1305556D01*
Y1295399D01*
X289549Y1292860D01*
X294628D01*
X297167Y1295399D01*
Y1305556D01*
X294628Y1308095D01*
X302245Y1300477D02*
X312402D01*
X317480Y1308095D02*
X327637Y1292860D01*
Y1308095D02*
X317480Y1292860D01*
X332715Y1300477D02*
X342872D01*
X358107Y1305556D02*
X355568Y1308095D01*
X350490D01*
X347950Y1305556D01*
Y1295399D01*
X350490Y1292860D01*
X355568D01*
X358107Y1295399D01*
X363186Y1292860D02*
Y1303017D01*
X368264Y1308095D01*
X373342Y1303017D01*
Y1292860D01*
Y1300477D01*
X363186D01*
X378421Y1292860D02*
Y1308095D01*
X386038D01*
X388577Y1305556D01*
Y1300477D01*
X386038Y1297938D01*
X378421D01*
X383499D02*
X388577Y1292860D01*
X393656Y1308095D02*
Y1292860D01*
X401273D01*
X403812Y1295399D01*
Y1305556D01*
X401273Y1308095D01*
X393656D01*
X408891Y1300477D02*
X419047D01*
X424126Y1292860D02*
Y1303017D01*
X429204Y1308095D01*
X434282Y1303017D01*
Y1292860D01*
Y1300477D01*
X424126D01*
X439361Y1308095D02*
Y1292860D01*
X446978D01*
X449518Y1295399D01*
Y1305556D01*
X446978Y1308095D01*
X439361D01*
X454596Y1292860D02*
Y1303017D01*
X459674Y1308095D01*
X464753Y1303017D01*
Y1292860D01*
Y1300477D01*
X454596D01*
X469831Y1292860D02*
Y1308095D01*
X477449D01*
X479988Y1305556D01*
Y1300477D01*
X477449Y1297938D01*
X469831D01*
X485066Y1308095D02*
X495223D01*
X490144D01*
Y1292860D01*
X510458Y1308095D02*
X500301D01*
Y1292860D01*
X510458D01*
X500301Y1300477D02*
X505379D01*
X515536Y1292860D02*
Y1308095D01*
X523154D01*
X525693Y1305556D01*
Y1300477D01*
X523154Y1297938D01*
X515536D01*
X520615D02*
X525693Y1292860D01*
X805177Y629914D02*
X802637Y632453D01*
X797559D01*
X795020Y629914D01*
Y627375D01*
X797559Y624836D01*
X802637D01*
X805177Y622297D01*
Y619757D01*
X802637Y617218D01*
X797559D01*
X795020Y619757D01*
X810255Y627375D02*
Y619757D01*
X812794Y617218D01*
X820412D01*
Y627375D01*
X825490Y612140D02*
Y627375D01*
X833108D01*
X835647Y624836D01*
Y619757D01*
X833108Y617218D01*
X825490D01*
X840725Y612140D02*
Y627375D01*
X848343D01*
X850882Y624836D01*
Y619757D01*
X848343Y617218D01*
X840725D01*
X855960D02*
X861039D01*
X858500D01*
Y632453D01*
X855960D01*
X868656Y627375D02*
Y619757D01*
X871195Y617218D01*
X878813D01*
Y614679D01*
X876274Y612140D01*
X873735D01*
X878813Y617218D02*
Y627375D01*
X850897Y589276D02*
X848357Y591815D01*
X843279D01*
X840740Y589276D01*
Y579119D01*
X843279Y576580D01*
X848357D01*
X850897Y579119D01*
Y584198D01*
X845818D01*
X855975Y576580D02*
Y591815D01*
X866132Y576580D01*
Y591815D01*
X871210D02*
Y576580D01*
X878828D01*
X881367Y579119D01*
Y589276D01*
X878828Y591815D01*
X871210D01*
X838200Y556258D02*
X848357D01*
X843278Y561336D02*
Y551179D01*
X863592Y563875D02*
X853435D01*
Y556258D01*
X858513Y558797D01*
X861053D01*
X863592Y556258D01*
Y551179D01*
X861053Y548640D01*
X855974D01*
X853435Y551179D01*
X868670Y563875D02*
Y553718D01*
X873748Y548640D01*
X878827Y553718D01*
Y563875D01*
X838200Y528317D02*
X848357D01*
X843278Y533396D02*
Y523239D01*
X863592Y535935D02*
X853435D01*
Y528317D01*
X858513Y530857D01*
X861053D01*
X863592Y528317D01*
Y523239D01*
X861053Y520700D01*
X855974D01*
X853435Y523239D01*
X868670Y535935D02*
Y525778D01*
X873748Y520700D01*
X878827Y525778D01*
Y535935D01*
X248917Y553716D02*
X246378Y556255D01*
X241299D01*
X238760Y553716D01*
Y543559D01*
X241299Y541020D01*
X246378D01*
X248917Y543559D01*
X253995Y541020D02*
Y551177D01*
X259073Y556255D01*
X264152Y551177D01*
Y541020D01*
Y548638D01*
X253995D01*
X269230Y541020D02*
Y556255D01*
X276848D01*
X279387Y553716D01*
Y548638D01*
X276848Y546098D01*
X269230D01*
X274308D02*
X279387Y541020D01*
X284465Y556255D02*
Y541020D01*
X292083D01*
X294622Y543559D01*
Y553716D01*
X292083Y556255D01*
X284465D01*
X317474Y541020D02*
Y556255D01*
X322553D02*
Y541020D01*
X314935Y551177D02*
X322553D01*
X325092D01*
X314935Y546098D02*
X325092D01*
X330170Y541020D02*
X335249D01*
X332710D01*
Y556255D01*
X330170Y553716D01*
X792484Y279397D02*
X789945Y276857D01*
Y271779D01*
X792484Y269240D01*
X802641D01*
X805180Y271779D01*
Y276857D01*
X802641Y279397D01*
X805180Y284475D02*
X795023D01*
X789945Y289553D01*
X795023Y294632D01*
X805180D01*
X797562D01*
Y284475D01*
X805180Y299710D02*
X789945D01*
Y307328D01*
X792484Y309867D01*
X797562D01*
X800102Y307328D01*
Y299710D01*
Y304788D02*
X805180Y309867D01*
X789945Y314945D02*
X805180D01*
Y322563D01*
X802641Y325102D01*
X792484D01*
X789945Y322563D01*
Y314945D01*
X805180Y347954D02*
X789945D01*
Y353033D02*
X805180D01*
X795023Y345415D02*
Y353033D01*
Y355572D01*
X800102Y345415D02*
Y355572D01*
X805180Y370807D02*
Y360650D01*
X795023Y370807D01*
X792484D01*
X789945Y368268D01*
Y363190D01*
X792484Y360650D01*
X363215Y744220D02*
Y734063D01*
Y739142D01*
X347980D01*
X363215Y728985D02*
X347980D01*
Y721367D01*
X350519Y718828D01*
X360676D01*
X363215Y721367D01*
Y728985D01*
X347980Y713750D02*
X363215D01*
X358137Y708671D01*
X363215Y703593D01*
X347980D01*
X363215Y886460D02*
Y876303D01*
Y881382D01*
X347980D01*
X363215Y871225D02*
X347980D01*
Y863607D01*
X350519Y861068D01*
X360676D01*
X363215Y863607D01*
Y871225D01*
X347980Y855990D02*
X363215D01*
X358137Y850911D01*
X363215Y845833D01*
X347980D01*
X467360Y388615D02*
X477517D01*
X472438D01*
Y373380D01*
X482595Y388615D02*
Y373380D01*
X490213D01*
X492752Y375919D01*
Y386076D01*
X490213Y388615D01*
X482595D01*
X497830Y373380D02*
Y388615D01*
X502909Y383537D01*
X507987Y388615D01*
Y373380D01*
X596900Y388615D02*
X607057D01*
X601978D01*
Y373380D01*
X612135Y388615D02*
Y373380D01*
X619753D01*
X622292Y375919D01*
Y386076D01*
X619753Y388615D01*
X612135D01*
X627370Y373380D02*
Y388615D01*
X632449Y383537D01*
X637527Y388615D01*
Y373380D01*
X538484Y807717D02*
X535945Y805178D01*
Y800099D01*
X538484Y797560D01*
X548641D01*
X551180Y800099D01*
Y805178D01*
X548641Y807717D01*
X535945Y812795D02*
X551180D01*
X543563D01*
X541023Y815334D01*
Y820413D01*
X543563Y822952D01*
X551180D01*
Y838187D02*
Y828030D01*
X541023Y838187D01*
X538484D01*
X535945Y835648D01*
Y830569D01*
X538484Y828030D01*
X535945Y853422D02*
Y843265D01*
X543563D01*
X541023Y848344D01*
Y850883D01*
X543563Y853422D01*
X548641D01*
X551180Y850883D01*
Y845804D01*
X548641Y843265D01*
X543563Y858500D02*
Y868657D01*
X538484Y873735D02*
X535945Y876274D01*
Y881353D01*
X538484Y883892D01*
X541023D01*
X543563Y881353D01*
Y878814D01*
Y881353D01*
X546102Y883892D01*
X548641D01*
X551180Y881353D01*
Y876274D01*
X548641Y873735D01*
X551180Y899127D02*
Y888970D01*
X541023Y899127D01*
X538484D01*
X535945Y896588D01*
Y891510D01*
X538484Y888970D01*
X584204Y807717D02*
X581665Y805178D01*
Y800099D01*
X584204Y797560D01*
X594361D01*
X596900Y800099D01*
Y805178D01*
X594361Y807717D01*
X581665Y812795D02*
X596900D01*
X589282D01*
X586743Y815334D01*
Y820413D01*
X589282Y822952D01*
X596900D01*
Y828030D02*
Y833109D01*
Y830569D01*
X581665D01*
X584204Y828030D01*
X581665Y840726D02*
Y850883D01*
X584204D01*
X594361Y840726D01*
X596900D01*
X589282Y855961D02*
Y866118D01*
X596900Y881353D02*
Y871196D01*
X586743Y881353D01*
X584204D01*
X581665Y878814D01*
Y873735D01*
X584204Y871196D01*
X596900Y894049D02*
X581665D01*
X589282Y886431D01*
Y896588D01*
X629924Y807717D02*
X627385Y805178D01*
Y800099D01*
X629924Y797560D01*
X640081D01*
X642620Y800099D01*
Y805178D01*
X640081Y807717D01*
X627385Y812795D02*
X642620D01*
X635003D01*
X632463Y815334D01*
Y820413D01*
X635003Y822952D01*
X642620D01*
X640081Y828030D02*
X642620Y830569D01*
Y835648D01*
X640081Y838187D01*
X629924D01*
X627385Y835648D01*
Y830569D01*
X629924Y828030D01*
X632463D01*
X635003Y830569D01*
Y838187D01*
Y843265D02*
Y853422D01*
X642620Y858500D02*
Y863579D01*
Y861040D01*
X627385D01*
X629924Y858500D01*
X627385Y881353D02*
X629924Y876274D01*
X635003Y871196D01*
X640081D01*
X642620Y873735D01*
Y878814D01*
X640081Y881353D01*
X637542D01*
X635003Y878814D01*
Y871196D01*
X675644Y807717D02*
X673105Y805178D01*
Y800099D01*
X675644Y797560D01*
X685801D01*
X688340Y800099D01*
Y805178D01*
X685801Y807717D01*
X673105Y812795D02*
X688340D01*
X680723D01*
X678183Y815334D01*
Y820413D01*
X680723Y822952D01*
X688340D01*
Y828030D02*
Y833109D01*
Y830569D01*
X673105D01*
X675644Y828030D01*
X680723Y840726D02*
Y850883D01*
X675644Y855961D02*
X673105Y858500D01*
Y863579D01*
X675644Y866118D01*
X678183D01*
X680723Y863579D01*
X683262Y866118D01*
X685801D01*
X688340Y863579D01*
Y858500D01*
X685801Y855961D01*
X683262D01*
X680723Y858500D01*
X678183Y855961D01*
X675644D01*
X680723Y858500D02*
Y863579D01*
X718820Y541017D02*
X711202Y533400D01*
X703585Y541017D01*
X711202Y548635D02*
Y558792D01*
X703585Y579105D02*
X718820D01*
Y586723D01*
X716281Y589262D01*
X713742D01*
X711202Y586723D01*
Y579105D01*
Y586723D01*
X708663Y589262D01*
X706124D01*
X703585Y586723D01*
Y579105D01*
X718820Y594340D02*
Y599419D01*
Y596880D01*
X708663D01*
Y594340D01*
X706124Y609575D02*
X708663D01*
Y607036D01*
Y612114D01*
Y609575D01*
X716281D01*
X718820Y612114D01*
X706124Y629889D02*
X703585Y627350D01*
Y622271D01*
X706124Y619732D01*
X716281D01*
X718820Y622271D01*
Y627350D01*
X716281Y629889D01*
X718820Y634967D02*
Y640045D01*
Y637506D01*
X703585D01*
Y634967D01*
X718820Y647663D02*
X703585D01*
X713742D02*
X708663Y655281D01*
X713742Y647663D02*
X718820Y655281D01*
X744220Y541017D02*
X736602Y533400D01*
X728985Y541017D01*
X736602Y548635D02*
Y558792D01*
X728985Y589262D02*
Y579105D01*
X736602D01*
Y584184D01*
Y579105D01*
X744220D01*
X731524Y604497D02*
X728985Y601958D01*
Y596880D01*
X731524Y594340D01*
X734063D01*
X736602Y596880D01*
Y601958D01*
X739142Y604497D01*
X741681D01*
X744220Y601958D01*
Y596880D01*
X741681Y594340D01*
X721357Y779775D02*
X711200D01*
Y772158D01*
X716278D01*
X711200D01*
Y764540D01*
X726435D02*
Y779775D01*
X734053D01*
X736592Y777236D01*
Y772158D01*
X734053Y769618D01*
X726435D01*
X751827Y777236D02*
X749288Y779775D01*
X744209D01*
X741670Y777236D01*
Y767079D01*
X744209Y764540D01*
X749288D01*
X751827Y767079D01*
Y772158D01*
X746749D01*
X756905Y764540D02*
Y774697D01*
X761984Y779775D01*
X767062Y774697D01*
Y764540D01*
Y772158D01*
X756905D01*
X718817Y723896D02*
X716277Y726435D01*
X711199D01*
X708660Y723896D01*
Y713739D01*
X711199Y711200D01*
X716277D01*
X718817Y713739D01*
X726434Y721357D02*
X731513D01*
X734052Y718818D01*
Y711200D01*
X726434D01*
X723895Y713739D01*
X726434Y716278D01*
X734052D01*
X739130Y721357D02*
Y711200D01*
Y716278D01*
X741669Y718818D01*
X744209Y721357D01*
X746748D01*
X764522Y726435D02*
Y711200D01*
X756904D01*
X754365Y713739D01*
Y718818D01*
X756904Y721357D01*
X764522D01*
X772140Y711200D02*
Y726435D01*
X777218D02*
Y711200D01*
X769600Y721357D02*
X777218D01*
X779757D01*
X769600Y716278D02*
X779757D01*
X794992Y711200D02*
X784835D01*
X794992Y721357D01*
Y723896D01*
X792453Y726435D01*
X787374D01*
X784835Y723896D01*
X825504Y688337D02*
X822965Y685798D01*
Y680719D01*
X825504Y678180D01*
X828043D01*
X830583Y680719D01*
Y685798D01*
X833122Y688337D01*
X835661D01*
X838200Y685798D01*
Y680719D01*
X835661Y678180D01*
X838200Y701033D02*
Y695954D01*
X835661Y693415D01*
X830583D01*
X828043Y695954D01*
Y701033D01*
X830583Y703572D01*
X833122D01*
Y693415D01*
X838200Y708650D02*
Y713728D01*
Y711189D01*
X822965D01*
Y708650D01*
X838200Y728964D02*
Y723885D01*
X835661Y721346D01*
X830583D01*
X828043Y723885D01*
Y728964D01*
X830583Y731503D01*
X833122D01*
Y721346D01*
X828043Y746738D02*
Y739120D01*
X830583Y736581D01*
X835661D01*
X838200Y739120D01*
Y746738D01*
X825504Y754355D02*
X828043D01*
Y751816D01*
Y756895D01*
Y754355D01*
X835661D01*
X838200Y756895D01*
X822965Y779747D02*
Y789904D01*
Y784826D01*
X838200D01*
X822965Y794982D02*
X838200D01*
Y802600D01*
X835661Y805139D01*
X825504D01*
X822965Y802600D01*
Y794982D01*
X838200Y810217D02*
X822965D01*
X828043Y815296D01*
X822965Y820374D01*
X838200D01*
X523237Y589280D02*
X515620Y596898D01*
X523237Y604515D01*
X530855Y596898D02*
X541012D01*
X571482Y604515D02*
X561325D01*
Y596898D01*
X566404D01*
X561325D01*
Y589280D01*
X586717Y601976D02*
X584178Y604515D01*
X579100D01*
X576560Y601976D01*
Y599437D01*
X579100Y596898D01*
X584178D01*
X586717Y594358D01*
Y591819D01*
X584178Y589280D01*
X579100D01*
X576560Y591819D01*
X523237Y614680D02*
X515620Y622298D01*
X523237Y629915D01*
X530855Y622298D02*
X541012D01*
X561325Y629915D02*
Y614680D01*
X568943D01*
X571482Y617219D01*
Y619758D01*
X568943Y622298D01*
X561325D01*
X568943D01*
X571482Y624837D01*
Y627376D01*
X568943Y629915D01*
X561325D01*
X576560Y614680D02*
X581639D01*
X579100D01*
Y624837D01*
X576560D01*
X591795Y627376D02*
Y624837D01*
X589256D01*
X594334D01*
X591795D01*
Y617219D01*
X594334Y614680D01*
X612109Y627376D02*
X609570Y629915D01*
X604491D01*
X601952Y627376D01*
Y617219D01*
X604491Y614680D01*
X609570D01*
X612109Y617219D01*
X617187Y614680D02*
X622266D01*
X619726D01*
Y629915D01*
X617187D01*
X629883Y614680D02*
Y629915D01*
Y619758D02*
X637501Y624837D01*
X629883Y619758D02*
X637501Y614680D01*
X256537Y287014D02*
X253997Y289553D01*
X248919D01*
X246380Y287014D01*
Y276857D01*
X248919Y274318D01*
X253997D01*
X256537Y276857D01*
X264154Y284475D02*
X269233D01*
X271772Y281936D01*
Y274318D01*
X264154D01*
X261615Y276857D01*
X264154Y279397D01*
X271772D01*
X276850Y284475D02*
Y274318D01*
Y279397D01*
X279389Y281936D01*
X281929Y284475D01*
X284468D01*
X302242Y289553D02*
Y274318D01*
X294624D01*
X292085Y276857D01*
Y281936D01*
X294624Y284475D01*
X302242D01*
X322555Y274318D02*
Y289553D01*
X330173D01*
X332712Y287014D01*
Y281936D01*
X330173Y279397D01*
X322555D01*
X327634D02*
X332712Y274318D01*
X347947Y289553D02*
Y274318D01*
X340330D01*
X337790Y276857D01*
Y281936D01*
X340330Y284475D01*
X347947D01*
X353026D02*
Y276857D01*
X355565Y274318D01*
X363182D01*
Y271779D01*
X360643Y269240D01*
X358104D01*
X363182Y274318D02*
Y284475D01*
X243838Y337820D02*
X236220Y345438D01*
X243838Y353055D01*
X251455Y345438D02*
X261612D01*
X281925Y337820D02*
Y353055D01*
X287004Y347977D01*
X292082Y353055D01*
Y337820D01*
X297160Y353055D02*
X302239D01*
X299699D01*
Y337820D01*
X297160D01*
X302239D01*
X309856Y353055D02*
Y337820D01*
X317474D01*
X320013Y340359D01*
Y350516D01*
X317474Y353055D01*
X309856D01*
X325091D02*
X330170D01*
X327630D01*
Y337820D01*
X325091D01*
X330170D01*
X353022D02*
Y353055D01*
X360640D01*
X363179Y350516D01*
Y345438D01*
X360640Y342898D01*
X353022D01*
X358101D02*
X363179Y337820D01*
X368257Y347977D02*
X378414Y337820D01*
X373336Y342898D01*
X378414Y347977D01*
X368257Y337820D01*
X233680Y419098D02*
X243837D01*
X248915Y411480D02*
X256533Y419098D01*
X248915Y426715D01*
X276846Y411480D02*
Y426715D01*
X281924Y421637D01*
X287003Y426715D01*
Y411480D01*
X292081Y426715D02*
X297160D01*
X294620D01*
Y411480D01*
X292081D01*
X297160D01*
X304777Y426715D02*
Y411480D01*
X312395D01*
X314934Y414019D01*
Y424176D01*
X312395Y426715D01*
X304777D01*
X320012D02*
X325090D01*
X322551D01*
Y411480D01*
X320012D01*
X325090D01*
X347943Y426715D02*
X358100D01*
X353021D01*
Y411480D01*
X363178Y421637D02*
X373335Y411480D01*
X368256Y416558D01*
X373335Y421637D01*
X363178Y411480D01*
X459740Y419098D02*
X452122Y411480D01*
X444505Y419098D01*
X452122Y426715D02*
Y436872D01*
X444505Y457185D02*
X457201D01*
X459740Y459724D01*
Y464803D01*
X457201Y467342D01*
X444505D01*
X459740Y472420D02*
X449583D01*
X444505Y477499D01*
X449583Y482577D01*
X459740D01*
X452122D01*
Y472420D01*
X459740Y487655D02*
X444505D01*
Y495273D01*
X447044Y497812D01*
X452122D01*
X454662Y495273D01*
Y487655D01*
Y492734D02*
X459740Y497812D01*
X444505Y502890D02*
Y513047D01*
Y507969D01*
X459740D01*
Y533361D02*
X444505D01*
Y540978D01*
X447044Y543517D01*
X452122D01*
X454662Y540978D01*
Y533361D01*
Y538439D02*
X459740Y543517D01*
X449583Y548596D02*
X459740Y558752D01*
X454662Y553674D01*
X449583Y558752D01*
X459740Y548596D01*
X386082Y411480D02*
Y421637D01*
X393700Y426715D02*
X386082Y434333D01*
X378465Y426715D01*
Y454646D02*
X391161D01*
X393700Y457185D01*
Y462264D01*
X391161Y464803D01*
X378465D01*
X393700Y469881D02*
X383543D01*
X378465Y474959D01*
X383543Y480038D01*
X393700D01*
X386082D01*
Y469881D01*
X393700Y485116D02*
X378465D01*
Y492734D01*
X381004Y495273D01*
X386082D01*
X388622Y492734D01*
Y485116D01*
Y490195D02*
X393700Y495273D01*
X378465Y500351D02*
Y510508D01*
Y505430D01*
X393700D01*
X378465Y530821D02*
Y540978D01*
Y535900D01*
X393700D01*
X383543Y546057D02*
X393700Y556213D01*
X388622Y551135D01*
X383543Y556213D01*
X393700Y546057D01*
X353060Y1013457D02*
X363217D01*
X368295Y1005840D02*
X375913Y1013457D01*
X368295Y1021075D01*
X396226D02*
Y1008379D01*
X398765Y1005840D01*
X403844D01*
X406383Y1008379D01*
Y1021075D01*
X411461Y1005840D02*
Y1015997D01*
X416539Y1021075D01*
X421618Y1015997D01*
Y1005840D01*
Y1013457D01*
X411461D01*
X426696Y1005840D02*
Y1021075D01*
X434314D01*
X436853Y1018536D01*
Y1013457D01*
X434314Y1010918D01*
X426696D01*
X431774D02*
X436853Y1005840D01*
X441931Y1021075D02*
X452088D01*
X447010D01*
Y1005840D01*
X472401Y1021075D02*
X482558D01*
X477480D01*
Y1005840D01*
X487636Y1015997D02*
X497793Y1005840D01*
X492715Y1010918D01*
X497793Y1015997D01*
X487636Y1005840D01*
X358138Y934720D02*
X350520Y942337D01*
X358138Y949955D01*
X365755Y942337D02*
X375912D01*
X396225Y949955D02*
Y937259D01*
X398764Y934720D01*
X403843D01*
X406382Y937259D01*
Y949955D01*
X411460Y934720D02*
Y944877D01*
X416539Y949955D01*
X421617Y944877D01*
Y934720D01*
Y942337D01*
X411460D01*
X426695Y934720D02*
Y949955D01*
X434313D01*
X436852Y947416D01*
Y942337D01*
X434313Y939798D01*
X426695D01*
X431774D02*
X436852Y934720D01*
X441930Y949955D02*
X452087D01*
X447009D01*
Y934720D01*
X472401D02*
Y949955D01*
X480018D01*
X482557Y947416D01*
Y942337D01*
X480018Y939798D01*
X472401D01*
X477479D02*
X482557Y934720D01*
X487636Y944877D02*
X497792Y934720D01*
X492714Y939798D01*
X497792Y944877D01*
X487636Y934720D01*
X365762Y1046480D02*
Y1056637D01*
X373380Y1061715D02*
X365762Y1069333D01*
X358145Y1061715D01*
X373380Y1089646D02*
X358145D01*
X363223Y1094724D01*
X358145Y1099803D01*
X373380D01*
X358145Y1104881D02*
Y1109959D01*
Y1107420D01*
X373380D01*
Y1104881D01*
Y1109959D01*
X358145Y1117577D02*
X373380D01*
Y1125194D01*
X370841Y1127734D01*
X360684D01*
X358145Y1125194D01*
Y1117577D01*
Y1132812D02*
Y1137890D01*
Y1135351D01*
X373380D01*
Y1132812D01*
Y1137890D01*
X358145Y1160743D02*
Y1170900D01*
Y1165821D01*
X373380D01*
X363223Y1175978D02*
X373380Y1186135D01*
X368302Y1181056D01*
X363223Y1186135D01*
X373380Y1175978D01*
X302260Y1054098D02*
X294643Y1046480D01*
X287025Y1054098D01*
X294643Y1061715D02*
Y1071872D01*
X302260Y1092185D02*
X287025D01*
X292103Y1097264D01*
X287025Y1102342D01*
X302260D01*
X287025Y1107420D02*
Y1112499D01*
Y1109959D01*
X302260D01*
Y1107420D01*
Y1112499D01*
X287025Y1120116D02*
X302260D01*
Y1127734D01*
X299721Y1130273D01*
X289564D01*
X287025Y1127734D01*
Y1120116D01*
Y1135351D02*
Y1140430D01*
Y1137890D01*
X302260D01*
Y1135351D01*
Y1140430D01*
Y1163282D02*
X287025D01*
Y1170900D01*
X289564Y1173439D01*
X294643D01*
X297182Y1170900D01*
Y1163282D01*
Y1168361D02*
X302260Y1173439D01*
X292103Y1178517D02*
X302260Y1188674D01*
X297182Y1183596D01*
X292103Y1188674D01*
X302260Y1178517D01*
X246386Y1059177D02*
X243847Y1056637D01*
Y1051559D01*
X246386Y1049020D01*
X256542D01*
X259082Y1051559D01*
Y1056637D01*
X256542Y1059177D01*
X248925Y1066794D02*
Y1071873D01*
X251464Y1074412D01*
X259082D01*
Y1066794D01*
X256542Y1064255D01*
X254003Y1066794D01*
Y1074412D01*
X248925Y1079490D02*
X259082D01*
X254003D01*
X251464Y1082029D01*
X248925Y1084568D01*
Y1087108D01*
X243847Y1104882D02*
X259082D01*
Y1097264D01*
X256542Y1094725D01*
X251464D01*
X248925Y1097264D01*
Y1104882D01*
X259082Y1125195D02*
X243847D01*
Y1132813D01*
X246386Y1135352D01*
X251464D01*
X254003Y1132813D01*
Y1125195D01*
Y1130274D02*
X259082Y1135352D01*
X243847Y1150587D02*
X259082D01*
Y1142970D01*
X256542Y1140430D01*
X251464D01*
X248925Y1142970D01*
Y1150587D01*
Y1155666D02*
X256542D01*
X259082Y1158205D01*
Y1165822D01*
X261621D01*
X264160Y1163283D01*
Y1160744D01*
X259082Y1165822D02*
X248925D01*
X1421130Y641345D02*
X1431287Y626110D01*
Y641345D02*
X1421130Y626110D01*
X1446522D02*
X1436365D01*
X1446522Y636267D01*
Y638806D01*
X1443983Y641345D01*
X1438904D01*
X1436365Y638806D01*
X1451600D02*
X1454139Y641345D01*
X1459218D01*
X1461757Y638806D01*
Y628649D01*
X1459218Y626110D01*
X1454139D01*
X1451600Y628649D01*
Y638806D01*
X1474453Y626110D02*
Y641345D01*
X1466835Y633727D01*
X1476992D01*
X1487170Y1073145D02*
X1497327Y1057910D01*
Y1073145D02*
X1487170Y1057910D01*
X1512562D02*
X1502405D01*
X1512562Y1068067D01*
Y1070606D01*
X1510023Y1073145D01*
X1504944D01*
X1502405Y1070606D01*
X1517640D02*
X1520179Y1073145D01*
X1525258D01*
X1527797Y1070606D01*
Y1060449D01*
X1525258Y1057910D01*
X1520179D01*
X1517640Y1060449D01*
Y1070606D01*
X1532875D02*
X1535414Y1073145D01*
X1540493D01*
X1543032Y1070606D01*
Y1068067D01*
X1540493Y1065527D01*
X1537954D01*
X1540493D01*
X1543032Y1062988D01*
Y1060449D01*
X1540493Y1057910D01*
X1535414D01*
X1532875Y1060449D01*
X610870Y1256025D02*
X621027Y1240790D01*
Y1256025D02*
X610870Y1240790D01*
X636262D02*
X626105D01*
X636262Y1250947D01*
Y1253486D01*
X633723Y1256025D01*
X628644D01*
X626105Y1253486D01*
X641340D02*
X643879Y1256025D01*
X648958D01*
X651497Y1253486D01*
Y1243329D01*
X648958Y1240790D01*
X643879D01*
X641340Y1243329D01*
Y1253486D01*
X666732Y1240790D02*
X656575D01*
X666732Y1250947D01*
Y1253486D01*
X664193Y1256025D01*
X659114D01*
X656575Y1253486D01*
X1487170Y1426205D02*
X1497327Y1410970D01*
Y1426205D02*
X1487170Y1410970D01*
X1512562D02*
X1502405D01*
X1512562Y1421127D01*
Y1423666D01*
X1510023Y1426205D01*
X1504944D01*
X1502405Y1423666D01*
X1517640D02*
X1520179Y1426205D01*
X1525258D01*
X1527797Y1423666D01*
Y1413509D01*
X1525258Y1410970D01*
X1520179D01*
X1517640Y1413509D01*
Y1423666D01*
X1532875Y1410970D02*
X1537954D01*
X1535414D01*
Y1426205D01*
X1532875Y1423666D01*
X1262377Y274329D02*
X1247142D01*
Y281947D01*
X1249682Y284486D01*
X1254760D01*
X1257299Y281947D01*
Y274329D01*
Y279407D02*
X1262377Y284486D01*
Y299721D02*
Y289564D01*
X1252221Y299721D01*
X1249682D01*
X1247142Y297182D01*
Y292103D01*
X1249682Y289564D01*
Y304799D02*
X1247142Y307338D01*
Y312417D01*
X1249682Y314956D01*
X1259838D01*
X1262377Y312417D01*
Y307338D01*
X1259838Y304799D01*
X1249682D01*
Y320034D02*
X1247142Y322573D01*
Y327652D01*
X1249682Y330191D01*
X1252221D01*
X1254760Y327652D01*
X1257299Y330191D01*
X1259838D01*
X1262377Y327652D01*
Y322573D01*
X1259838Y320034D01*
X1257299D01*
X1254760Y322573D01*
X1252221Y320034D01*
X1249682D01*
X1254760Y322573D02*
Y327652D01*
X1259837Y510549D02*
X1244603D01*
Y518167D01*
X1247142Y520706D01*
X1252220D01*
X1254759Y518167D01*
Y510549D01*
Y515627D02*
X1259837Y520706D01*
Y535941D02*
Y525784D01*
X1249681Y535941D01*
X1247142D01*
X1244603Y533402D01*
Y528323D01*
X1247142Y525784D01*
Y541019D02*
X1244603Y543558D01*
Y548637D01*
X1247142Y551176D01*
X1257298D01*
X1259837Y548637D01*
Y543558D01*
X1257298Y541019D01*
X1247142D01*
X1244603Y556254D02*
Y566411D01*
X1247142D01*
X1257298Y556254D01*
X1259837D01*
X850898Y1084589D02*
X835663D01*
Y1092207D01*
X838202Y1094746D01*
X843280D01*
X845819Y1092207D01*
Y1084589D01*
Y1089667D02*
X850898Y1094746D01*
Y1109981D02*
Y1099824D01*
X840741Y1109981D01*
X838202D01*
X835663Y1107442D01*
Y1102363D01*
X838202Y1099824D01*
Y1115059D02*
X835663Y1117598D01*
Y1122677D01*
X838202Y1125216D01*
X848358D01*
X850898Y1122677D01*
Y1117598D01*
X848358Y1115059D01*
X838202D01*
X835663Y1140451D02*
X838202Y1135373D01*
X843280Y1130294D01*
X848358D01*
X850898Y1132833D01*
Y1137912D01*
X848358Y1140451D01*
X845819D01*
X843280Y1137912D01*
Y1130294D01*
X850898Y853449D02*
X835663D01*
Y861067D01*
X838202Y863606D01*
X843280D01*
X845819Y861067D01*
Y853449D01*
Y858527D02*
X850898Y863606D01*
Y878841D02*
Y868684D01*
X840741Y878841D01*
X838202D01*
X835663Y876302D01*
Y871223D01*
X838202Y868684D01*
Y883919D02*
X835663Y886458D01*
Y891537D01*
X838202Y894076D01*
X848358D01*
X850898Y891537D01*
Y886458D01*
X848358Y883919D01*
X838202D01*
X835663Y909311D02*
Y899154D01*
X843280D01*
X840741Y904233D01*
Y906772D01*
X843280Y909311D01*
X848358D01*
X850898Y906772D01*
Y901693D01*
X848358Y899154D01*
X960129Y1305562D02*
Y1320797D01*
X967747D01*
X970286Y1318258D01*
Y1313180D01*
X967747Y1310641D01*
X960129D01*
X965207D02*
X970286Y1305562D01*
X985521D02*
X975364D01*
X985521Y1315719D01*
Y1318258D01*
X982982Y1320797D01*
X977903D01*
X975364Y1318258D01*
X990599D02*
X993138Y1320797D01*
X998217D01*
X1000756Y1318258D01*
Y1308102D01*
X998217Y1305562D01*
X993138D01*
X990599Y1308102D01*
Y1318258D01*
X1013452Y1305562D02*
Y1320797D01*
X1005834Y1313180D01*
X1015991D01*
X1330957Y1333509D02*
X1315723D01*
Y1341127D01*
X1318262Y1343666D01*
X1323340D01*
X1325879Y1341127D01*
Y1333509D01*
Y1338587D02*
X1330957Y1343666D01*
Y1358901D02*
Y1348744D01*
X1320801Y1358901D01*
X1318262D01*
X1315723Y1356362D01*
Y1351283D01*
X1318262Y1348744D01*
Y1363979D02*
X1315723Y1366518D01*
Y1371597D01*
X1318262Y1374136D01*
X1328418D01*
X1330957Y1371597D01*
Y1366518D01*
X1328418Y1363979D01*
X1318262D01*
Y1379214D02*
X1315723Y1381753D01*
Y1386832D01*
X1318262Y1389371D01*
X1320801D01*
X1323340Y1386832D01*
Y1384293D01*
Y1386832D01*
X1325879Y1389371D01*
X1328418D01*
X1330957Y1386832D01*
Y1381753D01*
X1328418Y1379214D01*
X1330957Y1104909D02*
X1315723D01*
Y1112527D01*
X1318262Y1115066D01*
X1323340D01*
X1325879Y1112527D01*
Y1104909D01*
Y1109987D02*
X1330957Y1115066D01*
Y1130301D02*
Y1120144D01*
X1320801Y1130301D01*
X1318262D01*
X1315723Y1127762D01*
Y1122683D01*
X1318262Y1120144D01*
Y1135379D02*
X1315723Y1137918D01*
Y1142997D01*
X1318262Y1145536D01*
X1328418D01*
X1330957Y1142997D01*
Y1137918D01*
X1328418Y1135379D01*
X1318262D01*
X1330957Y1160771D02*
Y1150614D01*
X1320801Y1160771D01*
X1318262D01*
X1315723Y1158232D01*
Y1153153D01*
X1318262Y1150614D01*
X1330957Y883928D02*
X1315723D01*
Y891546D01*
X1318262Y894085D01*
X1323340D01*
X1325879Y891546D01*
Y883928D01*
Y889007D02*
X1330957Y894085D01*
Y909320D02*
Y899163D01*
X1320801Y909320D01*
X1318262D01*
X1315723Y906781D01*
Y901702D01*
X1318262Y899163D01*
Y914398D02*
X1315723Y916938D01*
Y922016D01*
X1318262Y924555D01*
X1328418D01*
X1330957Y922016D01*
Y916938D01*
X1328418Y914398D01*
X1318262D01*
X1330957Y929633D02*
Y934712D01*
Y932173D01*
X1315723D01*
X1318262Y929633D01*
X1348746Y317498D02*
X1346207Y320037D01*
X1341128D01*
X1338589Y317498D01*
Y307342D01*
X1341128Y304802D01*
X1346207D01*
X1348746Y307342D01*
X1363981Y304802D02*
X1353824D01*
X1363981Y314959D01*
Y317498D01*
X1361442Y320037D01*
X1356363D01*
X1353824Y317498D01*
X1369059D02*
X1371598Y320037D01*
X1376677D01*
X1379216Y317498D01*
Y314959D01*
X1376677Y312420D01*
X1374138D01*
X1376677D01*
X1379216Y309881D01*
Y307342D01*
X1376677Y304802D01*
X1371598D01*
X1369059Y307342D01*
X1394451Y304802D02*
X1384294D01*
X1394451Y314959D01*
Y317498D01*
X1391912Y320037D01*
X1386833D01*
X1384294Y317498D01*
X1348745Y368298D02*
X1346206Y370838D01*
X1341127D01*
X1338588Y368298D01*
Y358142D01*
X1341127Y355602D01*
X1346206D01*
X1348745Y358142D01*
X1363980Y355602D02*
X1353823D01*
X1363980Y365759D01*
Y368298D01*
X1361441Y370838D01*
X1356362D01*
X1353823Y368298D01*
X1369058D02*
X1371598Y370838D01*
X1376676D01*
X1379215Y368298D01*
Y365759D01*
X1376676Y363220D01*
X1374137D01*
X1376676D01*
X1379215Y360681D01*
Y358142D01*
X1376676Y355602D01*
X1371598D01*
X1369058Y358142D01*
X1384293Y355602D02*
X1389372D01*
X1386833D01*
Y370838D01*
X1384293Y368298D01*
X1348746Y419098D02*
X1346207Y421637D01*
X1341128D01*
X1338589Y419098D01*
Y408942D01*
X1341128Y406403D01*
X1346207D01*
X1348746Y408942D01*
X1363981Y406403D02*
X1353824D01*
X1363981Y416559D01*
Y419098D01*
X1361442Y421637D01*
X1356363D01*
X1353824Y419098D01*
X1369059D02*
X1371598Y421637D01*
X1376677D01*
X1379216Y419098D01*
Y416559D01*
X1376677Y414020D01*
X1374138D01*
X1376677D01*
X1379216Y411481D01*
Y408942D01*
X1376677Y406403D01*
X1371598D01*
X1369059Y408942D01*
X1384294Y419098D02*
X1386833Y421637D01*
X1391912D01*
X1394451Y419098D01*
Y408942D01*
X1391912Y406403D01*
X1386833D01*
X1384294Y408942D01*
Y419098D01*
X1348746Y467358D02*
X1346207Y469897D01*
X1341128D01*
X1338589Y467358D01*
Y457202D01*
X1341128Y454663D01*
X1346207D01*
X1348746Y457202D01*
X1363981Y454663D02*
X1353824D01*
X1363981Y464819D01*
Y467358D01*
X1361442Y469897D01*
X1356363D01*
X1353824Y467358D01*
X1379216Y454663D02*
X1369059D01*
X1379216Y464819D01*
Y467358D01*
X1376677Y469897D01*
X1371598D01*
X1369059Y467358D01*
X1384294Y457202D02*
X1386833Y454663D01*
X1391912D01*
X1394451Y457202D01*
Y467358D01*
X1391912Y469897D01*
X1386833D01*
X1384294Y467358D01*
Y464819D01*
X1386833Y462280D01*
X1394451D01*
X1353826Y558798D02*
X1351287Y561338D01*
X1346208D01*
X1343669Y558798D01*
Y548642D01*
X1346208Y546102D01*
X1351287D01*
X1353826Y548642D01*
X1369061Y546102D02*
X1358904D01*
X1369061Y556259D01*
Y558798D01*
X1366522Y561338D01*
X1361443D01*
X1358904Y558798D01*
X1384296Y546102D02*
X1374139D01*
X1384296Y556259D01*
Y558798D01*
X1381757Y561338D01*
X1376678D01*
X1374139Y558798D01*
X1389374D02*
X1391913Y561338D01*
X1396992D01*
X1399531Y558798D01*
Y556259D01*
X1396992Y553720D01*
X1399531Y551181D01*
Y548642D01*
X1396992Y546102D01*
X1391913D01*
X1389374Y548642D01*
Y551181D01*
X1391913Y553720D01*
X1389374Y556259D01*
Y558798D01*
X1391913Y553720D02*
X1396992D01*
X1353826Y607058D02*
X1351287Y609598D01*
X1346208D01*
X1343669Y607058D01*
Y596902D01*
X1346208Y594362D01*
X1351287D01*
X1353826Y596902D01*
X1369061Y594362D02*
X1358904D01*
X1369061Y604519D01*
Y607058D01*
X1366522Y609598D01*
X1361443D01*
X1358904Y607058D01*
X1384296Y594362D02*
X1374139D01*
X1384296Y604519D01*
Y607058D01*
X1381757Y609598D01*
X1376678D01*
X1374139Y607058D01*
X1389374Y609598D02*
X1399531D01*
Y607058D01*
X1389374Y596902D01*
Y594362D01*
X1353826Y657858D02*
X1351287Y660397D01*
X1346208D01*
X1343669Y657858D01*
Y647702D01*
X1346208Y645163D01*
X1351287D01*
X1353826Y647702D01*
X1369061Y645163D02*
X1358904D01*
X1369061Y655319D01*
Y657858D01*
X1366522Y660397D01*
X1361443D01*
X1358904Y657858D01*
X1384296Y645163D02*
X1374139D01*
X1384296Y655319D01*
Y657858D01*
X1381757Y660397D01*
X1376678D01*
X1374139Y657858D01*
X1399531Y660397D02*
X1394453Y657858D01*
X1389374Y652780D01*
Y647702D01*
X1391913Y645163D01*
X1396992D01*
X1399531Y647702D01*
Y650241D01*
X1396992Y652780D01*
X1389374D01*
X1353826Y708658D02*
X1351287Y711198D01*
X1346208D01*
X1343669Y708658D01*
Y698502D01*
X1346208Y695963D01*
X1351287D01*
X1353826Y698502D01*
X1369061Y695963D02*
X1358904D01*
X1369061Y706119D01*
Y708658D01*
X1366522Y711198D01*
X1361443D01*
X1358904Y708658D01*
X1384296Y695963D02*
X1374139D01*
X1384296Y706119D01*
Y708658D01*
X1381757Y711198D01*
X1376678D01*
X1374139Y708658D01*
X1399531Y711198D02*
X1389374D01*
Y703580D01*
X1394453Y706119D01*
X1396992D01*
X1399531Y703580D01*
Y698502D01*
X1396992Y695963D01*
X1391913D01*
X1389374Y698502D01*
X734311Y1304032D02*
X731771Y1306571D01*
X726693D01*
X724154Y1304032D01*
Y1293875D01*
X726693Y1291336D01*
X731771D01*
X734311Y1293875D01*
X749546Y1291336D02*
X739389D01*
X749546Y1301493D01*
Y1304032D01*
X747007Y1306571D01*
X741928D01*
X739389Y1304032D01*
X764781Y1291336D02*
X754624D01*
X764781Y1301493D01*
Y1304032D01*
X762242Y1306571D01*
X757163D01*
X754624Y1304032D01*
X777477Y1291336D02*
Y1306571D01*
X769859Y1298954D01*
X780016D01*
X734311Y1253232D02*
X731771Y1255771D01*
X726693D01*
X724154Y1253232D01*
Y1243075D01*
X726693Y1240536D01*
X731771D01*
X734311Y1243075D01*
X749546Y1240536D02*
X739389D01*
X749546Y1250693D01*
Y1253232D01*
X747007Y1255771D01*
X741928D01*
X739389Y1253232D01*
X764781Y1240536D02*
X754624D01*
X764781Y1250693D01*
Y1253232D01*
X762242Y1255771D01*
X757163D01*
X754624Y1253232D01*
X769859D02*
X772398Y1255771D01*
X777477D01*
X780016Y1253232D01*
Y1250693D01*
X777477Y1248154D01*
X774938D01*
X777477D01*
X780016Y1245614D01*
Y1243075D01*
X777477Y1240536D01*
X772398D01*
X769859Y1243075D01*
X734311Y1202432D02*
X731771Y1204971D01*
X726693D01*
X724154Y1202432D01*
Y1192275D01*
X726693Y1189736D01*
X731771D01*
X734311Y1192275D01*
X749546Y1189736D02*
X739389D01*
X749546Y1199893D01*
Y1202432D01*
X747007Y1204971D01*
X741928D01*
X739389Y1202432D01*
X764781Y1189736D02*
X754624D01*
X764781Y1199893D01*
Y1202432D01*
X762242Y1204971D01*
X757163D01*
X754624Y1202432D01*
X780016Y1189736D02*
X769859D01*
X780016Y1199893D01*
Y1202432D01*
X777477Y1204971D01*
X772398D01*
X769859Y1202432D01*
X734311Y1151632D02*
X731771Y1154171D01*
X726693D01*
X724154Y1151632D01*
Y1141475D01*
X726693Y1138936D01*
X731771D01*
X734311Y1141475D01*
X749546Y1138936D02*
X739389D01*
X749546Y1149093D01*
Y1151632D01*
X747007Y1154171D01*
X741928D01*
X739389Y1151632D01*
X764781Y1138936D02*
X754624D01*
X764781Y1149093D01*
Y1151632D01*
X762242Y1154171D01*
X757163D01*
X754624Y1151632D01*
X769859Y1138936D02*
X774938D01*
X772398D01*
Y1154171D01*
X769859Y1151632D01*
X731771Y1075432D02*
X729231Y1077971D01*
X724153D01*
X721614Y1075432D01*
Y1065275D01*
X724153Y1062736D01*
X729231D01*
X731771Y1065275D01*
X747006Y1062736D02*
X736849D01*
X747006Y1072893D01*
Y1075432D01*
X744467Y1077971D01*
X739388D01*
X736849Y1075432D01*
X762241Y1062736D02*
X752084D01*
X762241Y1072893D01*
Y1075432D01*
X759702Y1077971D01*
X754623D01*
X752084Y1075432D01*
X767319D02*
X769858Y1077971D01*
X774937D01*
X777476Y1075432D01*
Y1065275D01*
X774937Y1062736D01*
X769858D01*
X767319Y1065275D01*
Y1075432D01*
X731771Y1024632D02*
X729231Y1027171D01*
X724153D01*
X721614Y1024632D01*
Y1014475D01*
X724153Y1011936D01*
X729231D01*
X731771Y1014475D01*
X747006Y1011936D02*
X736849D01*
X747006Y1022093D01*
Y1024632D01*
X744467Y1027171D01*
X739388D01*
X736849Y1024632D01*
X752084Y1011936D02*
X757162D01*
X754623D01*
Y1027171D01*
X752084Y1024632D01*
X764780Y1014475D02*
X767319Y1011936D01*
X772398D01*
X774937Y1014475D01*
Y1024632D01*
X772398Y1027171D01*
X767319D01*
X764780Y1024632D01*
Y1022093D01*
X767319Y1019554D01*
X774937D01*
X731771Y973832D02*
X729231Y976371D01*
X724153D01*
X721614Y973832D01*
Y963675D01*
X724153Y961136D01*
X729231D01*
X731771Y963675D01*
X747006Y961136D02*
X736849D01*
X747006Y971293D01*
Y973832D01*
X744467Y976371D01*
X739388D01*
X736849Y973832D01*
X752084Y961136D02*
X757162D01*
X754623D01*
Y976371D01*
X752084Y973832D01*
X764780D02*
X767319Y976371D01*
X772398D01*
X774937Y973832D01*
Y971293D01*
X772398Y968754D01*
X774937Y966214D01*
Y963675D01*
X772398Y961136D01*
X767319D01*
X764780Y963675D01*
Y966214D01*
X767319Y968754D01*
X764780Y971293D01*
Y973832D01*
X767319Y968754D02*
X772398D01*
X731771Y923032D02*
X729231Y925571D01*
X724153D01*
X721614Y923032D01*
Y912875D01*
X724153Y910336D01*
X729231D01*
X731771Y912875D01*
X747006Y910336D02*
X736849D01*
X747006Y920493D01*
Y923032D01*
X744467Y925571D01*
X739388D01*
X736849Y923032D01*
X752084Y910336D02*
X757162D01*
X754623D01*
Y925571D01*
X752084Y923032D01*
X764780Y925571D02*
X774937D01*
Y923032D01*
X764780Y912875D01*
Y910336D01*
X977902Y1385575D02*
X975362Y1383036D01*
Y1377958D01*
X977902Y1375419D01*
X988058D01*
X990598Y1377958D01*
Y1383036D01*
X988058Y1385575D01*
X990598Y1400810D02*
Y1390654D01*
X980441Y1400810D01*
X977902D01*
X975362Y1398271D01*
Y1393193D01*
X977902Y1390654D01*
X990598Y1405889D02*
Y1410967D01*
Y1408428D01*
X975362D01*
X977902Y1405889D01*
X975362Y1428741D02*
X977902Y1423663D01*
X982980Y1418585D01*
X988058D01*
X990598Y1421124D01*
Y1426202D01*
X988058Y1428741D01*
X985519D01*
X982980Y1426202D01*
Y1418585D01*
X1028702Y1385575D02*
X1026162Y1383036D01*
Y1377958D01*
X1028702Y1375419D01*
X1038858D01*
X1041397Y1377958D01*
Y1383036D01*
X1038858Y1385575D01*
X1041397Y1400810D02*
Y1390654D01*
X1031241Y1400810D01*
X1028702D01*
X1026162Y1398271D01*
Y1393193D01*
X1028702Y1390654D01*
X1041397Y1405889D02*
Y1410967D01*
Y1408428D01*
X1026162D01*
X1028702Y1405889D01*
X1026162Y1428741D02*
Y1418585D01*
X1033780D01*
X1031241Y1423663D01*
Y1426202D01*
X1033780Y1428741D01*
X1038858D01*
X1041397Y1426202D01*
Y1421124D01*
X1038858Y1418585D01*
X1079502Y1385575D02*
X1076963Y1383036D01*
Y1377958D01*
X1079502Y1375419D01*
X1089658D01*
X1092197Y1377958D01*
Y1383036D01*
X1089658Y1385575D01*
X1092197Y1400810D02*
Y1390654D01*
X1082041Y1400810D01*
X1079502D01*
X1076963Y1398271D01*
Y1393193D01*
X1079502Y1390654D01*
X1092197Y1405889D02*
Y1410967D01*
Y1408428D01*
X1076963D01*
X1079502Y1405889D01*
X1092197Y1426202D02*
X1076963D01*
X1084580Y1418585D01*
Y1428741D01*
X1130302Y1385575D02*
X1127763Y1383036D01*
Y1377958D01*
X1130302Y1375419D01*
X1140458D01*
X1142998Y1377958D01*
Y1383036D01*
X1140458Y1385575D01*
X1142998Y1400810D02*
Y1390654D01*
X1132841Y1400810D01*
X1130302D01*
X1127763Y1398271D01*
Y1393193D01*
X1130302Y1390654D01*
X1142998Y1405889D02*
Y1410967D01*
Y1408428D01*
X1127763D01*
X1130302Y1405889D01*
Y1418585D02*
X1127763Y1421124D01*
Y1426202D01*
X1130302Y1428741D01*
X1132841D01*
X1135380Y1426202D01*
Y1423663D01*
Y1426202D01*
X1137919Y1428741D01*
X1140458D01*
X1142998Y1426202D01*
Y1421124D01*
X1140458Y1418585D01*
X1413761Y1375152D02*
X1411221Y1377691D01*
X1406143D01*
X1403604Y1375152D01*
Y1364995D01*
X1406143Y1362456D01*
X1411221D01*
X1413761Y1364995D01*
X1428996Y1362456D02*
X1418839D01*
X1428996Y1372613D01*
Y1375152D01*
X1426457Y1377691D01*
X1421378D01*
X1418839Y1375152D01*
X1434074Y1362456D02*
X1439153D01*
X1436613D01*
Y1377691D01*
X1434074Y1375152D01*
X1456927Y1362456D02*
X1446770D01*
X1456927Y1372613D01*
Y1375152D01*
X1454388Y1377691D01*
X1449309D01*
X1446770Y1375152D01*
X1413761Y1324352D02*
X1411221Y1326891D01*
X1406143D01*
X1403604Y1324352D01*
Y1314195D01*
X1406143Y1311656D01*
X1411221D01*
X1413761Y1314195D01*
X1428996Y1311656D02*
X1418839D01*
X1428996Y1321813D01*
Y1324352D01*
X1426457Y1326891D01*
X1421378D01*
X1418839Y1324352D01*
X1434074Y1311656D02*
X1439153D01*
X1436613D01*
Y1326891D01*
X1434074Y1324352D01*
X1446770Y1311656D02*
X1451848D01*
X1449309D01*
Y1326891D01*
X1446770Y1324352D01*
X1413761Y1273552D02*
X1411221Y1276091D01*
X1406143D01*
X1403604Y1273552D01*
Y1263395D01*
X1406143Y1260856D01*
X1411221D01*
X1413761Y1263395D01*
X1428996Y1260856D02*
X1418839D01*
X1428996Y1271013D01*
Y1273552D01*
X1426457Y1276091D01*
X1421378D01*
X1418839Y1273552D01*
X1434074Y1260856D02*
X1439153D01*
X1436613D01*
Y1276091D01*
X1434074Y1273552D01*
X1446770D02*
X1449309Y1276091D01*
X1454388D01*
X1456927Y1273552D01*
Y1263395D01*
X1454388Y1260856D01*
X1449309D01*
X1446770Y1263395D01*
Y1273552D01*
X1413761Y1222752D02*
X1411221Y1225291D01*
X1406143D01*
X1403604Y1222752D01*
Y1212595D01*
X1406143Y1210056D01*
X1411221D01*
X1413761Y1212595D01*
X1428996Y1210056D02*
X1418839D01*
X1428996Y1220213D01*
Y1222752D01*
X1426457Y1225291D01*
X1421378D01*
X1418839Y1222752D01*
X1434074D02*
X1436613Y1225291D01*
X1441692D01*
X1444231Y1222752D01*
Y1212595D01*
X1441692Y1210056D01*
X1436613D01*
X1434074Y1212595D01*
Y1222752D01*
X1449309Y1212595D02*
X1451848Y1210056D01*
X1456927D01*
X1459466Y1212595D01*
Y1222752D01*
X1456927Y1225291D01*
X1451848D01*
X1449309Y1222752D01*
Y1220213D01*
X1451848Y1217673D01*
X1459466D01*
X1413761Y1146552D02*
X1411221Y1149091D01*
X1406143D01*
X1403604Y1146552D01*
Y1136395D01*
X1406143Y1133856D01*
X1411221D01*
X1413761Y1136395D01*
X1428996Y1133856D02*
X1418839D01*
X1428996Y1144013D01*
Y1146552D01*
X1426457Y1149091D01*
X1421378D01*
X1418839Y1146552D01*
X1434074D02*
X1436613Y1149091D01*
X1441692D01*
X1444231Y1146552D01*
Y1136395D01*
X1441692Y1133856D01*
X1436613D01*
X1434074Y1136395D01*
Y1146552D01*
X1449309D02*
X1451848Y1149091D01*
X1456927D01*
X1459466Y1146552D01*
Y1144013D01*
X1456927Y1141473D01*
X1459466Y1138934D01*
Y1136395D01*
X1456927Y1133856D01*
X1451848D01*
X1449309Y1136395D01*
Y1138934D01*
X1451848Y1141473D01*
X1449309Y1144013D01*
Y1146552D01*
X1451848Y1141473D02*
X1456927D01*
X1413761Y1095752D02*
X1411221Y1098291D01*
X1406143D01*
X1403604Y1095752D01*
Y1085595D01*
X1406143Y1083056D01*
X1411221D01*
X1413761Y1085595D01*
X1428996Y1083056D02*
X1418839D01*
X1428996Y1093213D01*
Y1095752D01*
X1426457Y1098291D01*
X1421378D01*
X1418839Y1095752D01*
X1434074D02*
X1436613Y1098291D01*
X1441692D01*
X1444231Y1095752D01*
Y1085595D01*
X1441692Y1083056D01*
X1436613D01*
X1434074Y1085595D01*
Y1095752D01*
X1449309Y1098291D02*
X1459466D01*
Y1095752D01*
X1449309Y1085595D01*
Y1083056D01*
X1413761Y1044952D02*
X1411221Y1047491D01*
X1406143D01*
X1403604Y1044952D01*
Y1034795D01*
X1406143Y1032256D01*
X1411221D01*
X1413761Y1034795D01*
X1428996Y1032256D02*
X1418839D01*
X1428996Y1042413D01*
Y1044952D01*
X1426457Y1047491D01*
X1421378D01*
X1418839Y1044952D01*
X1434074D02*
X1436613Y1047491D01*
X1441692D01*
X1444231Y1044952D01*
Y1034795D01*
X1441692Y1032256D01*
X1436613D01*
X1434074Y1034795D01*
Y1044952D01*
X1459466Y1047491D02*
X1454388Y1044952D01*
X1449309Y1039874D01*
Y1034795D01*
X1451848Y1032256D01*
X1456927D01*
X1459466Y1034795D01*
Y1037334D01*
X1456927Y1039874D01*
X1449309D01*
X1413761Y994152D02*
X1411221Y996691D01*
X1406143D01*
X1403604Y994152D01*
Y983995D01*
X1406143Y981456D01*
X1411221D01*
X1413761Y983995D01*
X1428996Y981456D02*
X1418839D01*
X1428996Y991613D01*
Y994152D01*
X1426457Y996691D01*
X1421378D01*
X1418839Y994152D01*
X1434074D02*
X1436613Y996691D01*
X1441692D01*
X1444231Y994152D01*
Y983995D01*
X1441692Y981456D01*
X1436613D01*
X1434074Y983995D01*
Y994152D01*
X1459466Y996691D02*
X1449309D01*
Y989073D01*
X1454388Y991613D01*
X1456927D01*
X1459466Y989073D01*
Y983995D01*
X1456927Y981456D01*
X1451848D01*
X1449309Y983995D01*
X1413761Y917952D02*
X1411221Y920491D01*
X1406143D01*
X1403604Y917952D01*
Y907795D01*
X1406143Y905256D01*
X1411221D01*
X1413761Y907795D01*
X1428996Y905256D02*
X1418839D01*
X1428996Y915413D01*
Y917952D01*
X1426457Y920491D01*
X1421378D01*
X1418839Y917952D01*
X1434074D02*
X1436613Y920491D01*
X1441692D01*
X1444231Y917952D01*
Y907795D01*
X1441692Y905256D01*
X1436613D01*
X1434074Y907795D01*
Y917952D01*
X1456927Y905256D02*
Y920491D01*
X1449309Y912874D01*
X1459466D01*
X1413761Y867152D02*
X1411221Y869691D01*
X1406143D01*
X1403604Y867152D01*
Y856995D01*
X1406143Y854456D01*
X1411221D01*
X1413761Y856995D01*
X1428996Y854456D02*
X1418839D01*
X1428996Y864613D01*
Y867152D01*
X1426457Y869691D01*
X1421378D01*
X1418839Y867152D01*
X1434074D02*
X1436613Y869691D01*
X1441692D01*
X1444231Y867152D01*
Y856995D01*
X1441692Y854456D01*
X1436613D01*
X1434074Y856995D01*
Y867152D01*
X1449309D02*
X1451848Y869691D01*
X1456927D01*
X1459466Y867152D01*
Y864613D01*
X1456927Y862074D01*
X1454388D01*
X1456927D01*
X1459466Y859534D01*
Y856995D01*
X1456927Y854456D01*
X1451848D01*
X1449309Y856995D01*
X1413761Y816352D02*
X1411221Y818891D01*
X1406143D01*
X1403604Y816352D01*
Y806195D01*
X1406143Y803656D01*
X1411221D01*
X1413761Y806195D01*
X1428996Y803656D02*
X1418839D01*
X1428996Y813813D01*
Y816352D01*
X1426457Y818891D01*
X1421378D01*
X1418839Y816352D01*
X1434074D02*
X1436613Y818891D01*
X1441692D01*
X1444231Y816352D01*
Y806195D01*
X1441692Y803656D01*
X1436613D01*
X1434074Y806195D01*
Y816352D01*
X1459466Y803656D02*
X1449309D01*
X1459466Y813813D01*
Y816352D01*
X1456927Y818891D01*
X1451848D01*
X1449309Y816352D01*
X1413761Y765552D02*
X1411221Y768091D01*
X1406143D01*
X1403604Y765552D01*
Y755395D01*
X1406143Y752856D01*
X1411221D01*
X1413761Y755395D01*
X1428996Y752856D02*
X1418839D01*
X1428996Y763013D01*
Y765552D01*
X1426457Y768091D01*
X1421378D01*
X1418839Y765552D01*
X1434074D02*
X1436613Y768091D01*
X1441692D01*
X1444231Y765552D01*
Y755395D01*
X1441692Y752856D01*
X1436613D01*
X1434074Y755395D01*
Y765552D01*
X1449309Y752856D02*
X1454388D01*
X1451848D01*
Y768091D01*
X1449309Y765552D01*
X250199Y297183D02*
Y312418D01*
X257816D01*
X260355Y309878D01*
Y304800D01*
X257816Y302261D01*
X250199D01*
X255277D02*
X260355Y297183D01*
X273051D02*
Y312418D01*
X265434Y304800D01*
X275590D01*
X280669Y297183D02*
X285747D01*
X283208D01*
Y312418D01*
X280669Y309878D01*
X303521Y312418D02*
X293365D01*
Y304800D01*
X298443Y307339D01*
X300982D01*
X303521Y304800D01*
Y299722D01*
X300982Y297183D01*
X295904D01*
X293365Y299722D01*
X439417Y471179D02*
X424183D01*
Y478796D01*
X426722Y481335D01*
X431800D01*
X434339Y478796D01*
Y471179D01*
Y476257D02*
X439417Y481335D01*
Y494031D02*
X424183D01*
X431800Y486414D01*
Y496570D01*
X439417Y501649D02*
Y506727D01*
Y504188D01*
X424183D01*
X426722Y501649D01*
X439417Y521962D02*
X424183D01*
X431800Y514345D01*
Y524501D01*
X414017Y471179D02*
X398783D01*
Y478796D01*
X401322Y481335D01*
X406400D01*
X408939Y478796D01*
Y471179D01*
Y476257D02*
X414017Y481335D01*
Y494031D02*
X398783D01*
X406400Y486414D01*
Y496570D01*
X414017Y501649D02*
Y506727D01*
Y504188D01*
X398783D01*
X401322Y501649D01*
Y514345D02*
X398783Y516884D01*
Y521962D01*
X401322Y524501D01*
X403861D01*
X406400Y521962D01*
Y519423D01*
Y521962D01*
X408939Y524501D01*
X411478D01*
X414017Y521962D01*
Y516884D01*
X411478Y514345D01*
X250199Y386082D02*
Y401317D01*
X257816D01*
X260355Y398778D01*
Y393700D01*
X257816Y391161D01*
X250199D01*
X255277D02*
X260355Y386082D01*
X273051D02*
Y401317D01*
X265434Y393700D01*
X275590D01*
X280669Y386082D02*
X285747D01*
X283208D01*
Y401317D01*
X280669Y398778D01*
X303521Y386082D02*
X293365D01*
X303521Y396239D01*
Y398778D01*
X300982Y401317D01*
X295904D01*
X293365Y398778D01*
X252738Y360682D02*
Y375918D01*
X260355D01*
X262894Y373378D01*
Y368300D01*
X260355Y365761D01*
X252738D01*
X257816D02*
X262894Y360682D01*
X275590D02*
Y375918D01*
X267973Y368300D01*
X278130D01*
X283208Y360682D02*
X288286D01*
X285747D01*
Y375918D01*
X283208Y373378D01*
X295904Y360682D02*
X300982D01*
X298443D01*
Y375918D01*
X295904Y373378D01*
X728982Y523231D02*
X744218D01*
Y515614D01*
X741678Y513075D01*
X736600D01*
X734061Y515614D01*
Y523231D01*
Y518153D02*
X728982Y513075D01*
Y500379D02*
X744218D01*
X736600Y507996D01*
Y497840D01*
X728982Y492761D02*
Y487683D01*
Y490222D01*
X744218D01*
X741678Y492761D01*
Y480065D02*
X744218Y477526D01*
Y472448D01*
X741678Y469909D01*
X731522D01*
X728982Y472448D01*
Y477526D01*
X731522Y480065D01*
X741678D01*
X703583Y524501D02*
X718818D01*
Y516883D01*
X716278Y514344D01*
X711200D01*
X708661Y516883D01*
Y524501D01*
Y519423D02*
X703583Y514344D01*
Y501648D02*
X718818D01*
X711200Y509266D01*
Y499109D01*
X716278Y494031D02*
X718818Y491492D01*
Y486413D01*
X716278Y483874D01*
X706122D01*
X703583Y486413D01*
Y491492D01*
X706122Y494031D01*
X716278D01*
X706122Y478796D02*
X703583Y476257D01*
Y471178D01*
X706122Y468639D01*
X716278D01*
X718818Y471178D01*
Y476257D01*
X716278Y478796D01*
X713739D01*
X711200Y476257D01*
Y468639D01*
X469902Y525771D02*
X485137D01*
Y518153D01*
X482598Y515614D01*
X477520D01*
X474981Y518153D01*
Y525771D01*
Y520693D02*
X469902Y515614D01*
Y502918D02*
X485137D01*
X477520Y510536D01*
Y500379D01*
X482598Y495301D02*
X485137Y492762D01*
Y487683D01*
X482598Y485144D01*
X472442D01*
X469902Y487683D01*
Y492762D01*
X472442Y495301D01*
X482598D01*
Y480066D02*
X485137Y477527D01*
Y472448D01*
X482598Y469909D01*
X480059D01*
X477520Y472448D01*
X474981Y469909D01*
X472442D01*
X469902Y472448D01*
Y477527D01*
X472442Y480066D01*
X474981D01*
X477520Y477527D01*
X480059Y480066D01*
X482598D01*
X477520Y477527D02*
Y472448D01*
X492762Y525771D02*
X507998D01*
Y518153D01*
X505458Y515614D01*
X500380D01*
X497841Y518153D01*
Y525771D01*
Y520693D02*
X492762Y515614D01*
Y502918D02*
X507998D01*
X500380Y510536D01*
Y500379D01*
X505458Y495301D02*
X507998Y492762D01*
Y487683D01*
X505458Y485144D01*
X495302D01*
X492762Y487683D01*
Y492762D01*
X495302Y495301D01*
X505458D01*
X507998Y480066D02*
Y469909D01*
X505458D01*
X495302Y480066D01*
X492762D01*
X515622Y525771D02*
X530858D01*
Y518153D01*
X528318Y515614D01*
X523240D01*
X520701Y518153D01*
Y525771D01*
Y520693D02*
X515622Y515614D01*
Y502918D02*
X530858D01*
X523240Y510536D01*
Y500379D01*
X528318Y495301D02*
X530858Y492762D01*
Y487683D01*
X528318Y485144D01*
X518162D01*
X515622Y487683D01*
Y492762D01*
X518162Y495301D01*
X528318D01*
X530858Y469909D02*
X528318Y474987D01*
X523240Y480066D01*
X518162D01*
X515622Y477527D01*
Y472448D01*
X518162Y469909D01*
X520701D01*
X523240Y472448D01*
Y480066D01*
X538483Y525771D02*
X553717D01*
Y518153D01*
X551178Y515614D01*
X546100D01*
X543561Y518153D01*
Y525771D01*
Y520693D02*
X538483Y515614D01*
Y502918D02*
X553717D01*
X546100Y510536D01*
Y500379D01*
X551178Y495301D02*
X553717Y492762D01*
Y487683D01*
X551178Y485144D01*
X541022D01*
X538483Y487683D01*
Y492762D01*
X541022Y495301D01*
X551178D01*
X553717Y469909D02*
Y480066D01*
X546100D01*
X548639Y474987D01*
Y472448D01*
X546100Y469909D01*
X541022D01*
X538483Y472448D01*
Y477527D01*
X541022Y480066D01*
X589282Y525771D02*
X604518D01*
Y518153D01*
X601978Y515614D01*
X596900D01*
X594361Y518153D01*
Y525771D01*
Y520693D02*
X589282Y515614D01*
Y502918D02*
X604518D01*
X596900Y510536D01*
Y500379D01*
X601978Y495301D02*
X604518Y492762D01*
Y487683D01*
X601978Y485144D01*
X591822D01*
X589282Y487683D01*
Y492762D01*
X591822Y495301D01*
X601978D01*
X589282Y472448D02*
X604518D01*
X596900Y480066D01*
Y469909D01*
X614683Y525771D02*
X629917D01*
Y518153D01*
X627378Y515614D01*
X622300D01*
X619761Y518153D01*
Y525771D01*
Y520693D02*
X614683Y515614D01*
Y502918D02*
X629917D01*
X622300Y510536D01*
Y500379D01*
X627378Y495301D02*
X629917Y492762D01*
Y487683D01*
X627378Y485144D01*
X617222D01*
X614683Y487683D01*
Y492762D01*
X617222Y495301D01*
X627378D01*
Y480066D02*
X629917Y477527D01*
Y472448D01*
X627378Y469909D01*
X624839D01*
X622300Y472448D01*
Y474987D01*
Y472448D01*
X619761Y469909D01*
X617222D01*
X614683Y472448D01*
Y477527D01*
X617222Y480066D01*
X640082Y525771D02*
X655318D01*
Y518153D01*
X652778Y515614D01*
X647700D01*
X645161Y518153D01*
Y525771D01*
Y520693D02*
X640082Y515614D01*
Y502918D02*
X655318D01*
X647700Y510536D01*
Y500379D01*
X652778Y495301D02*
X655318Y492762D01*
Y487683D01*
X652778Y485144D01*
X642622D01*
X640082Y487683D01*
Y492762D01*
X642622Y495301D01*
X652778D01*
X640082Y469909D02*
Y480066D01*
X650239Y469909D01*
X652778D01*
X655318Y472448D01*
Y477527D01*
X652778Y480066D01*
X665482Y525772D02*
X680717D01*
Y518154D01*
X678178Y515615D01*
X673100D01*
X670561Y518154D01*
Y525772D01*
Y520693D02*
X665482Y515615D01*
Y502919D02*
X680717D01*
X673100Y510537D01*
Y500380D01*
X678178Y495302D02*
X680717Y492762D01*
Y487684D01*
X678178Y485145D01*
X668022D01*
X665482Y487684D01*
Y492762D01*
X668022Y495302D01*
X678178D01*
X665482Y480067D02*
Y474988D01*
Y477527D01*
X680717D01*
X678178Y480067D01*
X579118Y516885D02*
Y527042D01*
X571500D01*
Y521963D01*
Y527042D01*
X563882D01*
Y504189D02*
X579118D01*
X571500Y511807D01*
Y501650D01*
X576578Y496572D02*
X579118Y494032D01*
Y488954D01*
X576578Y486415D01*
X566422D01*
X563882Y488954D01*
Y494032D01*
X566422Y496572D01*
X576578D01*
X563882Y481337D02*
Y476258D01*
Y478797D01*
X579118D01*
X576578Y481337D01*
X350518Y1106179D02*
X335283D01*
Y1113796D01*
X337822Y1116335D01*
X342900D01*
X345439Y1113796D01*
Y1106179D01*
Y1111257D02*
X350518Y1116335D01*
X337822Y1121414D02*
X335283Y1123953D01*
Y1129031D01*
X337822Y1131570D01*
X340361D01*
X342900Y1129031D01*
Y1126492D01*
Y1129031D01*
X345439Y1131570D01*
X347978D01*
X350518Y1129031D01*
Y1123953D01*
X347978Y1121414D01*
X350518Y1136649D02*
Y1141727D01*
Y1139188D01*
X335283D01*
X337822Y1136649D01*
X350518Y1159501D02*
Y1149345D01*
X340361Y1159501D01*
X337822D01*
X335283Y1156962D01*
Y1151884D01*
X337822Y1149345D01*
X325117Y1108718D02*
X309883D01*
Y1116335D01*
X312422Y1118875D01*
X317500D01*
X320039Y1116335D01*
Y1108718D01*
Y1113796D02*
X325117Y1118875D01*
X312422Y1123953D02*
X309883Y1126492D01*
Y1131570D01*
X312422Y1134110D01*
X314961D01*
X317500Y1131570D01*
Y1129031D01*
Y1131570D01*
X320039Y1134110D01*
X322578D01*
X325117Y1131570D01*
Y1126492D01*
X322578Y1123953D01*
X325117Y1139188D02*
Y1144266D01*
Y1141727D01*
X309883D01*
X312422Y1139188D01*
X325117Y1151884D02*
Y1156962D01*
Y1154423D01*
X309883D01*
X312422Y1151884D01*
X441969Y881383D02*
Y896618D01*
X449587D01*
X452126Y894078D01*
Y889000D01*
X449587Y886461D01*
X441969D01*
X447047D02*
X452126Y881383D01*
X457204Y894078D02*
X459743Y896618D01*
X464822D01*
X467361Y894078D01*
Y891539D01*
X464822Y889000D01*
X462282D01*
X464822D01*
X467361Y886461D01*
Y883922D01*
X464822Y881383D01*
X459743D01*
X457204Y883922D01*
X472439Y894078D02*
X474978Y896618D01*
X480057D01*
X482596Y894078D01*
Y883922D01*
X480057Y881383D01*
X474978D01*
X472439Y883922D01*
Y894078D01*
X487674D02*
X490213Y896618D01*
X495292D01*
X497831Y894078D01*
Y891539D01*
X495292Y889000D01*
X497831Y886461D01*
Y883922D01*
X495292Y881383D01*
X490213D01*
X487674Y883922D01*
Y886461D01*
X490213Y889000D01*
X487674Y891539D01*
Y894078D01*
X490213Y889000D02*
X495292D01*
X441969Y855983D02*
Y871217D01*
X449587D01*
X452126Y868678D01*
Y863600D01*
X449587Y861061D01*
X441969D01*
X447047D02*
X452126Y855983D01*
X457204Y868678D02*
X459743Y871217D01*
X464822D01*
X467361Y868678D01*
Y866139D01*
X464822Y863600D01*
X462282D01*
X464822D01*
X467361Y861061D01*
Y858522D01*
X464822Y855983D01*
X459743D01*
X457204Y858522D01*
X472439Y868678D02*
X474978Y871217D01*
X480057D01*
X482596Y868678D01*
Y858522D01*
X480057Y855983D01*
X474978D01*
X472439Y858522D01*
Y868678D01*
X487674Y871217D02*
X497831D01*
Y868678D01*
X487674Y858522D01*
Y855983D01*
X441969Y830583D02*
Y845817D01*
X449587D01*
X452126Y843278D01*
Y838200D01*
X449587Y835661D01*
X441969D01*
X447047D02*
X452126Y830583D01*
X457204Y843278D02*
X459743Y845817D01*
X464822D01*
X467361Y843278D01*
Y840739D01*
X464822Y838200D01*
X462282D01*
X464822D01*
X467361Y835661D01*
Y833122D01*
X464822Y830583D01*
X459743D01*
X457204Y833122D01*
X472439Y843278D02*
X474978Y845817D01*
X480057D01*
X482596Y843278D01*
Y833122D01*
X480057Y830583D01*
X474978D01*
X472439Y833122D01*
Y843278D01*
X497831Y845817D02*
X492753Y843278D01*
X487674Y838200D01*
Y833122D01*
X490213Y830583D01*
X495292D01*
X497831Y833122D01*
Y835661D01*
X495292Y838200D01*
X487674D01*
X441969Y805182D02*
Y820417D01*
X449587D01*
X452126Y817878D01*
Y812800D01*
X449587Y810261D01*
X441969D01*
X447047D02*
X452126Y805182D01*
X457204Y817878D02*
X459743Y820417D01*
X464822D01*
X467361Y817878D01*
Y815339D01*
X464822Y812800D01*
X462282D01*
X464822D01*
X467361Y810261D01*
Y807722D01*
X464822Y805182D01*
X459743D01*
X457204Y807722D01*
X472439Y817878D02*
X474978Y820417D01*
X480057D01*
X482596Y817878D01*
Y807722D01*
X480057Y805182D01*
X474978D01*
X472439Y807722D01*
Y817878D01*
X497831Y820417D02*
X487674D01*
Y812800D01*
X492753Y815339D01*
X495292D01*
X497831Y812800D01*
Y807722D01*
X495292Y805182D01*
X490213D01*
X487674Y807722D01*
X885441Y1320287D02*
X880362D01*
X882902D01*
Y1307591D01*
X880362Y1305052D01*
X877823D01*
X875284Y1307591D01*
X900676Y1305052D02*
X890519D01*
X900676Y1315209D01*
Y1317748D01*
X898137Y1320287D01*
X893058D01*
X890519Y1317748D01*
X905754D02*
X908293Y1320287D01*
X913372D01*
X915911Y1317748D01*
Y1307591D01*
X913372Y1305052D01*
X908293D01*
X905754Y1307591D01*
Y1317748D01*
X920989D02*
X923528Y1320287D01*
X928607D01*
X931146Y1317748D01*
Y1315209D01*
X928607Y1312670D01*
X926068D01*
X928607D01*
X931146Y1310130D01*
Y1307591D01*
X928607Y1305052D01*
X923528D01*
X920989Y1307591D01*
X445779Y589282D02*
Y604518D01*
X453396D01*
X455935Y601978D01*
Y596900D01*
X453396Y594361D01*
X445779D01*
X450857D02*
X455935Y589282D01*
X461014Y601978D02*
X463553Y604518D01*
X468631D01*
X471170Y601978D01*
Y599439D01*
X468631Y596900D01*
X466092D01*
X468631D01*
X471170Y594361D01*
Y591822D01*
X468631Y589282D01*
X463553D01*
X461014Y591822D01*
X476249Y589282D02*
X481327D01*
X478788D01*
Y604518D01*
X476249Y601978D01*
X488945D02*
X491484Y604518D01*
X496562D01*
X499101Y601978D01*
Y591822D01*
X496562Y589282D01*
X491484D01*
X488945Y591822D01*
Y601978D01*
X726448Y380998D02*
X736605Y365762D01*
Y380998D02*
X726448Y365762D01*
X749301D02*
Y380998D01*
X741683Y373380D01*
X751840D01*
X756918Y378458D02*
X759458Y380998D01*
X764536D01*
X767075Y378458D01*
Y368302D01*
X764536Y365762D01*
X759458D01*
X756918Y368302D01*
Y378458D01*
X772153Y365762D02*
X777232D01*
X774693D01*
Y380998D01*
X772153Y378458D01*
X848362Y434026D02*
X845823Y431487D01*
Y426408D01*
X848362Y423869D01*
X858518D01*
X861058Y426408D01*
Y431487D01*
X858518Y434026D01*
X861058Y449261D02*
Y439104D01*
X850901Y449261D01*
X848362D01*
X845823Y446722D01*
Y441643D01*
X848362Y439104D01*
Y454339D02*
X845823Y456878D01*
Y461957D01*
X848362Y464496D01*
X850901D01*
X853440Y461957D01*
Y459417D01*
Y461957D01*
X855979Y464496D01*
X858518D01*
X861058Y461957D01*
Y456878D01*
X858518Y454339D01*
X848362Y469574D02*
X845823Y472113D01*
Y477192D01*
X848362Y479731D01*
X850901D01*
X853440Y477192D01*
Y474653D01*
Y477192D01*
X855979Y479731D01*
X858518D01*
X861058Y477192D01*
Y472113D01*
X858518Y469574D01*
X454665Y787398D02*
X444508D01*
Y779780D01*
X449587D01*
X444508D01*
Y772162D01*
X459743Y784858D02*
X462282Y787398D01*
X467361D01*
X469900Y784858D01*
Y782319D01*
X467361Y779780D01*
X464822D01*
X467361D01*
X469900Y777241D01*
Y774702D01*
X467361Y772162D01*
X462282D01*
X459743Y774702D01*
X474978Y784858D02*
X477518Y787398D01*
X482596D01*
X485135Y784858D01*
Y774702D01*
X482596Y772162D01*
X477518D01*
X474978Y774702D01*
Y784858D01*
X490213Y772162D02*
X495292D01*
X492753D01*
Y787398D01*
X490213Y784858D01*
X279398Y1103639D02*
X264163D01*
Y1111256D01*
X266702Y1113795D01*
X271780D01*
X274319Y1111256D01*
Y1103639D01*
Y1108717D02*
X279398Y1113795D01*
X266702Y1118874D02*
X264163Y1121413D01*
Y1126491D01*
X266702Y1129030D01*
X269241D01*
X271780Y1126491D01*
Y1123952D01*
Y1126491D01*
X274319Y1129030D01*
X276858D01*
X279398Y1126491D01*
Y1121413D01*
X276858Y1118874D01*
X279398Y1134109D02*
Y1139187D01*
Y1136648D01*
X264163D01*
X266702Y1134109D01*
X264163Y1156961D02*
Y1146805D01*
X271780D01*
X269241Y1151883D01*
Y1154422D01*
X271780Y1156961D01*
X276858D01*
X279398Y1154422D01*
Y1149344D01*
X276858Y1146805D01*
X443239Y957582D02*
Y972818D01*
X450856D01*
X453395Y970278D01*
Y965200D01*
X450856Y962661D01*
X443239D01*
X448317D02*
X453395Y957582D01*
X458474Y970278D02*
X461013Y972818D01*
X466091D01*
X468630Y970278D01*
Y967739D01*
X466091Y965200D01*
X463552D01*
X466091D01*
X468630Y962661D01*
Y960122D01*
X466091Y957582D01*
X461013D01*
X458474Y960122D01*
X473709Y957582D02*
X478787D01*
X476248D01*
Y972818D01*
X473709Y970278D01*
X494022Y957582D02*
Y972818D01*
X486405Y965200D01*
X496561D01*
X443239Y982982D02*
Y998217D01*
X450856D01*
X453395Y995678D01*
Y990600D01*
X450856Y988061D01*
X443239D01*
X448317D02*
X453395Y982982D01*
X458474Y995678D02*
X461013Y998217D01*
X466091D01*
X468630Y995678D01*
Y993139D01*
X466091Y990600D01*
X463552D01*
X466091D01*
X468630Y988061D01*
Y985522D01*
X466091Y982982D01*
X461013D01*
X458474Y985522D01*
X473709Y982982D02*
X478787D01*
X476248D01*
Y998217D01*
X473709Y995678D01*
X486405D02*
X488944Y998217D01*
X494022D01*
X496561Y995678D01*
Y993139D01*
X494022Y990600D01*
X491483D01*
X494022D01*
X496561Y988061D01*
Y985522D01*
X494022Y982982D01*
X488944D01*
X486405Y985522D01*
X444509Y614683D02*
Y629917D01*
X452127D01*
X454666Y627378D01*
Y622300D01*
X452127Y619761D01*
X444509D01*
X449587D02*
X454666Y614683D01*
X459744Y627378D02*
X462283Y629917D01*
X467362D01*
X469901Y627378D01*
Y624839D01*
X467362Y622300D01*
X464823D01*
X467362D01*
X469901Y619761D01*
Y617222D01*
X467362Y614683D01*
X462283D01*
X459744Y617222D01*
X474979Y627378D02*
X477518Y629917D01*
X482597D01*
X485136Y627378D01*
Y617222D01*
X482597Y614683D01*
X477518D01*
X474979Y617222D01*
Y627378D01*
X490214Y617222D02*
X492753Y614683D01*
X497832D01*
X500371Y617222D01*
Y627378D01*
X497832Y629917D01*
X492753D01*
X490214Y627378D01*
Y624839D01*
X492753Y622300D01*
X500371D01*
X1089654Y664212D02*
X1094733D01*
X1092193D01*
Y676908D01*
X1094733Y679447D01*
X1097272D01*
X1099811Y676908D01*
X1074419Y679447D02*
X1084576D01*
X1074419Y669291D01*
Y666752D01*
X1076958Y664212D01*
X1082037D01*
X1084576Y666752D01*
X1069341D02*
X1066802Y664212D01*
X1061723D01*
X1059184Y666752D01*
Y676908D01*
X1061723Y679447D01*
X1066802D01*
X1069341Y676908D01*
Y666752D01*
X1043949Y679447D02*
X1054106D01*
X1043949Y669291D01*
Y666752D01*
X1046488Y664212D01*
X1051567D01*
X1054106Y666752D01*
X441969Y741683D02*
Y756917D01*
X449587D01*
X452126Y754378D01*
Y749300D01*
X449587Y746761D01*
X441969D01*
X447047D02*
X452126Y741683D01*
X457204Y754378D02*
X459743Y756917D01*
X464822D01*
X467361Y754378D01*
Y751839D01*
X464822Y749300D01*
X462282D01*
X464822D01*
X467361Y746761D01*
Y744222D01*
X464822Y741683D01*
X459743D01*
X457204Y744222D01*
X472439Y754378D02*
X474978Y756917D01*
X480057D01*
X482596Y754378D01*
Y744222D01*
X480057Y741683D01*
X474978D01*
X472439Y744222D01*
Y754378D01*
X495292Y741683D02*
Y756917D01*
X487674Y749300D01*
X497831D01*
X441969Y716283D02*
Y731517D01*
X449587D01*
X452126Y728978D01*
Y723900D01*
X449587Y721361D01*
X441969D01*
X447047D02*
X452126Y716283D01*
X457204Y728978D02*
X459743Y731517D01*
X464822D01*
X467361Y728978D01*
Y726439D01*
X464822Y723900D01*
X462282D01*
X464822D01*
X467361Y721361D01*
Y718822D01*
X464822Y716283D01*
X459743D01*
X457204Y718822D01*
X472439Y728978D02*
X474978Y731517D01*
X480057D01*
X482596Y728978D01*
Y718822D01*
X480057Y716283D01*
X474978D01*
X472439Y718822D01*
Y728978D01*
X487674D02*
X490213Y731517D01*
X495292D01*
X497831Y728978D01*
Y726439D01*
X495292Y723900D01*
X492753D01*
X495292D01*
X497831Y721361D01*
Y718822D01*
X495292Y716283D01*
X490213D01*
X487674Y718822D01*
X441969Y690882D02*
Y706117D01*
X449587D01*
X452126Y703578D01*
Y698500D01*
X449587Y695961D01*
X441969D01*
X447047D02*
X452126Y690882D01*
X457204Y703578D02*
X459743Y706117D01*
X464822D01*
X467361Y703578D01*
Y701039D01*
X464822Y698500D01*
X462282D01*
X464822D01*
X467361Y695961D01*
Y693422D01*
X464822Y690882D01*
X459743D01*
X457204Y693422D01*
X472439Y703578D02*
X474978Y706117D01*
X480057D01*
X482596Y703578D01*
Y693422D01*
X480057Y690882D01*
X474978D01*
X472439Y693422D01*
Y703578D01*
X497831Y690882D02*
X487674D01*
X497831Y701039D01*
Y703578D01*
X495292Y706117D01*
X490213D01*
X487674Y703578D01*
X444508Y665482D02*
Y680717D01*
X452126D01*
X454665Y678178D01*
Y673100D01*
X452126Y670561D01*
X444508D01*
X449587D02*
X454665Y665482D01*
X459743Y678178D02*
X462282Y680717D01*
X467361D01*
X469900Y678178D01*
Y675639D01*
X467361Y673100D01*
X464822D01*
X467361D01*
X469900Y670561D01*
Y668022D01*
X467361Y665482D01*
X462282D01*
X459743Y668022D01*
X474978Y678178D02*
X477518Y680717D01*
X482596D01*
X485135Y678178D01*
Y668022D01*
X482596Y665482D01*
X477518D01*
X474978Y668022D01*
Y678178D01*
X490213Y665482D02*
X495292D01*
X492753D01*
Y680717D01*
X490213Y678178D01*
X144780Y991611D02*
X154937Y976376D01*
Y991611D02*
X144780Y976376D01*
X160015Y989072D02*
X162554Y991611D01*
X167633D01*
X170172Y989072D01*
Y986533D01*
X167633Y983994D01*
X165093D01*
X167633D01*
X170172Y981454D01*
Y978915D01*
X167633Y976376D01*
X162554D01*
X160015Y978915D01*
X175250Y989072D02*
X177789Y991611D01*
X182868D01*
X185407Y989072D01*
Y978915D01*
X182868Y976376D01*
X177789D01*
X175250Y978915D01*
Y989072D01*
X190485Y976376D02*
X195564D01*
X193024D01*
Y991611D01*
X190485Y989072D01*
D12*
X840300Y454500D02*
G03*
X840300Y454500I-27500J0D01*
G01*
X767850Y254480D02*
Y268480D01*
X749300Y254480D02*
X767850D01*
X749300Y179480D02*
Y254480D01*
X406400Y179480D02*
X749300D01*
X406400D02*
Y254480D01*
X387850D02*
X406400D01*
X387850D02*
Y268480D01*
X406400Y254480D02*
X749300D01*
X387850Y348480D02*
X457850D01*
X387850Y296480D02*
Y348480D01*
X712850D02*
X767850D01*
Y298480D02*
Y348480D01*
X227810Y578350D02*
X241810D01*
X227810D02*
Y596900D01*
X152810D02*
X227810D01*
X152810D02*
Y939800D01*
X227810D01*
Y958350D01*
X241810D01*
X227810Y596900D02*
Y939800D01*
X321810Y888350D02*
Y958350D01*
X269810D02*
X321810D01*
Y578350D02*
Y633350D01*
X271810Y578350D02*
X321810D01*
X1160430Y474930D02*
X1184530D01*
Y835630D01*
X1160430Y474930D02*
Y835630D01*
X1184530D01*
X957230D02*
X981330D01*
Y474930D02*
Y835630D01*
X957230Y474930D02*
X981330D01*
X957230D02*
Y835630D01*
D13*
X795020Y515620D02*
X830580D01*
Y601980D01*
X795020D02*
X830580D01*
X795020Y515620D02*
Y601980D01*
X525780Y789940D02*
X561340D01*
X525780Y703580D02*
Y789940D01*
Y703580D02*
X561340D01*
Y789940D01*
X571500D02*
X607060D01*
X571500Y703580D02*
Y789940D01*
Y703580D02*
X607060D01*
Y789940D01*
X617220D02*
X652780D01*
X617220Y703580D02*
Y789940D01*
Y703580D02*
X652780D01*
Y789940D01*
X662940D02*
X698500D01*
X662940Y703580D02*
Y789940D01*
Y703580D02*
X698500D01*
Y789940D01*
X1270000Y271780D02*
Y467360D01*
Y271780D02*
X1310640D01*
Y485140D01*
X1270000D02*
X1310640D01*
X1270000Y467360D02*
Y485140D01*
Y513080D02*
Y708660D01*
Y513080D02*
X1310640D01*
Y726440D01*
X1270000D02*
X1310640D01*
X1270000Y708660D02*
Y726440D01*
X822960Y1097280D02*
Y1292860D01*
X782320D02*
X822960D01*
X782320Y1079500D02*
Y1292860D01*
Y1079500D02*
X822960D01*
Y1097280D01*
Y868680D02*
Y1064260D01*
X782320D02*
X822960D01*
X782320Y850900D02*
Y1064260D01*
Y850900D02*
X822960D01*
Y868680D01*
X960120Y1366520D02*
X1155700D01*
X960120Y1325880D02*
Y1366520D01*
Y1325880D02*
X1173480D01*
Y1366520D01*
X1155700D02*
X1173480D01*
X1379220Y1193800D02*
Y1389380D01*
X1338580D02*
X1379220D01*
X1338580Y1176020D02*
Y1389380D01*
Y1176020D02*
X1379220D01*
Y1193800D01*
Y965200D02*
Y1160780D01*
X1338580D02*
X1379220D01*
X1338580Y947420D02*
Y1160780D01*
Y947420D02*
X1379220D01*
Y965200D01*
Y736600D02*
Y932180D01*
X1338580D02*
X1379220D01*
X1338580Y718820D02*
Y932180D01*
Y718820D02*
X1379220D01*
Y736600D01*
X812800Y685800D02*
Y800100D01*
X711200D02*
X812800D01*
X711200D02*
Y906780D01*
X508000D02*
X711200D01*
X381000Y797560D02*
X391160D01*
X375920Y901700D02*
X391160D01*
X375920Y797560D02*
Y901700D01*
Y797560D02*
X381000D01*
X375920Y660400D02*
X391160D01*
X375920D02*
Y762000D01*
X391160D01*
X337820Y820420D02*
X368300D01*
X360680Y828040D02*
X368300Y820420D01*
X360680Y812800D02*
X368300Y820420D01*
X337997Y685973D02*
X345617Y693593D01*
X337997Y685973D02*
X345617Y678353D01*
X337997Y685973D02*
X368477D01*
X655147Y363397D02*
Y393877D01*
Y363397D02*
X662767Y371017D01*
X647527D02*
X655147Y363397D01*
X533400Y393700D02*
X541020Y386080D01*
X525780D02*
X533400Y393700D01*
Y363220D02*
Y393700D01*
X584200Y408940D02*
Y416560D01*
Y401320D02*
Y408940D01*
Y401320D02*
X685800D01*
Y416560D01*
X558800Y401320D02*
Y416560D01*
X464820Y401320D02*
X558800D01*
X464820D02*
Y416560D01*
X508000Y685800D02*
X812800D01*
X508000D02*
Y906780D01*
D14*
X331470Y312420D02*
X345440D01*
X331470Y297180D02*
X345440D01*
X439420Y429260D02*
Y443230D01*
X424180Y429260D02*
Y443230D01*
X414020Y429260D02*
Y443230D01*
X398780Y429260D02*
Y443230D01*
X331470Y401320D02*
X345440D01*
X331470Y386080D02*
X345440D01*
X331470Y375920D02*
X345440D01*
X331470Y360680D02*
X345440D01*
X744220Y430530D02*
Y444500D01*
X728980Y430530D02*
Y444500D01*
X718820Y430530D02*
Y444500D01*
X703580Y430530D02*
Y444500D01*
X485140Y431800D02*
Y445770D01*
X469900Y431800D02*
Y445770D01*
X508000Y431800D02*
Y445770D01*
X492760Y431800D02*
Y445770D01*
X530860Y431800D02*
Y445770D01*
X515620Y431800D02*
Y445770D01*
X553720Y431800D02*
Y445770D01*
X538480Y431800D02*
Y445770D01*
X604520Y431800D02*
Y445770D01*
X589280Y431800D02*
Y445770D01*
X629920Y431800D02*
Y445770D01*
X614680Y431800D02*
Y445770D01*
X655320Y431800D02*
Y445770D01*
X640080Y431800D02*
Y445770D01*
X680720Y431800D02*
Y445770D01*
X665480Y431800D02*
Y445770D01*
X279400Y1064260D02*
Y1078230D01*
X264160Y1064260D02*
Y1078230D01*
X403860Y957580D02*
X417830D01*
X403860Y972820D02*
X417830D01*
X403860Y982980D02*
X417830D01*
X403860Y998220D02*
X417830D01*
X350520Y1064260D02*
Y1078230D01*
X335280Y1064260D02*
Y1078230D01*
X325120Y1064260D02*
Y1078230D01*
X309880Y1064260D02*
Y1078230D01*
X403860Y589280D02*
X417830D01*
X403860Y604520D02*
X417830D01*
X403860Y614680D02*
X417830D01*
X403860Y629920D02*
X417830D01*
X403860Y881380D02*
X417830D01*
X403860Y896620D02*
X417830D01*
X403860Y855980D02*
X417830D01*
X403860Y871220D02*
X417830D01*
X403860Y830580D02*
X417830D01*
X403860Y845820D02*
X417830D01*
X403860Y805180D02*
X417830D01*
X403860Y820420D02*
X417830D01*
X403860Y741680D02*
X417830D01*
X403860Y756920D02*
X417830D01*
X403860Y716280D02*
X417830D01*
X403860Y731520D02*
X417830D01*
X403860Y690880D02*
X417830D01*
X403860Y706120D02*
X417830D01*
X403860Y665480D02*
X417830D01*
X403860Y680720D02*
X417830D01*
X579120Y433070D02*
Y447040D01*
X563880Y433070D02*
Y447040D01*
X403860Y772160D02*
X417830D01*
X403860Y787400D02*
X417830D01*
X1353820Y297180D02*
X1367790D01*
X1353820Y281940D02*
X1367790D01*
X1353820Y347980D02*
X1367790D01*
X1353820Y332740D02*
X1367790D01*
X1353820Y398780D02*
X1367790D01*
X1353820Y383540D02*
X1367790D01*
X1353820Y449580D02*
X1367790D01*
X1353820Y434340D02*
X1367790D01*
X1356360Y538480D02*
X1370330D01*
X1356360Y523240D02*
X1370330D01*
X1356360Y589280D02*
X1370330D01*
X1356360Y574040D02*
X1370330D01*
X1356360Y640080D02*
X1370330D01*
X1356360Y624840D02*
X1370330D01*
X1356360Y690880D02*
X1370330D01*
X1356360Y675640D02*
X1370330D01*
X740410Y1267460D02*
X754380D01*
X740410Y1282700D02*
X754380D01*
X740410Y1216660D02*
X754380D01*
X740410Y1231900D02*
X754380D01*
X740410Y1165860D02*
X754380D01*
X740410Y1181100D02*
X754380D01*
X740410Y1115060D02*
X754380D01*
X740410Y1130300D02*
X754380D01*
X737870Y1038860D02*
X751840D01*
X737870Y1054100D02*
X751840D01*
X737870Y988060D02*
X751840D01*
X737870Y1003300D02*
X751840D01*
X737870Y937260D02*
X751840D01*
X737870Y952500D02*
X751840D01*
X737870Y886460D02*
X751840D01*
X737870Y901700D02*
X751840D01*
X1010920Y1394460D02*
Y1408430D01*
X995680Y1394460D02*
Y1408430D01*
X1061720Y1394460D02*
Y1408430D01*
X1046480Y1394460D02*
Y1408430D01*
X1112520Y1394460D02*
Y1408430D01*
X1097280Y1394460D02*
Y1408430D01*
X1163320Y1394460D02*
Y1408430D01*
X1148080Y1394460D02*
Y1408430D01*
X1419860Y1338580D02*
X1433830D01*
X1419860Y1353820D02*
X1433830D01*
X1419860Y1287780D02*
X1433830D01*
X1419860Y1303020D02*
X1433830D01*
X1419860Y1236980D02*
X1433830D01*
X1419860Y1252220D02*
X1433830D01*
X1419860Y1186180D02*
X1433830D01*
X1419860Y1201420D02*
X1433830D01*
X1419860Y1109980D02*
X1433830D01*
X1419860Y1125220D02*
X1433830D01*
X1419860Y1059180D02*
X1433830D01*
X1419860Y1074420D02*
X1433830D01*
X1419860Y1008380D02*
X1433830D01*
X1419860Y1023620D02*
X1433830D01*
X1419860Y957580D02*
X1433830D01*
X1419860Y972820D02*
X1433830D01*
X1419860Y881380D02*
X1433830D01*
X1419860Y896620D02*
X1433830D01*
X1419860Y830580D02*
X1433830D01*
X1419860Y845820D02*
X1433830D01*
X1419860Y779780D02*
X1433830D01*
X1419860Y795020D02*
X1433830D01*
X1419860Y728980D02*
X1433830D01*
X1419860Y744220D02*
X1433830D01*
M02*
