M48
;Layer_Color=9474304
;FILE_FORMAT=4:4
METRIC,LZ
;TYPE=PLATED
T01F00S00C0.7000
T02F00S00C0.7112
T03F00S00C0.8000
T04F00S00C1.0000
T05F00S00C1.0160
T06F00S00C1.0400
T07F00S00C2.2000
T08F00S00C4.0000
%
T01
X008128Y004445
Y004645
T02
X0037592Y003048
X005715Y0037338
X011684Y003683
X012319Y007112
Y007493
Y007874
X0109728Y0071882
Y0069342
X01064874Y00731745
X0102362Y0064262
X01016Y00585764
Y005461
Y00508
X0105414Y0049018
X0099568Y0042164
X0096774
X009271Y004953
X009017
X008763
X009017Y0065532
X0090932Y0069596
X008382Y006985
X008255Y0065532
X008001Y006731
Y00635
Y0061468
X011684Y004445
Y004064
X0075946Y0043942
X007747Y004953
Y005207
X0075438Y00508
X007112Y004826
X0071374Y005461
X0068834
X0066294
X00635
Y0065532
X0068072
X0058928
X0054356
X0045466Y0053086
Y0050546
Y0048006
Y0045466
X003556Y005334
X003683Y005588
X003429
X0027178Y010287
X004318Y010541
X004699
X00508
X004953Y009271
X004572
X004191
X0049784Y00889
X0048006Y008636
X0045974Y008382
X004445Y008128
X005715Y008382
Y008636
X006096Y008382
X007366Y008001
X0083312Y0079502
X0084836Y0081026
X01016Y009017
X010541
X010922
X011303
X012192Y013208
X012573
X012446Y013462
X012065
X011049Y012319
X010668
X010287
X010414Y011938
X010922
X009144Y013843
X008636
X008128
T03
X004572Y0028448
X004826
X00508
X005334
X005588
X005842
X006096
X00635
X006604
X006858
X006985Y0030353
X006731
X006477
X006223
X005969
X005715
X005461
X005207
X004953
X004699
X004826Y0032258
X00508
X005334
X005588
X005842
X006096
X00635
X006604
X006858
X006985Y0034163
X006731
X006477
X006223
X005969
X005715
X005461
X005207
X004953
X004699
X004572Y0032258
X0031496Y006477
Y006731
Y006985
Y007239
Y007493
Y007747
X0029591Y00762
Y007366
Y007112
Y006858
Y006604
X0027686Y006477
Y006731
Y006985
Y007239
Y007493
Y007747
X0029591Y007874
X0025781
Y00762
Y007366
Y007112
Y006858
Y006604
Y008128
Y008382
Y008636
Y00889
X0027686Y008763
Y008509
Y008255
Y008001
X0029591Y008128
Y008382
Y008636
Y00889
X0031496Y008763
Y008509
Y008255
Y008001
T04
X008128Y005334
Y005588
Y005842
X0068072Y0072136
Y0074676
Y0077216
X00635
Y0074676
Y0072136
X0058928
Y0074676
Y0077216
X0054356
Y0074676
Y0072136
T05
X0129032Y0028956
Y0031496
Y0034036
Y0036576
Y0039116
X0144526Y0038862
Y0036322
X0147066
Y0038862
Y0041402
X0144526
Y0043942
Y0046482
Y0049022
Y0051562
Y0054102
Y0056642
Y0059182
X0147066
Y0056642
Y0054102
Y0051562
Y0049022
Y0046482
Y0043942
X0129032Y0044196
Y0046736
Y0041656
Y0053086
Y0055626
Y0058166
Y0060706
Y0063246
Y0065786
Y0068326
Y0070866
X013589Y007366
Y00762
Y007874
X006604Y009779
Y010033
Y010287
Y010541
Y010795
Y011049
Y011303
Y011557
Y011811
X00635
Y011557
Y011303
Y011049
Y010795
Y010541
Y010287
Y010033
Y009779
X0080264Y0097028
Y0094488
Y0091948
Y0089408
Y0086868
Y0099568
Y0102108
Y0104648
Y0109728
Y0112268
Y0114808
Y0117348
X013589Y01143
Y011176
Y010922
Y010668
Y010414
Y01016
Y009906
Y009652
Y009144
Y00889
Y008636
Y008382
Y008128
X015113Y0082042
Y0079502
X015367
Y0082042
Y0084582
X015113
Y0087122
Y0089662
Y0092202
Y0094742
Y0097282
Y0099822
Y0102362
X015367
Y0099822
Y0097282
Y0094742
Y0092202
Y0089662
Y0087122
Y0114808
X015113
Y0117348
X015367
Y0119888
X015113
Y0122428
Y0124968
Y0127508
Y0130048
Y0132588
Y0135128
Y0137668
X015367
Y0135128
Y0132588
Y0130048
Y0127508
Y0124968
Y0122428
X013589Y012192
Y011938
Y012446
Y0127
Y012954
Y013208
Y013462
Y013716
X011557Y013462
X011303
X011049
X010795
X010541
X010287
X010033
X009779
X0080264Y0127508
Y0124968
Y0122428
Y0119888
X006604Y012065
X00635
T06
X0096928Y0049018
Y0051558
Y0054098
Y0056638
Y0059178
Y0061718
Y0064258
Y0066798
Y0069338
Y0071878
Y0074418
Y0076958
X0117248
Y0074418
Y0071878
Y0069338
Y0066798
Y0064258
Y0061718
Y0059178
Y0056638
Y0054098
Y0051558
Y0049018
Y0079498
Y0082038
X0096928
Y0079498
X0089181Y008466
Y00872
Y008974
Y009228
Y009482
Y009736
Y00999
Y010244
Y010498
Y010752
Y011006
Y01126
Y011514
Y011768
X0124741
Y011514
Y01126
Y011006
Y010752
Y010498
Y010244
Y00999
Y009736
Y009482
Y009228
Y008974
Y00872
Y008466
Y012022
Y012276
Y01253
Y012784
X0089181
Y01253
Y012276
Y012022
T07
X004064Y0028448
X007493
X0025781Y005969
Y009398
T08
X0095912Y0086057
X011801
X0116994Y0124919
X0096928
M30
