G04*
G04 #@! TF.GenerationSoftware,Altium Limited,Altium Designer,25.1.2 (22)*
G04*
G04 Layer_Color=16711935*
%FSLAX44Y44*%
%MOMM*%
G71*
G04*
G04 #@! TF.SameCoordinates,0FC80BA3-B051-4539-9073-6837C8DE60D5*
G04*
G04*
G04 #@! TF.FilePolarity,Negative*
G04*
G01*
G75*
%ADD17R,1.7272X1.7272*%
%ADD18R,1.7272X1.7272*%
%ADD19R,1.5032X1.5032*%
%ADD20C,1.5032*%
%ADD21C,3.5032*%
%ADD22R,1.5032X1.5032*%
%ADD23O,2.2032X1.7032*%
%ADD24C,1.7272*%
%ADD25C,1.7532*%
%ADD26C,0.2032*%
%ADD27R,1.7532X1.7532*%
%ADD28R,1.3032X1.3032*%
%ADD29C,1.3032*%
%ADD30C,1.4732*%
D17*
X1290320Y467360D02*
D03*
Y708660D02*
D03*
X802640Y1097280D02*
D03*
Y868680D02*
D03*
X1358900Y1193800D02*
D03*
Y965200D02*
D03*
Y736600D02*
D03*
D18*
X1445260Y591820D02*
D03*
X1511300Y1023620D02*
D03*
X660400Y977900D02*
D03*
X1511300Y1376680D02*
D03*
X1155700Y1346200D02*
D03*
D19*
X698500Y341630D02*
D03*
D20*
X685800Y322580D02*
D03*
X673100Y341630D02*
D03*
X660400Y322580D02*
D03*
X647700Y341630D02*
D03*
X635000Y322580D02*
D03*
X622300Y341630D02*
D03*
X609600Y322580D02*
D03*
X596900Y341630D02*
D03*
X584200Y322580D02*
D03*
X571500Y341630D02*
D03*
X558800Y322580D02*
D03*
X546100Y341630D02*
D03*
X533400Y322580D02*
D03*
X520700Y341630D02*
D03*
X508000Y322580D02*
D03*
X495300Y341630D02*
D03*
X482600Y322580D02*
D03*
X469900Y341630D02*
D03*
X457200Y322580D02*
D03*
X698500Y303530D02*
D03*
X685800Y284480D02*
D03*
X673100Y303530D02*
D03*
X660400Y284480D02*
D03*
X647700Y303530D02*
D03*
X635000Y284480D02*
D03*
X622300Y303530D02*
D03*
X609600Y284480D02*
D03*
X596900Y303530D02*
D03*
X584200Y284480D02*
D03*
X571500Y303530D02*
D03*
X558800Y284480D02*
D03*
X546100Y303530D02*
D03*
X533400Y284480D02*
D03*
X520700Y303530D02*
D03*
X508000Y284480D02*
D03*
X495300Y303530D02*
D03*
X482600Y284480D02*
D03*
X469900Y303530D02*
D03*
X457200Y284480D02*
D03*
X295910Y660400D02*
D03*
X314960Y673100D02*
D03*
X295910Y685800D02*
D03*
X314960Y698500D02*
D03*
X295910Y711200D02*
D03*
X314960Y723900D02*
D03*
X295910Y736600D02*
D03*
X314960Y749300D02*
D03*
X295910Y762000D02*
D03*
X314960Y774700D02*
D03*
X295910Y787400D02*
D03*
X314960Y800100D02*
D03*
X295910Y812800D02*
D03*
X314960Y825500D02*
D03*
X295910Y838200D02*
D03*
X314960Y850900D02*
D03*
X295910Y863600D02*
D03*
X314960Y876300D02*
D03*
X295910Y889000D02*
D03*
X276860Y647700D02*
D03*
X257810Y660400D02*
D03*
X276860Y673100D02*
D03*
X257810Y685800D02*
D03*
X276860Y698500D02*
D03*
X257810Y711200D02*
D03*
X276860Y723900D02*
D03*
X257810Y736600D02*
D03*
X276860Y749300D02*
D03*
X257810Y762000D02*
D03*
X276860Y774700D02*
D03*
X257810Y787400D02*
D03*
X276860Y800100D02*
D03*
X257810Y812800D02*
D03*
X276860Y825500D02*
D03*
X257810Y838200D02*
D03*
X276860Y850900D02*
D03*
X257810Y863600D02*
D03*
X276860Y876300D02*
D03*
X257810Y889000D02*
D03*
D21*
X749300Y284480D02*
D03*
X406400D02*
D03*
X257810Y596900D02*
D03*
Y939800D02*
D03*
D22*
X314960Y647700D02*
D03*
D23*
X812800Y584200D02*
D03*
Y533400D02*
D03*
Y558800D02*
D03*
X543560Y721360D02*
D03*
Y772160D02*
D03*
Y746760D02*
D03*
X589280Y721360D02*
D03*
Y772160D02*
D03*
Y746760D02*
D03*
X635000Y721360D02*
D03*
Y772160D02*
D03*
Y746760D02*
D03*
X680720Y721360D02*
D03*
Y772160D02*
D03*
Y746760D02*
D03*
D24*
X1445260Y566420D02*
D03*
Y541020D02*
D03*
Y515620D02*
D03*
Y490220D02*
D03*
Y363220D02*
D03*
Y388620D02*
D03*
Y414020D02*
D03*
Y439420D02*
D03*
Y464820D02*
D03*
X1470660D02*
D03*
Y439420D02*
D03*
Y414020D02*
D03*
Y388620D02*
D03*
Y363220D02*
D03*
Y490220D02*
D03*
Y515620D02*
D03*
Y541020D02*
D03*
Y566420D02*
D03*
Y591820D02*
D03*
X1511300Y998220D02*
D03*
Y972820D02*
D03*
Y947420D02*
D03*
Y922020D02*
D03*
Y795020D02*
D03*
Y820420D02*
D03*
Y845820D02*
D03*
Y871220D02*
D03*
Y896620D02*
D03*
X1536700D02*
D03*
Y871220D02*
D03*
Y845820D02*
D03*
Y820420D02*
D03*
Y795020D02*
D03*
Y922020D02*
D03*
Y947420D02*
D03*
Y972820D02*
D03*
Y998220D02*
D03*
Y1023620D02*
D03*
X660400Y1003300D02*
D03*
Y1028700D02*
D03*
Y1054100D02*
D03*
Y1079500D02*
D03*
Y1206500D02*
D03*
Y1181100D02*
D03*
Y1155700D02*
D03*
Y1130300D02*
D03*
Y1104900D02*
D03*
X635000D02*
D03*
Y1130300D02*
D03*
Y1155700D02*
D03*
Y1181100D02*
D03*
Y1206500D02*
D03*
Y1079500D02*
D03*
Y1054100D02*
D03*
Y1028700D02*
D03*
Y1003300D02*
D03*
Y977900D02*
D03*
X1511300Y1351280D02*
D03*
Y1325880D02*
D03*
Y1300480D02*
D03*
Y1275080D02*
D03*
Y1148080D02*
D03*
Y1173480D02*
D03*
Y1198880D02*
D03*
Y1224280D02*
D03*
Y1249680D02*
D03*
X1536700D02*
D03*
Y1224280D02*
D03*
Y1198880D02*
D03*
Y1173480D02*
D03*
Y1148080D02*
D03*
Y1275080D02*
D03*
Y1300480D02*
D03*
Y1325880D02*
D03*
Y1351280D02*
D03*
Y1376680D02*
D03*
X1290320Y441960D02*
D03*
Y416560D02*
D03*
Y391160D02*
D03*
Y365760D02*
D03*
Y340360D02*
D03*
Y314960D02*
D03*
Y289560D02*
D03*
Y683260D02*
D03*
Y657860D02*
D03*
Y632460D02*
D03*
Y607060D02*
D03*
Y581660D02*
D03*
Y556260D02*
D03*
Y530860D02*
D03*
X802640Y1122680D02*
D03*
Y1148080D02*
D03*
Y1173480D02*
D03*
Y1198880D02*
D03*
Y1224280D02*
D03*
Y1249680D02*
D03*
Y1275080D02*
D03*
Y894080D02*
D03*
Y919480D02*
D03*
Y944880D02*
D03*
Y970280D02*
D03*
Y995680D02*
D03*
Y1021080D02*
D03*
Y1046480D02*
D03*
X1130300Y1346200D02*
D03*
X1104900D02*
D03*
X1079500D02*
D03*
X1054100D02*
D03*
X1028700D02*
D03*
X1003300D02*
D03*
X977900D02*
D03*
X1358900Y1219200D02*
D03*
Y1244600D02*
D03*
Y1270000D02*
D03*
Y1295400D02*
D03*
Y1320800D02*
D03*
Y1346200D02*
D03*
Y1371600D02*
D03*
Y990600D02*
D03*
Y1016000D02*
D03*
Y1041400D02*
D03*
Y1066800D02*
D03*
Y1092200D02*
D03*
Y1117600D02*
D03*
Y1143000D02*
D03*
Y762000D02*
D03*
Y787400D02*
D03*
Y812800D02*
D03*
Y838200D02*
D03*
Y863600D02*
D03*
Y889000D02*
D03*
Y914400D02*
D03*
D25*
X1247410Y999000D02*
D03*
Y973600D02*
D03*
Y948200D02*
D03*
Y922800D02*
D03*
Y897400D02*
D03*
Y872000D02*
D03*
Y846600D02*
D03*
Y1278400D02*
D03*
Y1253000D02*
D03*
Y1227600D02*
D03*
Y1202200D02*
D03*
Y1176800D02*
D03*
Y1151400D02*
D03*
Y1126000D02*
D03*
Y1100600D02*
D03*
Y1075200D02*
D03*
Y1049800D02*
D03*
Y1024400D02*
D03*
X891810Y846600D02*
D03*
Y872000D02*
D03*
Y897400D02*
D03*
Y922800D02*
D03*
Y948200D02*
D03*
Y973600D02*
D03*
Y999000D02*
D03*
Y1024400D02*
D03*
Y1049800D02*
D03*
Y1075200D02*
D03*
Y1100600D02*
D03*
Y1126000D02*
D03*
Y1151400D02*
D03*
Y1176800D02*
D03*
Y1202200D02*
D03*
Y1227600D02*
D03*
Y1253000D02*
D03*
Y1278400D02*
D03*
X1172480Y718780D02*
D03*
Y515580D02*
D03*
Y540980D02*
D03*
Y566380D02*
D03*
Y591780D02*
D03*
Y617180D02*
D03*
Y642580D02*
D03*
Y667980D02*
D03*
Y693380D02*
D03*
Y744180D02*
D03*
Y769580D02*
D03*
Y794980D02*
D03*
Y820380D02*
D03*
X969280Y642580D02*
D03*
Y667980D02*
D03*
Y693380D02*
D03*
Y718780D02*
D03*
Y617180D02*
D03*
Y515580D02*
D03*
Y540980D02*
D03*
Y566380D02*
D03*
Y591780D02*
D03*
Y744180D02*
D03*
Y769580D02*
D03*
Y794980D02*
D03*
Y820380D02*
D03*
D26*
X959120Y860570D02*
D03*
X1180100D02*
D03*
X969280Y1249190D02*
D03*
X1169940D02*
D03*
D27*
X1172480Y490180D02*
D03*
X969280D02*
D03*
D28*
X812800Y464500D02*
D03*
D29*
Y444500D02*
D03*
D30*
X736600Y800100D02*
D03*
X609600Y838200D02*
D03*
X571500D02*
D03*
Y863600D02*
D03*
X1016000Y508000D02*
D03*
Y546100D02*
D03*
Y585764D02*
D03*
X1064874Y731745D02*
D03*
X1231900Y711200D02*
D03*
Y749300D02*
D03*
Y787400D02*
D03*
X1130300Y901700D02*
D03*
X1092200D02*
D03*
X1054100D02*
D03*
X1016000D02*
D03*
X812800Y1384300D02*
D03*
X863600D02*
D03*
X914400D02*
D03*
X1257300Y1320800D02*
D03*
X1219200D02*
D03*
X1244600Y1346200D02*
D03*
X1206500D02*
D03*
X1092200Y1193800D02*
D03*
X1041400D02*
D03*
X1104900Y1231900D02*
D03*
X1066800D02*
D03*
X1028700D02*
D03*
X1168400Y368300D02*
D03*
Y406400D02*
D03*
Y444500D02*
D03*
X927100Y495300D02*
D03*
X901700D02*
D03*
X876300D02*
D03*
X754380Y508000D02*
D03*
X774700Y495300D02*
D03*
Y520700D02*
D03*
X355600Y533400D02*
D03*
X368300Y558800D02*
D03*
X342900D02*
D03*
X495300Y927100D02*
D03*
X457200D02*
D03*
X419100D02*
D03*
X508000Y1054100D02*
D03*
X469900D02*
D03*
X431800D02*
D03*
X1023620Y642620D02*
D03*
X825500Y655320D02*
D03*
X800100Y673100D02*
D03*
X838200Y698500D02*
D03*
X901700Y655320D02*
D03*
X848360Y810260D02*
D03*
X833120Y795020D02*
D03*
X444500Y812800D02*
D03*
X497840Y889000D02*
D03*
X480060Y863600D02*
D03*
X459740Y838200D02*
D03*
X454660Y530860D02*
D03*
Y505460D02*
D03*
X909320Y695960D02*
D03*
X1054140Y490180D02*
D03*
X967740Y421640D02*
D03*
X995680D02*
D03*
X571500Y373380D02*
D03*
X1097280Y718820D02*
D03*
Y693420D02*
D03*
X800100Y614680D02*
D03*
Y635000D02*
D03*
X454660Y480060D02*
D03*
Y454660D02*
D03*
X711200Y482600D02*
D03*
X759460Y439420D02*
D03*
X713740Y546100D02*
D03*
X688340D02*
D03*
X662940D02*
D03*
X635000D02*
D03*
X680720Y655320D02*
D03*
X635000D02*
D03*
X589280D02*
D03*
X543560D02*
D03*
X375920Y304800D02*
D03*
X271780Y1028700D02*
D03*
M02*
